SplineFontDB: 3.2
FontName: PlainsoundText-Regular
FullName: Plainsound Text Regular
FamilyName: Plainsound Text
Weight: Regular
Copyright: Copyright \\(c\\) 2025 by Thomas Nicholson
Version: 001.000
ItalicAngle: 0
UnderlinePosition: -250
UnderlineWidth: 51
Ascent: 800
Descent: 200
InvalidEm: 0
sfntRevision: 0x00010000
LayerCount: 2
Layer: 0 0 "Back" 1
Layer: 1 0 "Fore" 0
HasVMetrics: 1
XUID: [1021 499 -536683136 2191208]
StyleMap: 0x0040
FSType: 4
OS2Version: 4
OS2_WeightWidthSlopeOnly: 0
OS2_UseTypoMetrics: 1
CreationTime: 1743630331
ModificationTime: 1744820460
PfmFamily: 81
TTFWeight: 400
TTFWidth: 5
LineGap: 0
VLineGap: 1000
Panose: 0 0 0 0 0 0 0 0 0 0
OS2TypoAscent: 969
OS2TypoAOffset: 0
OS2TypoDescent: -251
OS2TypoDOffset: 0
OS2TypoLinegap: 0
OS2WinAscent: 969
OS2WinAOffset: 0
OS2WinDescent: 251
OS2WinDOffset: 0
HheadAscent: 969
HheadAOffset: 0
HheadDescent: -251
HheadDOffset: 0
OS2SubXSize: 650
OS2SubYSize: 600
OS2SubXOff: 0
OS2SubYOff: 75
OS2SupXSize: 650
OS2SupYSize: 600
OS2SupXOff: 0
OS2SupYOff: 350
OS2StrikeYSize: 51
OS2StrikeYPos: 303
OS2CapHeight: 727
OS2XHeight: 505
OS2Vendor: 'TN  '
OS2CodePages: 20000093.00000000
OS2UnicodeRanges: 00000007.00000000.00000000.00000000
Lookup: 1 0 0 "'aalt' Access All Alternates in Latin lookup 0" { "'aalt' Access All Alternates in Latin lookup 0 subtable"  } ['aalt' ('DFLT' <'dflt' > 'latn' <'dflt' > ) ]
Lookup: 1 0 0 "'locl' Localized Forms in Latin lookup 1" { "'locl' Localized Forms in Latin lookup 1 subtable"  } ['locl' ('latn' <'ROM ' > ) ]
Lookup: 1 0 0 "'locl' Localized Forms in Latin lookup 2" { "'locl' Localized Forms in Latin lookup 2 subtable"  } ['locl' ('latn' <'MOL ' > ) ]
Lookup: 1 0 0 "'locl' Localized Forms in Latin lookup 3" { "'locl' Localized Forms in Latin lookup 3 subtable"  } ['locl' ('latn' <'KAZ ' > ) ]
Lookup: 1 0 0 "'locl' Localized Forms in Latin lookup 4" { "'locl' Localized Forms in Latin lookup 4 subtable"  } ['locl' ('latn' <'TAT ' > ) ]

StartChar: .notdef
Encoding: 65536 -1 0
Width: 265
VWidth: 1220
GlyphClass: 1
Flags: MW
HStem: 0 40<80 185 80 225> 687 40<80 80 80 185>
VStem: 40 40<40 687 40 727> 185 40<40 687 687 687>
LayerCount: 2
Fore
SplineSet
225 0 m 1
 40 0 l 1
 40 727 l 1
 225 727 l 1
 225 0 l 1
80 687 m 1
 80 40 l 1
 185 40 l 1
 185 687 l 1
 80 687 l 1
EndSplineSet
EndChar

StartChar: A
Encoding: 65 65 1
Width: 560
VWidth: 1200
GlyphClass: 2
Flags: MW
HStem: 0 21G<20 20 20 92 468 468 468 540> 174 70<161 399 161 419 141 399> 663 64<280 280>
VStem: 20 520<0 0>
AnchorPoint: "Anchor-4" 280 727 basechar 0
AnchorPoint: "Anchor-3" 540 0 basechar 0
AnchorPoint: "Anchor-2" 280 0 basechar 0
LayerCount: 2
Fore
SplineSet
20 0 m 1
 222 727 l 1
 338 727 l 1
 540 0 l 1
 468 0 l 1
 419 174 l 1
 141 174 l 1
 92 0 l 1
 20 0 l 1
280 663 m 1
 161 244 l 1
 399 244 l 1
 280 663 l 1
EndSplineSet
EndChar

StartChar: Aacute
Encoding: 193 193 2
Width: 560
VWidth: 1220
GlyphClass: 2
Flags: MW
HStem: 0 21G<20 92 20 20 468 540 468 468> 174 70<161 399 161 419 141 399> 663 64<280 280> 808 141<246 434 246 434>
VStem: 20 520<0 0>
AnchorPoint: "Anchor-4" 280 949 basechar 0
AnchorPoint: "Anchor-3" 540 0 basechar 0
AnchorPoint: "Anchor-2" 280 0 basechar 0
LayerCount: 2
Fore
SplineSet
335 949 m 1
 434 949 l 1
 313 808 l 1
 246 808 l 1
 335 949 l 1
540 0 m 1
 468 0 l 1
 419 174 l 1
 141 174 l 1
 92 0 l 1
 20 0 l 1
 222 727 l 1
 338 727 l 1
 540 0 l 1
280 663 m 1
 161 244 l 1
 399 244 l 1
 280 663 l 1
EndSplineSet
EndChar

StartChar: Abreve
Encoding: 258 258 3
Width: 560
VWidth: 1220
GlyphClass: 2
Flags: MW
HStem: 0 21G<20 92 20 20 468 540 468 468> 174 70<161 399 161 419 141 399> 663 64<280 280> 808 52<265 295 265 320.5>
VStem: 150 63 165 70<926 926> 326 68<926 926>
AnchorPoint: "Anchor-4" 280 926 basechar 0
AnchorPoint: "Anchor-3" 540 0 basechar 0
AnchorPoint: "Anchor-2" 280 0 basechar 0
LayerCount: 2
Fore
SplineSet
326 926 m 1xfa
 394 926 l 1
 388 830 361 808 280 808 c 0
 200 808 172 832 165 926 c 1
 235 926 l 1xf6
 239 874 251 860 279 860 c 0
 311 860 322 871 326 926 c 1xfa
338 727 m 1
 540 0 l 1
 468 0 l 1
 419 174 l 1
 141 174 l 1
 92 0 l 1
 20 0 l 1
 222 727 l 1
 338 727 l 1
399 244 m 1
 280 663 l 1
 161 244 l 1
 399 244 l 1
EndSplineSet
EndChar

StartChar: Acircumflex
Encoding: 194 194 4
Width: 560
VWidth: 1220
GlyphClass: 2
Flags: MW
HStem: 0 21G<20 92 20 20 468 540 468 468> 174 70<161 399 161 419 141 399> 663 64<280 280> 808 141<149 321 149 321 239 336 239 411> 902 47<280 280>
VStem: 20 520<0 0>
AnchorPoint: "Anchor-4" 280 949 basechar 0
AnchorPoint: "Anchor-3" 540 0 basechar 0
AnchorPoint: "Anchor-2" 280 0 basechar 0
LayerCount: 2
Fore
SplineSet
224 808 m 1xf4
 149 808 l 1
 239 949 l 1
 321 949 l 1
 411 808 l 1
 336 808 l 1xf4
 280 902 l 1xec
 224 808 l 1xf4
338 727 m 1
 540 0 l 1
 468 0 l 1
 419 174 l 1
 141 174 l 1
 92 0 l 1
 20 0 l 1
 222 727 l 1
 338 727 l 1
399 244 m 1
 280 663 l 1
 161 244 l 1
 399 244 l 1
EndSplineSet
EndChar

StartChar: Adieresis
Encoding: 196 196 5
Width: 560
VWidth: 1220
GlyphClass: 2
Flags: MW
HStem: 0 21G<20 92 20 20 468 540 468 468> 174 70<161 399 161 419 141 399> 663 64<280 280> 833 83
VStem: 139 80 150 80<813 896> 319 80 330 80<813 896>
AnchorPoint: "Anchor-4" 280 896 basechar 0
AnchorPoint: "Anchor-3" 540 0 basechar 0
AnchorPoint: "Anchor-2" 280 0 basechar 0
LayerCount: 2
Fore
SplineSet
230 813 m 1xf6
 150 813 l 1
 150 896 l 1
 230 896 l 1
 230 813 l 1xf6
410 813 m 1xf9
 330 813 l 1
 330 896 l 1
 410 896 l 1
 410 813 l 1xf9
222 727 m 1
 338 727 l 1
 540 0 l 1
 468 0 l 1
 419 174 l 1
 141 174 l 1
 92 0 l 1
 20 0 l 1
 222 727 l 1
161 244 m 1
 399 244 l 1xfa
 280 663 l 1
 161 244 l 1
EndSplineSet
EndChar

StartChar: Agrave
Encoding: 192 192 6
Width: 560
VWidth: 1220
GlyphClass: 2
Flags: MW
HStem: 0 21G<20 92 20 20 468 540 468 468> 174 70<161 399 161 419 141 399> 663 64<280 280> 808 141<126 314 126 247>
VStem: 20 520<0 0>
AnchorPoint: "Anchor-4" 280 949 basechar 0
AnchorPoint: "Anchor-3" 540 0 basechar 0
AnchorPoint: "Anchor-2" 280 0 basechar 0
LayerCount: 2
Fore
SplineSet
314 808 m 1
 247 808 l 1
 126 949 l 1
 225 949 l 1
 314 808 l 1
222 727 m 1
 338 727 l 1
 540 0 l 1
 468 0 l 1
 419 174 l 1
 141 174 l 1
 92 0 l 1
 20 0 l 1
 222 727 l 1
161 244 m 1
 399 244 l 1
 280 663 l 1
 161 244 l 1
EndSplineSet
EndChar

StartChar: Amacron
Encoding: 256 256 7
Width: 560
VWidth: 1220
GlyphClass: 2
Flags: MW
HStem: 0 21G<20 20 20 92 468 468 468 540> 174 70<161 399 161 419 141 399> 663 64<280 280> 830 61
VStem: 177 207
AnchorPoint: "Anchor-4" 280 869 basechar 0
AnchorPoint: "Anchor-3" 540 0 basechar 0
AnchorPoint: "Anchor-2" 280 0 basechar 0
LayerCount: 2
Fore
SplineSet
384 808 m 1
 176 808 l 1
 176 869 l 1
 384 869 l 1
 384 808 l 1
20 0 m 1
 222 727 l 1
 338 727 l 1
 540 0 l 1
 468 0 l 1
 419 174 l 1
 141 174 l 1
 92 0 l 1
 20 0 l 1
280 663 m 1
 161 244 l 1
 399 244 l 1
 280 663 l 1
EndSplineSet
EndChar

StartChar: Aogonek
Encoding: 260 260 8
Width: 560
VWidth: 1220
GlyphClass: 2
Flags: MW
HStem: -188 59<532.5 539.5> 0 21G<20 92 20 20 468 475 468 468 540 540> 174 70<161 399 161 419 141 399> 663 64<280 280>
VStem: 422 63<-96.5 -75>
AnchorPoint: "Anchor-4" 280 727 basechar 0
AnchorPoint: "Anchor-3" 540 0 basechar 0
AnchorPoint: "Anchor-2" 280 0 basechar 0
LayerCount: 2
Fore
SplineSet
548 -129 m 0
 557 -129 566 -128 574 -125 c 1
 574 -185 l 1
 560 -187 546 -188 533 -188 c 0
 468 -188 422 -161 422 -94 c 0
 422 -56 437 -30 475 0 c 1
 468 0 l 1
 419 174 l 1
 141 174 l 1
 92 0 l 1
 20 0 l 1
 222 727 l 1
 338 727 l 1
 540 0 l 1
 503 -28 485 -54 485 -80 c 0
 485 -113 517 -129 548 -129 c 0
280 663 m 1
 161 244 l 1
 399 244 l 1
 280 663 l 1
EndSplineSet
EndChar

StartChar: Aring
Encoding: 197 197 9
Width: 560
VWidth: 1220
GlyphClass: 2
Flags: MW
HStem: 0 21G<20 92 20 20 468 540 468 468> 174 70<161 399 161 419 141 399> 707 20G<338 338> 858 49<265.5 293>
VStem: 181 48<793.5 822.5 793.5 834.5> 330 48<793.5 808 792 822.5>
AnchorPoint: "Anchor-4" 280 727 basechar 0
AnchorPoint: "Anchor-3" 540 0 basechar 0
AnchorPoint: "Anchor-2" 280 0 basechar 0
LayerCount: 2
Fore
SplineSet
338 727 m 1
 540 0 l 1
 468 0 l 1
 419 174 l 1
 141 174 l 1
 92 0 l 1
 20 0 l 1
 222 726 l 1
 197 744 181 774 181 808 c 0
 181 861 220 907 281 907 c 0
 330 907 376 864 378 808 c 0
 378 776 363 746 338 727 c 1
280 858 m 0
 251 858 229 837 229 808 c 0
 229 779 250 756 279 756 c 0
 308 756 330 779 330 808 c 0
 330 837 306 858 280 858 c 0
280 663 m 1
 161 244 l 1
 399 244 l 1
 280 663 l 1
EndSplineSet
EndChar

StartChar: Atilde
Encoding: 195 195 10
Width: 560
VWidth: 1220
GlyphClass: 2
Flags: MW
HStem: 0 21G<20 20 20 92 468 468 468 540> 174 70<161 399 161 419 141 399> 663 64<280 280> 815 64<314 345.5> 853 63<210.5 241>
VStem: 378 52<924 924>
AnchorPoint: "Anchor-4" 280 924 basechar 0
AnchorPoint: "Anchor-3" 540 0 basechar 0
AnchorPoint: "Anchor-2" 280 0 basechar 0
LayerCount: 2
Fore
SplineSet
176 808 m 1xec
 130 808 l 1
 137 877 170 916 229 916 c 0xec
 283 916 293 879 335 879 c 0
 362 879 375 894 378 924 c 1
 430 924 l 1
 427 895 416 867 399 848 c 0
 381 827 359 815 332 815 c 0xf4
 286 815 259 853 223 853 c 0
 198 853 179 833 176 808 c 1xec
20 0 m 1
 222 727 l 1
 338 727 l 1
 540 0 l 1
 468 0 l 1
 419 174 l 1
 141 174 l 1
 92 0 l 1
 20 0 l 1
280 663 m 1
 161 244 l 1
 399 244 l 1
 280 663 l 1
EndSplineSet
EndChar

StartChar: AE
Encoding: 198 198 11
Width: 790
VWidth: 1220
GlyphClass: 2
Flags: MW
HStem: 0 70<461 745 461 745> 174 70<183 385 183 385 158 385> 336 70<461 718 461 718> 657 70<328 328 328 385 461 742 461 461>
VStem: 385 76<70 174 174 174 244 336 70 406 406 657>
AnchorPoint: "Anchor-4" 564 727 basechar 0
AnchorPoint: "Anchor-3" 745 0 basechar 0
AnchorPoint: "Anchor-2" 565 0 basechar 0
LayerCount: 2
Fore
SplineSet
461 336 m 1
 461 70 l 1
 745 70 l 1
 745 0 l 1
 385 0 l 1
 385 174 l 1
 158 174 l 1
 97 0 l 1
 20 0 l 1
 272 727 l 1
 742 727 l 1
 742 657 l 1
 461 657 l 1
 461 406 l 1
 718 406 l 1
 718 336 l 1
 461 336 l 1
328 657 m 1
 183 244 l 1
 385 244 l 1
 385 657 l 1
 328 657 l 1
EndSplineSet
EndChar

StartChar: B
Encoding: 66 66 12
Width: 565
VWidth: 1200
GlyphClass: 2
Flags: MW
HStem: 0 70<151 265 265 266> 344 70<151 251 151 245> 382 32 656 71<151 151 151 271>
VStem: 75 76<70 344 414 656> 394 76<502.5 584.5> 429 76<143.5 246.5>
AnchorPoint: "Anchor-4" 280 727 basechar 0
AnchorPoint: "Anchor-2" 280 0 basechar 0
LayerCount: 2
Fore
SplineSet
266 0 m 2xda
 75 0 l 1
 75 727 l 1
 271 727 l 2
 402 727 470 677 470 546 c 0xbc
 470 442 430 405 329 382 c 1xba
 455 358 505 307 505 189 c 0
 505 42 409 0 266 0 c 2xda
151 656 m 1
 151 414 l 1
 251 414 l 2xdc
 349 414 394 460 394 545 c 0
 394 624 345 656 271 656 c 2
 151 656 l 1
151 344 m 1
 151 70 l 1
 265 70 l 2
 353 70 429 95 429 192 c 0xda
 429 301 362 344 245 344 c 2
 151 344 l 1
EndSplineSet
EndChar

StartChar: C
Encoding: 67 67 13
Width: 524
VWidth: 1200
GlyphClass: 2
Flags: MW
HStem: -10 67<216 314 216 335> 670 67<216.5 315>
VStem: 60 76<265 461> 403 76<157.5 205 521 570.5>
AnchorPoint: "Anchor-4" 265 727 basechar 0
AnchorPoint: "Anchor-2" 265 0 basechar 0
LayerCount: 2
Fore
SplineSet
479 521 m 1
 403 521 l 1
 403 620 365 670 265 670 c 0
 168 670 136 615 136 461 c 2
 136 265 l 2
 136 110 167 57 265 57 c 0
 363 57 403 110 403 205 c 1
 479 205 l 1
 479 74 405 -10 265 -10 c 0
 125 -10 60 75 60 265 c 2
 60 461 l 2
 60 657 119 737 265 737 c 0
 412 737 479 659 479 521 c 1
EndSplineSet
EndChar

StartChar: Cacute
Encoding: 262 262 14
Width: 524
VWidth: 1220
GlyphClass: 2
Flags: MW
HStem: -10 67<216 314 216 335> 670 67<216.5 315> 808 141<231 419 231 419>
VStem: 60 76<265 461> 403 76<157.5 205 521 570.5>
AnchorPoint: "Anchor-4" 265 949 basechar 0
AnchorPoint: "Anchor-2" 265 0 basechar 0
LayerCount: 2
Fore
SplineSet
298 808 m 1
 231 808 l 1
 320 949 l 1
 419 949 l 1
 298 808 l 1
479 521 m 1
 403 521 l 1
 403 620 365 670 265 670 c 0
 168 670 136 615 136 461 c 2
 136 265 l 2
 136 110 167 57 265 57 c 0
 363 57 403 110 403 205 c 1
 479 205 l 1
 479 74 405 -10 265 -10 c 0
 125 -10 60 75 60 265 c 2
 60 461 l 2
 60 657 119 737 265 737 c 0
 412 737 479 659 479 521 c 1
EndSplineSet
EndChar

StartChar: Ccaron
Encoding: 268 268 15
Width: 524
VWidth: 1220
GlyphClass: 2
Flags: MW
HStem: -10 67<216 314 216 335> 670 67<216.5 315> 808 141<134 306 134 224>
VStem: 60 76<265 461> 119 292 403 76<157.5 205 521 570.5>
AnchorPoint: "Anchor-4" 265 949 basechar 0
AnchorPoint: "Anchor-2" 265 0 basechar 0
LayerCount: 2
Fore
SplineSet
265 855 m 1xe8
 321 949 l 1
 396 949 l 1
 306 808 l 1
 224 808 l 1
 134 949 l 1
 209 949 l 1
 265 855 l 1xe8
479 521 m 1xe4
 403 521 l 1xe4
 403 620 365 670 265 670 c 0
 168 670 136 615 136 461 c 2
 136 265 l 2xf0
 136 110 167 57 265 57 c 0
 363 57 403 110 403 205 c 1
 479 205 l 1xe4
 479 74 405 -10 265 -10 c 0
 125 -10 60 75 60 265 c 2
 60 461 l 2xf0
 60 657 119 737 265 737 c 0
 412 737 479 659 479 521 c 1xe4
EndSplineSet
EndChar

StartChar: Ccedilla
Encoding: 199 199 16
Width: 524
VWidth: 1220
GlyphClass: 2
Flags: MW
HStem: -227 45<244.5 276.5 244.5 287.5> -76 41<277 277 277 280> -8 21G<231 231> -8 65<231 231> 670 67<216.5 315>
VStem: 60 76<265 461> 316 55<-139 -109> 403 76<157.5 205 521 570.5>
AnchorPoint: "Anchor-4" 265 727 basechar 0
AnchorPoint: "Anchor-2" 254 -225 basechar 0
LayerCount: 2
Fore
SplineSet
265 57 m 0x9f
 363 57 403 110 403 205 c 1
 479 205 l 1
 479 82 414 0 290 -9 c 1
 277 -35 l 1
 326 -36 371 -65 371 -130 c 0
 371 -193 316 -227 259 -227 c 0
 223 -227 186 -214 162 -185 c 1
 193 -155 l 1
 206 -171 232 -182 257 -182 c 0
 296 -182 316 -153 316 -125 c 0
 316 -93 293 -76 267 -76 c 0
 257 -76 246 -79 237 -85 c 1
 203 -65 l 1xef
 231 -8 l 1
 114 5 60 91 60 265 c 2
 60 461 l 2
 60 657 119 737 265 737 c 0
 412 737 479 659 479 521 c 1
 403 521 l 1
 403 620 365 670 265 670 c 0
 168 670 136 615 136 461 c 2
 136 265 l 2
 136 110 167 57 265 57 c 0x9f
EndSplineSet
EndChar

StartChar: Cdotaccent
Encoding: 266 266 17
Width: 524
VWidth: 1220
GlyphClass: 2
Flags: MW
HStem: -10 67<216 314 216 335> 670 67<216.5 315> 813 83<225 305 225 305>
VStem: 60 76<265 461> 225 80<813 896> 403 76<157.5 205 521 570.5>
AnchorPoint: "Anchor-4" 265 896 basechar 0
AnchorPoint: "Anchor-2" 265 0 basechar 0
LayerCount: 2
Fore
SplineSet
305 813 m 1
 225 813 l 1
 225 896 l 1
 305 896 l 1
 305 813 l 1
479 521 m 1
 403 521 l 1
 403 620 365 670 265 670 c 0
 168 670 136 615 136 461 c 2
 136 265 l 2
 136 110 167 57 265 57 c 0
 363 57 403 110 403 205 c 1
 479 205 l 1
 479 74 405 -10 265 -10 c 0
 125 -10 60 75 60 265 c 2
 60 461 l 2
 60 657 119 737 265 737 c 0
 412 737 479 659 479 521 c 1
EndSplineSet
EndChar

StartChar: D
Encoding: 68 68 18
Width: 559
VWidth: 1200
GlyphClass: 2
Flags: MW
HStem: 0 67<151 260 260 270> 660 67<151 151 151 260>
VStem: 75 76<67 660 67 727 67 727> 418 81<274 453 453 491.5 238.5 527>
AnchorPoint: "Anchor-4" 269 727 basechar 0
AnchorPoint: "Anchor-2" 279 0 basechar 0
LayerCount: 2
Fore
SplineSet
270 0 m 2
 75 0 l 1
 75 727 l 1
 270 727 l 2
 455 727 499 619 499 364 c 0
 499 113 449 0 270 0 c 2
151 660 m 1
 151 67 l 1
 260 67 l 2
 356 67 418 130 418 274 c 2
 418 453 l 2
 418 601 360 660 260 660 c 2
 151 660 l 1
EndSplineSet
EndChar

StartChar: Eth
Encoding: 208 208 19
Width: 559
VWidth: 1220
GlyphClass: 2
Flags: MW
HStem: 0 67<151 260 260 270> 366 56<13 75 13 75 151 304> 660 67<151 260 151 151>
VStem: 75 76<67 366 67 366 67 366 422 660> 418 81<274 453 453 491.5 238.5 527>
AnchorPoint: "Anchor-4" 269 727 basechar 0
AnchorPoint: "Anchor-2" 279 0 basechar 0
LayerCount: 2
Fore
SplineSet
75 727 m 1
 270 727 l 2
 455 727 499 619 499 364 c 0
 499 113 449 0 270 0 c 2
 75 0 l 1
 75 366 l 1
 13 366 l 1
 13 422 l 1
 75 422 l 1
 75 727 l 1
418 274 m 2
 418 453 l 2
 418 601 360 660 260 660 c 2
 151 660 l 1
 151 422 l 1
 304 422 l 1
 304 366 l 1
 151 366 l 1
 151 67 l 1
 260 67 l 2
 356 67 418 130 418 274 c 2
EndSplineSet
EndChar

StartChar: Dcaron
Encoding: 270 270 20
Width: 559
VWidth: 1220
GlyphClass: 2
Flags: MW
HStem: 0 67<151 260 260 270> 660 67<151 151 151 260> 808 141<138 310 138 228>
VStem: 75 76<67 660 67 727 67 727> 418 81<274 453 453 491.5 238.5 527>
AnchorPoint: "Anchor-4" 269 949 basechar 0
AnchorPoint: "Anchor-2" 279 0 basechar 0
LayerCount: 2
Fore
SplineSet
213 949 m 1
 269 855 l 1
 325 949 l 1
 400 949 l 1
 310 808 l 1
 228 808 l 1
 138 949 l 1
 213 949 l 1
270 0 m 2
 75 0 l 1
 75 727 l 1
 270 727 l 2
 455 727 499 619 499 364 c 0
 499 113 449 0 270 0 c 2
151 660 m 1
 151 67 l 1
 260 67 l 2
 356 67 418 130 418 274 c 2
 418 453 l 2
 418 601 360 660 260 660 c 2
 151 660 l 1
EndSplineSet
EndChar

StartChar: Dcroat
Encoding: 272 272 21
Width: 559
VWidth: 1220
GlyphClass: 2
Flags: MW
HStem: 0 67<151 260 260 270> 366 56<13 75 13 75 151 304> 660 67<151 260 151 151>
VStem: 75 76<67 366 67 366 67 366 422 660> 418 81<274 453 453 491.5 238.5 527>
AnchorPoint: "Anchor-4" 269 727 basechar 0
AnchorPoint: "Anchor-2" 279 0 basechar 0
LayerCount: 2
Fore
SplineSet
75 727 m 1
 270 727 l 2
 455 727 499 619 499 364 c 0
 499 113 449 0 270 0 c 2
 75 0 l 1
 75 366 l 1
 13 366 l 1
 13 422 l 1
 75 422 l 1
 75 727 l 1
418 274 m 2
 418 453 l 2
 418 601 360 660 260 660 c 2
 151 660 l 1
 151 422 l 1
 304 422 l 1
 304 366 l 1
 151 366 l 1
 151 67 l 1
 260 67 l 2
 356 67 418 130 418 274 c 2
EndSplineSet
EndChar

StartChar: E
Encoding: 69 69 22
Width: 480
VWidth: 1200
GlyphClass: 2
Flags: MW
HStem: 0 70<151 435 151 435> 336 70<151 408 151 408> 657 70<151 432 151 151>
VStem: 75 76<70 336 70 406 406 657>
AnchorPoint: "Anchor-4" 254 727 basechar 0
AnchorPoint: "Anchor-3" 435 0 basechar 0
AnchorPoint: "Anchor-2" 255 0 basechar 0
LayerCount: 2
Fore
SplineSet
151 336 m 1
 151 70 l 1
 435 70 l 1
 435 0 l 1
 75 0 l 1
 75 727 l 1
 432 727 l 1
 432 657 l 1
 151 657 l 1
 151 406 l 1
 408 406 l 1
 408 336 l 1
 151 336 l 1
EndSplineSet
EndChar

StartChar: Eacute
Encoding: 201 201 23
Width: 480
VWidth: 1220
GlyphClass: 2
Flags: MW
HStem: 0 70<151 435 151 435> 336 70<151 408 151 408> 657 70<151 432 151 151> 808 141<220 408 220 408>
VStem: 75 76<70 336 406 657>
AnchorPoint: "Anchor-4" 254 949 basechar 0
AnchorPoint: "Anchor-3" 435 0 basechar 0
AnchorPoint: "Anchor-2" 255 0 basechar 0
LayerCount: 2
Fore
SplineSet
287 808 m 1
 220 808 l 1
 309 949 l 1
 408 949 l 1
 287 808 l 1
435 0 m 1
 75 0 l 1
 75 727 l 1
 432 727 l 1
 432 657 l 1
 151 657 l 1
 151 406 l 1
 408 406 l 1
 408 336 l 1
 151 336 l 1
 151 70 l 1
 435 70 l 1
 435 0 l 1
EndSplineSet
EndChar

StartChar: Ecaron
Encoding: 282 282 24
Width: 480
VWidth: 1220
GlyphClass: 2
Flags: MW
HStem: 0 70<151 435 151 435> 336 70<151 408 151 408> 657 70<151 432 151 151> 808 141<123 295 123 213>
VStem: 75 76<70 336 406 657>
AnchorPoint: "Anchor-4" 254 949 basechar 0
AnchorPoint: "Anchor-3" 435 0 basechar 0
AnchorPoint: "Anchor-2" 255 0 basechar 0
LayerCount: 2
Fore
SplineSet
123 949 m 1
 198 949 l 1
 254 855 l 1
 310 949 l 1
 385 949 l 1
 295 808 l 1
 213 808 l 1
 123 949 l 1
435 70 m 1
 435 0 l 1
 75 0 l 1
 75 727 l 1
 432 727 l 1
 432 657 l 1
 151 657 l 1
 151 406 l 1
 408 406 l 1
 408 336 l 1
 151 336 l 1
 151 70 l 1
 435 70 l 1
EndSplineSet
EndChar

StartChar: Ecircumflex
Encoding: 202 202 25
Width: 480
VWidth: 1220
GlyphClass: 2
Flags: MW
HStem: 0 70<151 435 151 435> 336 70<151 408 151 408> 657 70<151 432 151 151> 808 141<123 295 123 295 213 310 213 385> 902 47<254 254>
VStem: 75 76<70 336 406 657>
AnchorPoint: "Anchor-4" 254 949 basechar 0
AnchorPoint: "Anchor-3" 435 0 basechar 0
AnchorPoint: "Anchor-2" 255 0 basechar 0
LayerCount: 2
Fore
SplineSet
198 808 m 1xf4
 123 808 l 1
 213 949 l 1
 295 949 l 1
 385 808 l 1
 310 808 l 1xf4
 254 902 l 1xec
 198 808 l 1xf4
435 70 m 1
 435 0 l 1
 75 0 l 1
 75 727 l 1
 432 727 l 1
 432 657 l 1
 151 657 l 1
 151 406 l 1
 408 406 l 1
 408 336 l 1
 151 336 l 1
 151 70 l 1
 435 70 l 1
EndSplineSet
EndChar

StartChar: Edieresis
Encoding: 203 203 26
Width: 480
VWidth: 1220
GlyphClass: 2
Flags: MW
HStem: 0 70<151 435 151 435> 336 70<151 408 151 408> 657 70<151 432 151 151> 833 83
VStem: 75 76<70 70 70 336 406 657> 124 80<813 896> 293 80 304 80<813 896>
AnchorPoint: "Anchor-4" 254 896 basechar 0
AnchorPoint: "Anchor-3" 435 0 basechar 0
AnchorPoint: "Anchor-2" 255 0 basechar 0
LayerCount: 2
Fore
SplineSet
204 813 m 1xf6
 124 813 l 1
 124 896 l 1
 204 896 l 1
 204 813 l 1xf6
384 813 m 1xf5
 304 813 l 1
 304 896 l 1
 384 896 l 1
 384 813 l 1xf5
151 70 m 1xfa
 435 70 l 1
 435 0 l 1
 75 0 l 1
 75 727 l 1
 432 727 l 1
 432 657 l 1
 151 657 l 1
 151 406 l 1
 408 406 l 1
 408 336 l 1
 151 336 l 1
 151 70 l 1xfa
EndSplineSet
EndChar

StartChar: Edotaccent
Encoding: 278 278 27
Width: 480
VWidth: 1220
GlyphClass: 2
Flags: MW
HStem: 0 70<151 435 151 435> 336 70<151 408 151 408> 657 70<151 432 151 151> 813 83<214 294 214 294>
VStem: 75 76<70 70 70 336 406 657> 214 80<813 896>
AnchorPoint: "Anchor-4" 254 896 basechar 0
AnchorPoint: "Anchor-3" 435 0 basechar 0
AnchorPoint: "Anchor-2" 255 0 basechar 0
LayerCount: 2
Fore
SplineSet
294 813 m 1
 214 813 l 1
 214 896 l 1
 294 896 l 1
 294 813 l 1
151 70 m 1
 435 70 l 1
 435 0 l 1
 75 0 l 1
 75 727 l 1
 432 727 l 1
 432 657 l 1
 151 657 l 1
 151 406 l 1
 408 406 l 1
 408 336 l 1
 151 336 l 1
 151 70 l 1
EndSplineSet
EndChar

StartChar: Egrave
Encoding: 200 200 28
Width: 480
VWidth: 1220
GlyphClass: 2
Flags: MW
HStem: 0 70<151 435 151 435> 336 70<151 408 151 408> 657 70<151 432 151 151> 808 141<100 288 100 221>
VStem: 75 76<70 70 70 336 406 657>
AnchorPoint: "Anchor-4" 254 949 basechar 0
AnchorPoint: "Anchor-3" 435 0 basechar 0
AnchorPoint: "Anchor-2" 255 0 basechar 0
LayerCount: 2
Fore
SplineSet
288 808 m 1
 221 808 l 1
 100 949 l 1
 199 949 l 1
 288 808 l 1
151 70 m 1
 435 70 l 1
 435 0 l 1
 75 0 l 1
 75 727 l 1
 432 727 l 1
 432 657 l 1
 151 657 l 1
 151 406 l 1
 408 406 l 1
 408 336 l 1
 151 336 l 1
 151 70 l 1
EndSplineSet
EndChar

StartChar: Emacron
Encoding: 274 274 29
Width: 480
VWidth: 1220
GlyphClass: 2
Flags: MW
HStem: 0 70<151 435 151 435> 336 70<151 408 151 408> 657 70<151 432 151 151> 830 61
VStem: 75 76<70 336 70 406 406 657> 151 207<406 808>
AnchorPoint: "Anchor-4" 254 869 basechar 0
AnchorPoint: "Anchor-3" 435 0 basechar 0
AnchorPoint: "Anchor-2" 255 0 basechar 0
LayerCount: 2
Fore
SplineSet
358 808 m 1xf4
 150 808 l 1
 150 869 l 1
 358 869 l 1
 358 808 l 1xf4
151 336 m 1
 151 70 l 1xf4
 435 70 l 1
 435 0 l 1
 75 0 l 1
 75 727 l 1xf8
 432 727 l 1
 432 657 l 1
 151 657 l 1
 151 406 l 1
 408 406 l 1
 408 336 l 1
 151 336 l 1
EndSplineSet
EndChar

StartChar: Eogonek
Encoding: 280 280 30
Width: 480
VWidth: 1220
GlyphClass: 2
Flags: MW
HStem: -188 59<427.5 434.5> 0 70<151 370 151 435> 336 70<151 408 151 408> 657 70<151 432 151 151>
VStem: 75 76<70 336 406 657> 317 63<-96.5 -75>
AnchorPoint: "Anchor-4" 254 727 basechar 0
AnchorPoint: "Anchor-3" 435 0 basechar 0
AnchorPoint: "Anchor-2" 255 0 basechar 0
LayerCount: 2
Fore
SplineSet
443 -129 m 0
 452 -129 461 -128 469 -125 c 1
 469 -185 l 1
 455 -187 441 -188 428 -188 c 0
 363 -188 317 -161 317 -94 c 0
 317 -56 332 -30 370 0 c 1
 75 0 l 1
 75 727 l 1
 432 727 l 1
 432 657 l 1
 151 657 l 1
 151 406 l 1
 408 406 l 1
 408 336 l 1
 151 336 l 1
 151 70 l 1
 435 70 l 1
 435 0 l 1
 398 -28 380 -54 380 -80 c 0
 380 -113 412 -129 443 -129 c 0
EndSplineSet
EndChar

StartChar: F
Encoding: 70 70 31
Width: 465
VWidth: 1200
GlyphClass: 2
Flags: MW
HStem: 0 21G<75 151 75 75> 336 70<151 399 151 399> 657 70<151 420 151 151>
VStem: 75 76<0 336 406 657>
AnchorPoint: "Anchor-4" 226 727 basechar 0
AnchorPoint: "Anchor-2" 226 0 basechar 0
LayerCount: 2
Fore
SplineSet
151 0 m 1
 75 0 l 1
 75 727 l 1
 420 727 l 1
 420 657 l 1
 151 657 l 1
 151 406 l 1
 399 406 l 1
 399 336 l 1
 151 336 l 1
 151 0 l 1
EndSplineSet
EndChar

StartChar: G
Encoding: 71 71 32
Width: 539
VWidth: 1200
GlyphClass: 2
Flags: MW
HStem: -10 67<275 275> 306 60<267 479 267 403> 670 67<216.5 313>
VStem: 60 76<266 461 461 463> 403 76<114 306 306 306>
AnchorPoint: "Anchor-4" 266 727 basechar 0
AnchorPoint: "Anchor-2" 255 0 basechar 0
LayerCount: 2
Fore
SplineSet
267 306 m 1
 267 366 l 1
 479 366 l 1
 479 91 l 1
 435 31 384 -10 275 -10 c 0
 122 -10 60 75 60 266 c 2
 60 461 l 2
 60 657 119 737 265 737 c 0
 406 737 474 668 479 521 c 1
 403 521 l 1
 399 628 361 670 265 670 c 0
 168 670 136 615 136 463 c 2
 136 264 l 2
 136 110 172 58 275 57 c 0
 355 56 393 91 403 114 c 1
 403 306 l 1
 267 306 l 1
EndSplineSet
EndChar

StartChar: Gbreve
Encoding: 286 286 33
Width: 539
VWidth: 1220
GlyphClass: 2
Flags: MW
HStem: -10 67<275 275> 306 60<267 479 267 403> 670 67<216.5 313> 808 52<251 281 251 306.5>
VStem: 60 76<266 461 461 463> 151 70<926 926> 312 68<926 926> 403 76<114 306 306 306>
AnchorPoint: "Anchor-4" 266 926 basechar 0
AnchorPoint: "Anchor-2" 255 0 basechar 0
LayerCount: 2
Fore
SplineSet
312 926 m 1
 380 926 l 1
 374 830 347 808 266 808 c 0
 186 808 158 832 151 926 c 1
 221 926 l 1xff
 225 874 237 860 265 860 c 0
 297 860 308 871 312 926 c 1
267 306 m 1
 267 366 l 1
 479 366 l 1
 479 91 l 1
 435 31 384 -10 275 -10 c 0
 122 -10 60 75 60 266 c 2
 60 461 l 2
 60 657 119 737 265 737 c 0
 406 737 474 668 479 521 c 1
 403 521 l 1
 399 628 361 670 265 670 c 0
 168 670 136 615 136 463 c 2
 136 264 l 2
 136 110 172 58 275 57 c 0
 355 56 393 91 403 114 c 1
 403 306 l 1
 267 306 l 1
EndSplineSet
EndChar

StartChar: uni0122
Encoding: 290 290 34
Width: 539
VWidth: 1220
GlyphClass: 2
Flags: MW
HStem: -231 166<215 231 178 295> -10 67<275 275> 306 60<267 479 267 403> 670 67<216.5 313>
VStem: 60 76<266 461 461 463> 403 76<114 306 306 306>
AnchorPoint: "Anchor-4" 266 727 basechar 0
AnchorPoint: "Anchor-2" 237 -231 basechar 0
LayerCount: 2
Fore
SplineSet
267 306 m 1
 267 366 l 1
 479 366 l 1
 479 91 l 1
 435 31 384 -10 275 -10 c 0
 122 -10 60 75 60 266 c 2
 60 461 l 2
 60 657 119 737 265 737 c 0
 406 737 474 668 479 521 c 1
 403 521 l 1
 399 628 361 670 265 670 c 0
 168 670 136 615 136 463 c 2
 136 264 l 2
 136 110 172 58 275 57 c 0
 355 56 393 91 403 114 c 1
 403 306 l 1
 267 306 l 1
231 -231 m 1
 178 -231 l 1
 215 -65 l 1
 295 -65 l 1
 231 -231 l 1
EndSplineSet
EndChar

StartChar: Gdotaccent
Encoding: 288 288 35
Width: 539
VWidth: 1220
GlyphClass: 2
Flags: MW
HStem: -10 67<275 275> 306 60<267 479 267 403> 670 67<216.5 313> 813 83<226 306 226 306>
VStem: 60 76<266 461 461 463> 226 80<813 896> 403 76<114 306 306 306>
AnchorPoint: "Anchor-4" 266 896 basechar 0
AnchorPoint: "Anchor-2" 255 0 basechar 0
LayerCount: 2
Fore
SplineSet
306 813 m 1
 226 813 l 1
 226 896 l 1
 306 896 l 1
 306 813 l 1
267 306 m 1
 267 366 l 1
 479 366 l 1
 479 91 l 1
 435 31 384 -10 275 -10 c 0
 122 -10 60 75 60 266 c 2
 60 461 l 2
 60 657 119 737 265 737 c 0
 406 737 474 668 479 521 c 1
 403 521 l 1
 399 628 361 670 265 670 c 0
 168 670 136 615 136 463 c 2
 136 264 l 2
 136 110 172 58 275 57 c 0
 355 56 393 91 403 114 c 1
 403 306 l 1
 267 306 l 1
EndSplineSet
EndChar

StartChar: H
Encoding: 72 72 36
Width: 552
VWidth: 1200
GlyphClass: 2
Flags: MW
HStem: 0 21G<75 151 75 75 401 401 401 477> 336 70<151 401 151 401> 707 20G<75 151 151 151 401 477 477 477>
VStem: 75 76<0 336 406 727> 401 76<0 336 336 336 406 727 0 727>
AnchorPoint: "Anchor-4" 277 727 basechar 0
AnchorPoint: "Anchor-2" 277 0 basechar 0
LayerCount: 2
Fore
SplineSet
151 0 m 1
 75 0 l 1
 75 727 l 1
 151 727 l 1
 151 406 l 1
 401 406 l 1
 401 727 l 1
 477 727 l 1
 477 0 l 1
 401 0 l 1
 401 336 l 1
 151 336 l 1
 151 0 l 1
EndSplineSet
EndChar

StartChar: Hbar
Encoding: 294 294 37
Width: 552
VWidth: 1220
GlyphClass: 2
Flags: MW
HStem: 0 21G<75 151 75 75 401 477 401 401> 336 70<151 401 151 401> 546 56<10 75 10 75 151 401 477 542> 546 181<10 151 10 151 75 151 75 401>
VStem: 75 76<0 336 406 546 602 727> 401 76<0 336 336 336 406 546 0 546 602 727>
AnchorPoint: "Anchor-4" 277 727 basechar 0
AnchorPoint: "Anchor-2" 277 0 basechar 0
LayerCount: 2
Fore
SplineSet
477 602 m 1xec
 542 602 l 1
 542 546 l 1
 477 546 l 1
 477 0 l 1
 401 0 l 1
 401 336 l 1
 151 336 l 1
 151 0 l 1
 75 0 l 1
 75 546 l 1
 10 546 l 1
 10 602 l 1
 75 602 l 1xec
 75 727 l 1
 151 727 l 1xdc
 151 602 l 1
 401 602 l 1xec
 401 727 l 1
 477 727 l 1xdc
 477 602 l 1xec
151 406 m 1
 401 406 l 1
 401 546 l 1
 151 546 l 1
 151 406 l 1
EndSplineSet
EndChar

StartChar: I
Encoding: 73 73 38
Width: 226
VWidth: 1200
GlyphClass: 2
Flags: MW
HStem: 0 21G<75 151 75 75> 707 20G<75 151 151 151>
VStem: 75 76<0 727 0 727>
AnchorPoint: "Anchor-4" 113 727 basechar 0
AnchorPoint: "Anchor-3" 151 0 basechar 0
AnchorPoint: "Anchor-2" 113 0 basechar 0
LayerCount: 2
Fore
SplineSet
75 727 m 1
 151 727 l 1
 151 0 l 1
 75 0 l 1
 75 727 l 1
EndSplineSet
EndChar

StartChar: Iacute
Encoding: 205 205 39
Width: 226
VWidth: 1220
GlyphClass: 2
Flags: MW
HStem: 0 21G<75 151 75 75> 707 20G<75 151 151 151> 808 141<79 267 79 267>
VStem: 75 76<0 727>
AnchorPoint: "Anchor-4" 113 949 basechar 0
AnchorPoint: "Anchor-3" 151 0 basechar 0
AnchorPoint: "Anchor-2" 113 0 basechar 0
LayerCount: 2
Fore
SplineSet
146 808 m 1
 79 808 l 1
 168 949 l 1
 267 949 l 1
 146 808 l 1
151 0 m 1
 75 0 l 1
 75 727 l 1
 151 727 l 1
 151 0 l 1
EndSplineSet
EndChar

StartChar: Icircumflex
Encoding: 206 206 40
Width: 226
VWidth: 1220
GlyphClass: 2
Flags: MW
HStem: 0 21G<75 151 75 75> 707 20G<75 151 151 151> 808 141<-18 154 -18 154 72 169 72 244> 902 47<113 113>
VStem: 75 76<0 727>
AnchorPoint: "Anchor-4" 113 949 basechar 0
AnchorPoint: "Anchor-3" 151 0 basechar 0
AnchorPoint: "Anchor-2" 113 0 basechar 0
LayerCount: 2
Fore
SplineSet
57 808 m 1xe8
 -18 808 l 1
 72 949 l 1
 154 949 l 1
 244 808 l 1
 169 808 l 1xe8
 113 902 l 1xd8
 57 808 l 1xe8
151 0 m 1
 75 0 l 1
 75 727 l 1
 151 727 l 1
 151 0 l 1
EndSplineSet
EndChar

StartChar: Idieresis
Encoding: 207 207 41
Width: 226
VWidth: 1220
GlyphClass: 2
Flags: MW
HStem: 0 21G<75 151 75 75> 707 20G<75 151 151 151> 833 83
VStem: -17 80<813 896> 75 76<0 727 0 727> 152 80 163 80<813 896>
AnchorPoint: "Anchor-4" 113 896 basechar 0
AnchorPoint: "Anchor-3" 151 0 basechar 0
AnchorPoint: "Anchor-2" 113 0 basechar 0
LayerCount: 2
Fore
SplineSet
63 813 m 1xfc
 -17 813 l 1
 -17 896 l 1
 63 896 l 1
 63 813 l 1xfc
243 813 m 1xfa
 163 813 l 1
 163 896 l 1
 243 896 l 1
 243 813 l 1xfa
151 727 m 1xfc
 151 0 l 1
 75 0 l 1
 75 727 l 1
 151 727 l 1xfc
EndSplineSet
EndChar

StartChar: Idotaccent
Encoding: 304 304 42
Width: 226
VWidth: 1220
GlyphClass: 2
Flags: MW
HStem: 0 21G<75 151 75 75> 707 20G<75 151 151 151> 813 83<73 153 73 153>
VStem: 73 80<813 896> 75 76<0 727 0 727>
AnchorPoint: "Anchor-4" 113 896 basechar 0
AnchorPoint: "Anchor-3" 151 0 basechar 0
AnchorPoint: "Anchor-2" 113 0 basechar 0
LayerCount: 2
Fore
SplineSet
153 813 m 1xf0
 73 813 l 1
 73 896 l 1
 153 896 l 1
 153 813 l 1xf0
151 727 m 1xe8
 151 0 l 1
 75 0 l 1
 75 727 l 1
 151 727 l 1xe8
EndSplineSet
EndChar

StartChar: Igrave
Encoding: 204 204 43
Width: 226
VWidth: 1220
GlyphClass: 2
Flags: MW
HStem: 0 21G<75 151 75 75> 707 20G<75 151 151 151> 808 141<-41 147 -41 80>
VStem: 75 76<0 727 0 727>
AnchorPoint: "Anchor-4" 113 949 basechar 0
AnchorPoint: "Anchor-3" 151 0 basechar 0
AnchorPoint: "Anchor-2" 113 0 basechar 0
LayerCount: 2
Fore
SplineSet
147 808 m 1
 80 808 l 1
 -41 949 l 1
 58 949 l 1
 147 808 l 1
151 727 m 1
 151 0 l 1
 75 0 l 1
 75 727 l 1
 151 727 l 1
EndSplineSet
EndChar

StartChar: Imacron
Encoding: 298 298 44
Width: 226
VWidth: 1220
GlyphClass: 2
Flags: MW
HStem: 0 21G<75 151 75 75> 707 20G<75 151 151 151> 830 61
VStem: 10 207 75 76<0 727 0 727>
AnchorPoint: "Anchor-4" 113 869 basechar 0
AnchorPoint: "Anchor-3" 151 0 basechar 0
AnchorPoint: "Anchor-2" 113 0 basechar 0
LayerCount: 2
Fore
SplineSet
217 808 m 1xf0
 9 808 l 1
 9 869 l 1
 217 869 l 1
 217 808 l 1xf0
75 727 m 1xe8
 151 727 l 1
 151 0 l 1
 75 0 l 1
 75 727 l 1xe8
EndSplineSet
EndChar

StartChar: Iogonek
Encoding: 302 302 45
Width: 226
VWidth: 1220
GlyphClass: 2
Flags: MW
HStem: -188 59<143.5 150.5> 0 21G<75 86 75 75 151 151> 707 20G<75 151 151 151>
VStem: 33 63<-96.5 -75> 75 76<0 727 0 727>
AnchorPoint: "Anchor-4" 113 727 basechar 0
AnchorPoint: "Anchor-3" 151 0 basechar 0
AnchorPoint: "Anchor-2" 113 0 basechar 0
LayerCount: 2
Fore
SplineSet
159 -129 m 0xf0
 168 -129 177 -128 185 -125 c 1
 185 -185 l 1
 171 -187 157 -188 144 -188 c 0
 79 -188 33 -161 33 -94 c 0xf0
 33 -56 48 -30 86 0 c 1
 75 0 l 1
 75 727 l 1
 151 727 l 1
 151 0 l 1xe8
 114 -28 96 -54 96 -80 c 0
 96 -113 128 -129 159 -129 c 0xf0
EndSplineSet
EndChar

StartChar: J
Encoding: 74 74 46
Width: 464
VWidth: 1200
GlyphClass: 2
Flags: MW
HStem: -10 67<166 253 166 275> 707 20G<313 389 389 389>
VStem: 30 80<216 223 162 223> 313 76<214 727>
AnchorPoint: "Anchor-4" 231 727 basechar 0
AnchorPoint: "Anchor-2" 231 0 basechar 0
LayerCount: 2
Fore
SplineSet
313 727 m 1
 389 727 l 1
 389 206 l 2
 389 54 345 -10 205 -10 c 0
 65 -10 30 75 30 216 c 2
 30 223 l 1
 110 223 l 1
 110 214 l 2
 110 110 127 57 205 57 c 0
 301 57 313 110 313 214 c 2
 313 727 l 1
EndSplineSet
EndChar

StartChar: K
Encoding: 75 75 47
Width: 518
VWidth: 1200
GlyphClass: 2
Flags: MW
HStem: 0 21G<75 151 75 75 415 415 415 513> 707 20G<75 151 151 151 409 498 498 498>
VStem: 75 76<0 727>
AnchorPoint: "Anchor-4" 257 727 basechar 0
AnchorPoint: "Anchor-2" 257 0 basechar 0
LayerCount: 2
Fore
SplineSet
151 0 m 1
 75 0 l 1
 75 727 l 1
 151 727 l 1
 151 0 l 1
513 0 m 1
 415 0 l 1
 160 399 l 1
 409 727 l 1
 498 727 l 1
 253 399 l 1
 513 0 l 1
EndSplineSet
EndChar

StartChar: uni0136
Encoding: 310 310 48
Width: 518
VWidth: 1220
GlyphClass: 2
Flags: MW
HStem: -231 166<217 233 180 297> 0 21G<75 151 75 75 415 415 415 513> 707 20G<75 151 151 151 409 498 498 498>
VStem: 75 76<0 727>
AnchorPoint: "Anchor-4" 257 727 basechar 0
AnchorPoint: "Anchor-2" 239 -231 basechar 0
LayerCount: 2
Fore
SplineSet
151 0 m 1
 75 0 l 1
 75 727 l 1
 151 727 l 1
 151 0 l 1
513 0 m 1
 415 0 l 1
 160 399 l 1
 409 727 l 1
 498 727 l 1
 253 399 l 1
 513 0 l 1
233 -231 m 1
 180 -231 l 1
 217 -65 l 1
 297 -65 l 1
 233 -231 l 1
EndSplineSet
EndChar

StartChar: L
Encoding: 76 76 49
Width: 443
VWidth: 1200
GlyphClass: 2
Flags: MW
HStem: 0 70<151 413 151 413> 707 20G<75 151 151 151>
VStem: 75 76<70 727 70 727 70 727>
AnchorPoint: "Anchor-5" 273 505 basechar 0
AnchorPoint: "Anchor-4" 113 727 basechar 0
AnchorPoint: "Anchor-2" 244 0 basechar 0
LayerCount: 2
Fore
SplineSet
413 0 m 1
 75 0 l 1
 75 727 l 1
 151 727 l 1
 151 70 l 1
 413 70 l 1
 413 0 l 1
EndSplineSet
EndChar

StartChar: Lacute
Encoding: 313 313 50
Width: 443
VWidth: 1220
GlyphClass: 2
Flags: MW
HStem: 0 70<151 413 151 413> 707 20G<75 151 151 151> 808 141<79 267 79 267>
VStem: 75 76<70 727 70 727 70 727>
AnchorPoint: "Anchor-5" 273 505 basechar 0
AnchorPoint: "Anchor-4" 113 949 basechar 0
AnchorPoint: "Anchor-2" 244 0 basechar 0
LayerCount: 2
Fore
SplineSet
146 808 m 1
 79 808 l 1
 168 949 l 1
 267 949 l 1
 146 808 l 1
413 0 m 1
 75 0 l 1
 75 727 l 1
 151 727 l 1
 151 70 l 1
 413 70 l 1
 413 0 l 1
EndSplineSet
EndChar

StartChar: Lcaron
Encoding: 317 317 51
Width: 443
VWidth: 1220
GlyphClass: 2
Flags: MW
HStem: 0 70<151 413 151 413> 561 166<330 346 75 293>
VStem: 75 76<70 727 70 727 70 727>
AnchorPoint: "Anchor-5" 273 505 basechar 0
AnchorPoint: "Anchor-4" 113 727 basechar 0
AnchorPoint: "Anchor-2" 244 0 basechar 0
LayerCount: 2
Fore
SplineSet
413 0 m 1
 75 0 l 1
 75 727 l 1
 151 727 l 1
 151 70 l 1
 413 70 l 1
 413 0 l 1
346 561 m 1
 293 561 l 1
 330 727 l 1
 410 727 l 1
 346 561 l 1
EndSplineSet
EndChar

StartChar: uni013B
Encoding: 315 315 52
Width: 443
VWidth: 1220
GlyphClass: 2
Flags: MW
HStem: -231 166<204 220 167 284> 0 70<151 413 151 413> 707 20G<75 151 151 151>
VStem: 75 76<70 727 70 727 70 727>
AnchorPoint: "Anchor-5" 273 505 basechar 0
AnchorPoint: "Anchor-4" 113 727 basechar 0
AnchorPoint: "Anchor-2" 226 -231 basechar 0
LayerCount: 2
Fore
SplineSet
413 0 m 1
 75 0 l 1
 75 727 l 1
 151 727 l 1
 151 70 l 1
 413 70 l 1
 413 0 l 1
220 -231 m 1
 167 -231 l 1
 204 -65 l 1
 284 -65 l 1
 220 -231 l 1
EndSplineSet
EndChar

StartChar: Lslash
Encoding: 321 321 53
Width: 443
VWidth: 1220
GlyphClass: 2
Flags: MW
HStem: 0 70<151 413 151 413> 707 20G<75 151 151 151>
VStem: 75 76<70 298 298 298 70 403 403 727>
AnchorPoint: "Anchor-5" 273 505 basechar 0
AnchorPoint: "Anchor-4" 113 727 basechar 0
AnchorPoint: "Anchor-2" 244 0 basechar 0
LayerCount: 2
Fore
SplineSet
151 337 m 1
 151 70 l 1
 413 70 l 1
 413 0 l 1
 75 0 l 1
 75 298 l 1
 13 266 l 1
 13 332 l 1
 75 364 l 1
 75 727 l 1
 151 727 l 1
 151 403 l 1
 304 482 l 1
 304 416 l 1
 151 337 l 1
EndSplineSet
EndChar

StartChar: M
Encoding: 77 77 54
Width: 776
VWidth: 1200
GlyphClass: 2
Flags: MW
HStem: 0 21G<75 149 75 75 344 344 344 432 627 627 627 701> 0 127<344 388 388 388 388 432> 660 67<149 149 627 627>
VStem: 75 74<0 660> 627 74<0 660 660 660>
AnchorPoint: "Anchor-4" 388 727 basechar 0
AnchorPoint: "Anchor-2" 388 0 basechar 0
LayerCount: 2
Fore
SplineSet
149 0 m 1xb8
 75 0 l 1
 75 727 l 1
 211 727 l 1
 388 127 l 1x78
 566 727 l 1
 701 727 l 1
 701 0 l 1
 627 0 l 1
 627 660 l 1
 432 0 l 1
 344 0 l 1
 149 660 l 1
 149 0 l 1xb8
EndSplineSet
EndChar

StartChar: N
Encoding: 78 78 55
Width: 630
VWidth: 1200
GlyphClass: 2
Flags: MW
HStem: 0 21G<75 151 75 75 436 436 436 555> 0 85<436 479 479 479 479 555> 642 85<151 151> 707 20G<75 194 194 194 479 555 555 555>
VStem: 75 76<0 642 0 727> 479 76<85 727 0 727>
AnchorPoint: "Anchor-4" 326 727 basechar 0
AnchorPoint: "Anchor-2" 304 0 basechar 0
LayerCount: 2
Fore
SplineSet
151 642 m 1xac
 151 0 l 1
 75 0 l 1
 75 727 l 1
 194 727 l 1
 479 85 l 1x5c
 479 727 l 1
 555 727 l 1
 555 0 l 1
 436 0 l 1
 151 642 l 1xac
EndSplineSet
EndChar

StartChar: Nacute
Encoding: 323 323 56
Width: 630
VWidth: 1220
GlyphClass: 2
Flags: MW
HStem: 0 21G<75 151 75 75 436 436 436 555> 0 85<436 479 479 479 479 555> 642 85<151 151> 707 20G<75 194 194 194 479 555 555 555> 808 141<292 480 292 480>
VStem: 75 76<0 642> 479 76<85 727 0 727>
AnchorPoint: "Anchor-4" 326 949 basechar 0
AnchorPoint: "Anchor-2" 304 0 basechar 0
LayerCount: 2
Fore
SplineSet
359 808 m 1x9e
 292 808 l 1
 381 949 l 1
 480 949 l 1
 359 808 l 1x9e
151 0 m 1
 75 0 l 1
 75 727 l 1
 194 727 l 1
 479 85 l 1x5e
 479 727 l 1
 555 727 l 1
 555 0 l 1
 436 0 l 1
 151 642 l 1xae
 151 0 l 1
EndSplineSet
EndChar

StartChar: Ncaron
Encoding: 327 327 57
Width: 630
VWidth: 1220
GlyphClass: 2
Flags: MW
HStem: 0 85<436 479 479 479 479 555> 642 85<151 151> 707 20G<75 194 194 194 479 555 555 555> 808 141<195 285 195 367>
VStem: 75 76<0 642 0 727> 180 292 479 76<85 727 0 727>
AnchorPoint: "Anchor-4" 326 949 basechar 0
AnchorPoint: "Anchor-2" 304 0 basechar 0
LayerCount: 2
Fore
SplineSet
285 808 m 1xbe
 195 949 l 1
 270 949 l 1
 326 855 l 1
 382 949 l 1
 457 949 l 1
 367 808 l 1
 285 808 l 1xbe
151 642 m 1xde
 151 0 l 1
 75 0 l 1
 75 727 l 1
 194 727 l 1
 479 85 l 1
 479 727 l 1
 555 727 l 1xbe
 555 0 l 1
 436 0 l 1
 151 642 l 1xde
EndSplineSet
EndChar

StartChar: uni0145
Encoding: 325 325 58
Width: 630
VWidth: 1220
GlyphClass: 2
Flags: MW
HStem: -231 166<264 280 227 344> 0 21G<75 151 75 75 436 436 436 555> 0 85<436 479 479 479 479 555> 642 85<151 151> 707 20G<75 194 194 194 479 555 555 555>
VStem: 75 76<0 642 0 727> 479 76<85 727 0 727>
AnchorPoint: "Anchor-4" 326 727 basechar 0
AnchorPoint: "Anchor-2" 286 -231 basechar 0
LayerCount: 2
Fore
SplineSet
151 642 m 1xd6
 151 0 l 1
 75 0 l 1
 75 727 l 1
 194 727 l 1
 479 85 l 1xae
 479 727 l 1
 555 727 l 1
 555 0 l 1
 436 0 l 1
 151 642 l 1xd6
280 -231 m 1
 227 -231 l 1
 264 -65 l 1
 344 -65 l 1
 280 -231 l 1
EndSplineSet
EndChar

StartChar: Eng
Encoding: 330 330 59
Width: 630
VWidth: 1220
GlyphClass: 2
Flags: MW
HStem: -190 64<416 443 416 444> 0 21G<75 151 75 75 436 479 436 436> 642 85<151 151> 707 20G<75 194 194 194 479 555 555 555>
VStem: 75 76<0 642 0 727> 479 76<-69 -54 -54 0 0 0 85 727>
AnchorPoint: "Anchor-4" 326 727 basechar 0
AnchorPoint: "Anchor-2" 304 0 basechar 0
LayerCount: 2
Fore
SplineSet
479 727 m 1xdc
 555 727 l 1
 555 -54 l 2
 555 -167 531 -190 443 -190 c 2
 416 -190 l 1
 416 -126 l 1
 472 -126 479 -124 479 -69 c 2
 479 0 l 1
 436 0 l 1
 151 642 l 1xec
 151 0 l 1
 75 0 l 1
 75 727 l 1
 194 727 l 1
 479 85 l 1
 479 727 l 1xdc
EndSplineSet
EndChar

StartChar: Ntilde
Encoding: 209 209 60
Width: 630
VWidth: 1220
GlyphClass: 2
Flags: MW
HStem: 0 21G<75 151 75 75 436 436 436 555> 0 85<436 479 479 479 479 555> 642 85<151 151> 707 20G<75 194 194 194 479 555 555 555> 815 64<360 391.5> 853 63<256.5 287>
VStem: 75 76<0 642 0 727> 424 52<924 924> 479 76<85 727 0 727>
AnchorPoint: "Anchor-4" 326 924 basechar 0
AnchorPoint: "Anchor-2" 304 0 basechar 0
LayerCount: 2
Fore
SplineSet
222 808 m 1x9680
 176 808 l 1
 183 877 216 916 275 916 c 0xa680
 329 916 339 879 381 879 c 0
 408 879 421 894 424 924 c 1
 476 924 l 1
 473 895 462 867 445 848 c 0
 427 827 405 815 378 815 c 0x9b
 332 815 305 853 269 853 c 0
 244 853 225 833 222 808 c 1x9680
151 642 m 1
 151 0 l 1
 75 0 l 1
 75 727 l 1
 194 727 l 1
 479 85 l 1x5680
 479 727 l 1
 555 727 l 1
 555 0 l 1
 436 0 l 1
 151 642 l 1
EndSplineSet
EndChar

StartChar: O
Encoding: 79 79 61
Width: 539
VWidth: 1200
GlyphClass: 2
Flags: MW
HStem: -10 67<216 313 216 335> 670 67<216.5 315>
VStem: 60 76<265 461> 403 76<265 461>
AnchorPoint: "Anchor-5" 521 727 basechar 0
AnchorPoint: "Anchor-4" 265 727 basechar 0
AnchorPoint: "Anchor-3" 487 10 basechar 0
AnchorPoint: "Anchor-2" 265 0 basechar 0
LayerCount: 2
Fore
SplineSet
265 -10 m 0
 125 -10 60 75 60 265 c 2
 60 461 l 2
 60 657 119 737 265 737 c 0
 412 737 479 659 479 461 c 2
 479 265 l 2
 479 74 405 -10 265 -10 c 0
265 57 m 0
 361 57 403 110 403 265 c 2
 403 461 l 2
 403 620 365 670 265 670 c 0
 168 670 136 615 136 461 c 2
 136 265 l 2
 136 110 167 57 265 57 c 0
EndSplineSet
EndChar

StartChar: Oacute
Encoding: 211 211 62
Width: 539
VWidth: 1220
GlyphClass: 2
Flags: MW
HStem: -10 67<216 313 216 335> 670 67<216.5 315> 808 141<231 419 231 419>
VStem: 60 76<265 461> 403 76<265 461>
AnchorPoint: "Anchor-5" 521 727 basechar 0
AnchorPoint: "Anchor-4" 265 949 basechar 0
AnchorPoint: "Anchor-3" 487 10 basechar 0
AnchorPoint: "Anchor-2" 265 0 basechar 0
LayerCount: 2
Fore
SplineSet
298 808 m 1
 231 808 l 1
 320 949 l 1
 419 949 l 1
 298 808 l 1
265 -10 m 0
 125 -10 60 75 60 265 c 2
 60 461 l 2
 60 657 119 737 265 737 c 0
 412 737 479 659 479 461 c 2
 479 265 l 2
 479 74 405 -10 265 -10 c 0
265 57 m 0
 361 57 403 110 403 265 c 2
 403 461 l 2
 403 620 365 670 265 670 c 0
 168 670 136 615 136 461 c 2
 136 265 l 2
 136 110 167 57 265 57 c 0
EndSplineSet
EndChar

StartChar: Ocircumflex
Encoding: 212 212 63
Width: 539
VWidth: 1220
GlyphClass: 2
Flags: MW
HStem: -10 67<216 313 216 335> 670 67<216.5 315> 808 141<134 306 134 306 224 321 224 396> 902 47<265 265>
VStem: 60 76<265 461> 403 76<265 461>
AnchorPoint: "Anchor-5" 521 727 basechar 0
AnchorPoint: "Anchor-4" 265 949 basechar 0
AnchorPoint: "Anchor-3" 487 10 basechar 0
AnchorPoint: "Anchor-2" 265 0 basechar 0
LayerCount: 2
Fore
SplineSet
209 808 m 1xec
 134 808 l 1
 224 949 l 1
 306 949 l 1
 396 808 l 1
 321 808 l 1xec
 265 902 l 1xdc
 209 808 l 1xec
265 -10 m 0
 125 -10 60 75 60 265 c 2
 60 461 l 2
 60 657 119 737 265 737 c 0
 412 737 479 659 479 461 c 2
 479 265 l 2
 479 74 405 -10 265 -10 c 0
265 57 m 0
 361 57 403 110 403 265 c 2
 403 461 l 2
 403 620 365 670 265 670 c 0
 168 670 136 615 136 461 c 2
 136 265 l 2
 136 110 167 57 265 57 c 0
EndSplineSet
EndChar

StartChar: Odieresis
Encoding: 214 214 64
Width: 539
VWidth: 1220
GlyphClass: 2
Flags: MW
HStem: -10 67<216 313 216 335> 670 67<216.5 315> 833 83
VStem: 60 76<265 461> 135 80<813 896> 315 80<813 896> 403 76<265 461>
AnchorPoint: "Anchor-5" 521 727 basechar 0
AnchorPoint: "Anchor-4" 265 896 basechar 0
AnchorPoint: "Anchor-3" 487 10 basechar 0
AnchorPoint: "Anchor-2" 265 0 basechar 0
LayerCount: 2
Fore
SplineSet
215 813 m 1xee
 135 813 l 1
 135 896 l 1xf6
 215 896 l 1
 215 813 l 1xee
395 813 m 1
 315 813 l 1
 315 896 l 1
 395 896 l 1
 395 813 l 1
265 -10 m 0
 125 -10 60 75 60 265 c 2
 60 461 l 2
 60 657 119 737 265 737 c 0
 412 737 479 659 479 461 c 2
 479 265 l 2
 479 74 405 -10 265 -10 c 0
265 57 m 0
 361 57 403 110 403 265 c 2
 403 461 l 2
 403 620 365 670 265 670 c 0
 168 670 136 615 136 461 c 2
 136 265 l 2
 136 110 167 57 265 57 c 0
EndSplineSet
EndChar

StartChar: Ograve
Encoding: 210 210 65
Width: 539
VWidth: 1220
GlyphClass: 2
Flags: MW
HStem: -10 67<216 313 216 335> 670 67<216.5 315> 808 141<111 299 111 232>
VStem: 60 76<265 461> 403 76<265 461>
AnchorPoint: "Anchor-5" 521 727 basechar 0
AnchorPoint: "Anchor-4" 265 949 basechar 0
AnchorPoint: "Anchor-3" 487 10 basechar 0
AnchorPoint: "Anchor-2" 265 0 basechar 0
LayerCount: 2
Fore
SplineSet
299 808 m 1
 232 808 l 1
 111 949 l 1
 210 949 l 1
 299 808 l 1
265 -10 m 0
 125 -10 60 75 60 265 c 2
 60 461 l 2
 60 657 119 737 265 737 c 0
 412 737 479 659 479 461 c 2
 479 265 l 2
 479 74 405 -10 265 -10 c 0
265 57 m 0
 361 57 403 110 403 265 c 2
 403 461 l 2
 403 620 365 670 265 670 c 0
 168 670 136 615 136 461 c 2
 136 265 l 2
 136 110 167 57 265 57 c 0
EndSplineSet
EndChar

StartChar: Ohungarumlaut
Encoding: 336 336 66
Width: 539
VWidth: 1220
GlyphClass: 2
Flags: MW
HStem: -10 67<216 313 216 335> 670 67<216.5 315> 808 141<146 334 146 334 293 293 293 334 235 360>
VStem: 60 76<265 461> 403 76<265 461>
AnchorPoint: "Anchor-5" 521 727 basechar 0
AnchorPoint: "Anchor-4" 299 949 basechar 0
AnchorPoint: "Anchor-3" 487 10 basechar 0
AnchorPoint: "Anchor-2" 265 0 basechar 0
LayerCount: 2
Fore
SplineSet
334 949 m 1
 213 808 l 1
 146 808 l 1
 235 949 l 1
 334 949 l 1
481 949 m 1
 360 808 l 1
 293 808 l 1
 382 949 l 1
 481 949 l 1
265 -10 m 0
 125 -10 60 75 60 265 c 2
 60 461 l 2
 60 657 119 737 265 737 c 0
 412 737 479 659 479 461 c 2
 479 265 l 2
 479 74 405 -10 265 -10 c 0
265 57 m 0
 361 57 403 110 403 265 c 2
 403 461 l 2
 403 620 365 670 265 670 c 0
 168 670 136 615 136 461 c 2
 136 265 l 2
 136 110 167 57 265 57 c 0
EndSplineSet
EndChar

StartChar: Omacron
Encoding: 332 332 67
Width: 539
VWidth: 1220
GlyphClass: 2
Flags: MW
HStem: -10 67<216 313 216 335> 670 67<216.5 315> 830 61
VStem: 60 76<265 461> 162 207 403 76<265 461>
AnchorPoint: "Anchor-5" 521 727 basechar 0
AnchorPoint: "Anchor-4" 265 869 basechar 0
AnchorPoint: "Anchor-3" 487 10 basechar 0
AnchorPoint: "Anchor-2" 265 0 basechar 0
LayerCount: 2
Fore
SplineSet
369 808 m 1
 161 808 l 1
 161 869 l 1
 369 869 l 1
 369 808 l 1
265 -10 m 0
 125 -10 60 75 60 265 c 2
 60 461 l 2
 60 657 119 737 265 737 c 0
 412 737 479 659 479 461 c 2
 479 265 l 2
 479 74 405 -10 265 -10 c 0
265 57 m 0
 361 57 403 110 403 265 c 2
 403 461 l 2
 403 620 365 670 265 670 c 0
 168 670 136 615 136 461 c 2
 136 265 l 2
 136 110 167 57 265 57 c 0
EndSplineSet
EndChar

StartChar: Oslash
Encoding: 216 216 68
Width: 539
VWidth: 1220
GlyphClass: 2
Flags: MW
HStem: -10 67<250.5 313 250.5 335> 670 67<216.5 282>
VStem: 60 76<265 461> 403 76<265 461>
AnchorPoint: "Anchor-5" 521 727 basechar 0
AnchorPoint: "Anchor-4" 265 727 basechar 0
AnchorPoint: "Anchor-3" 487 10 basechar 0
AnchorPoint: "Anchor-2" 265 0 basechar 0
LayerCount: 2
Fore
SplineSet
439 777 m 1
 410 692 l 1
 457 650 479 575 479 461 c 2
 479 265 l 2
 479 74 405 -10 265 -10 c 0
 229 -10 199 -5 173 7 c 1
 153 -50 l 1
 104 -50 l 1
 132 32 l 1
 83 75 60 151 60 265 c 2
 60 461 l 2
 60 657 119 737 265 737 c 0
 306 737 341 731 370 718 c 1
 390 777 l 1
 439 777 l 1
136 461 m 2
 136 265 l 2
 136 193 143 143 159 110 c 1
 346 650 l 1
 326 664 299 670 265 670 c 0
 168 670 136 615 136 461 c 2
403 265 m 2
 403 461 l 2
 403 528 396 576 381 609 c 1
 195 72 l 1
 213 62 236 57 265 57 c 0
 361 57 403 110 403 265 c 2
EndSplineSet
EndChar

StartChar: Otilde
Encoding: 213 213 69
Width: 539
VWidth: 1220
GlyphClass: 2
Flags: MW
HStem: -10 67<216 313 216 335> 670 67<216.5 315> 815 64<299 330.5> 853 63<195.5 226>
VStem: 60 76<265 461> 363 52<924 924> 403 76<265 461>
AnchorPoint: "Anchor-5" 521 727 basechar 0
AnchorPoint: "Anchor-4" 265 924 basechar 0
AnchorPoint: "Anchor-3" 487 10 basechar 0
AnchorPoint: "Anchor-2" 265 0 basechar 0
LayerCount: 2
Fore
SplineSet
161 808 m 1xda
 115 808 l 1
 122 877 155 916 214 916 c 0xda
 268 916 278 879 320 879 c 0
 347 879 360 894 363 924 c 1
 415 924 l 1
 412 895 401 867 384 848 c 0
 366 827 344 815 317 815 c 0xec
 271 815 244 853 208 853 c 0
 183 853 164 833 161 808 c 1xda
265 -10 m 0
 125 -10 60 75 60 265 c 2
 60 461 l 2
 60 657 119 737 265 737 c 0
 412 737 479 659 479 461 c 2
 479 265 l 2
 479 74 405 -10 265 -10 c 0
265 57 m 0
 361 57 403 110 403 265 c 2
 403 461 l 2
 403 620 365 670 265 670 c 0
 168 670 136 615 136 461 c 2
 136 265 l 2
 136 110 167 57 265 57 c 0
EndSplineSet
EndChar

StartChar: OE
Encoding: 338 338 70
Width: 808
VWidth: 1220
GlyphClass: 1
Flags: MW
HStem: -10 67<216 292.5> 0 70<479 763 479 763> 336 70<479 736 479 736> 657 70<479 760 479 479> 670 67<216.5 293.5 187 315>
VStem: 60 76<246 480 480 482> 403 76<0 336 54 336 214 336 406 512 512 566>
LayerCount: 2
Fore
SplineSet
255 -10 m 0xb6
 125 -10 60 86 60 246 c 2
 60 480 l 2
 60 646 119 737 255 737 c 0
 332 737 377 717 403 680 c 1x6e
 403 727 l 1
 760 727 l 1
 760 657 l 1
 479 657 l 1
 479 406 l 1
 736 406 l 1
 736 336 l 1
 479 336 l 1
 479 70 l 1
 763 70 l 1
 763 0 l 1
 403 0 l 1x76
 403 54 l 1
 376 12 330 -10 255 -10 c 0xb6
136 482 m 2
 136 244 l 2
 136 120 167 57 265 57 c 0
 361 57 403 110 403 214 c 2
 403 512 l 2
 403 620 365 670 265 670 c 0xae
 168 670 136 605 136 482 c 2
EndSplineSet
EndChar

StartChar: P
Encoding: 80 80 71
Width: 488
VWidth: 1200
GlyphClass: 2
Flags: MW
HStem: 0 21G<75 151 75 75> 323 71<151 244 244 266 151 244> 656 71<151 151 151 244>
VStem: 75 76<0 323 394 656> 382 76<476 569>
AnchorPoint: "Anchor-4" 242 727 basechar 0
AnchorPoint: "Anchor-2" 242 0 basechar 0
LayerCount: 2
Fore
SplineSet
151 0 m 1
 75 0 l 1
 75 727 l 1
 267 727 l 2
 393 727 458 659 458 523 c 0
 458 389 395 323 266 323 c 2
 151 323 l 1
 151 0 l 1
151 656 m 1
 151 394 l 1
 244 394 l 2
 341 394 382 430 382 522 c 0
 382 616 340 656 244 656 c 2
 151 656 l 1
EndSplineSet
EndChar

StartChar: Thorn
Encoding: 222 222 72
Width: 488
VWidth: 1220
GlyphClass: 1
Flags: MW
HStem: 0 21G<75 151 75 75> 163 71<151 244 244 266 151 244> 496 71<151 244 151 267> 707 20G<75 151 151 151>
VStem: 75 76<0 163 234 496 567 727> 382 76<316 409>
LayerCount: 2
Fore
SplineSet
151 567 m 1
 267 567 l 2
 393 567 458 499 458 363 c 0
 458 229 395 163 266 163 c 2
 151 163 l 1
 151 0 l 1
 75 0 l 1
 75 727 l 1
 151 727 l 1
 151 567 l 1
151 234 m 1
 244 234 l 2
 341 234 382 270 382 362 c 0
 382 456 340 496 244 496 c 2
 151 496 l 1
 151 234 l 1
EndSplineSet
EndChar

StartChar: Q
Encoding: 81 81 73
Width: 558
VWidth: 1200
GlyphClass: 2
Flags: MW
HStem: 0 65<512 528 512 528> 0 67<216 265 265 313 216 528> 670 67<216.5 315>
VStem: 60 76<276 450 450 452> 403 76<274 276 276 450>
AnchorPoint: "Anchor-4" 271 727 basechar 0
AnchorPoint: "Anchor-2" 271 0 basechar 0
LayerCount: 2
Fore
SplineSet
401 48 m 1xb8
 447 59 496 65 528 65 c 1xb8
 528 0 l 1
 265 0 l 2x78
 125 0 60 85 60 276 c 2
 60 450 l 2
 60 657 119 737 265 737 c 0
 412 737 479 659 479 450 c 2
 479 276 l 2
 479 164 449 90 401 48 c 1xb8
136 452 m 2
 136 274 l 2
 136 120 167 67 265 67 c 0x78
 361 67 403 120 403 274 c 2
 403 452 l 2
 403 620 365 670 265 670 c 0
 168 670 136 615 136 452 c 2
EndSplineSet
EndChar

StartChar: R
Encoding: 82 82 74
Width: 536
VWidth: 1200
GlyphClass: 2
Flags: MW
HStem: 0 21G<75 151 75 75 389 389 389 476> 333 61<151 244 151 218> 656 71<151 244 151 151>
VStem: 75 76<0 333 0 394 394 656> 382 76<476 569>
AnchorPoint: "Anchor-4" 246 727 basechar 0
AnchorPoint: "Anchor-2" 273 0 basechar 0
LayerCount: 2
Fore
SplineSet
151 333 m 1
 151 0 l 1
 75 0 l 1
 75 727 l 1
 267 727 l 2
 393 727 458 659 458 523 c 0
 458 422 410 387 340 376 c 1
 430 356 444 323 450 129 c 0
 452 71 458 42 476 0 c 1
 389 0 l 1
 378 27 374 59 369 149 c 0
 364 225 360 255 353 281 c 0
 340 319 302 333 218 333 c 2
 151 333 l 1
244 656 m 2
 151 656 l 1
 151 394 l 1
 244 394 l 2
 341 394 382 430 382 522 c 0
 382 616 340 656 244 656 c 2
EndSplineSet
EndChar

StartChar: Racute
Encoding: 340 340 75
Width: 536
VWidth: 1220
GlyphClass: 2
Flags: MW
HStem: 0 21G<75 151 75 75 389 389 389 476> 333 61<151 218 151 244> 656 71<151 151 151 244> 808 141<212 400 212 400>
VStem: 75 76<0 333 394 656> 382 76<476 569>
AnchorPoint: "Anchor-4" 246 949 basechar 0
AnchorPoint: "Anchor-2" 273 0 basechar 0
LayerCount: 2
Fore
SplineSet
279 808 m 1
 212 808 l 1
 301 949 l 1
 400 949 l 1
 279 808 l 1
151 0 m 1
 75 0 l 1
 75 727 l 1
 267 727 l 2
 393 727 458 659 458 523 c 0
 458 422 410 387 340 376 c 1
 430 356 444 323 450 129 c 0
 452 71 458 42 476 0 c 1
 389 0 l 1
 378 27 374 59 369 149 c 0
 364 225 360 255 353 281 c 0
 340 319 302 333 218 333 c 2
 151 333 l 1
 151 0 l 1
151 656 m 1
 151 394 l 1
 244 394 l 2
 341 394 382 430 382 522 c 0
 382 616 340 656 244 656 c 2
 151 656 l 1
EndSplineSet
EndChar

StartChar: Rcaron
Encoding: 344 344 76
Width: 536
VWidth: 1220
GlyphClass: 2
Flags: MW
HStem: 0 21G<75 151 75 75 389 389 389 476> 333 61<151 244 151 218> 656 71<151 244 151 151> 808 141<115 287 115 205>
VStem: 75 76<0 333 0 394 394 656> 382 76<476 569>
AnchorPoint: "Anchor-4" 246 949 basechar 0
AnchorPoint: "Anchor-2" 273 0 basechar 0
LayerCount: 2
Fore
SplineSet
287 808 m 1
 205 808 l 1
 115 949 l 1
 190 949 l 1
 246 855 l 1
 302 949 l 1
 377 949 l 1
 287 808 l 1
151 333 m 1
 151 0 l 1
 75 0 l 1
 75 727 l 1
 267 727 l 2
 393 727 458 659 458 523 c 0
 458 422 410 387 340 376 c 1
 430 356 444 323 450 129 c 0
 452 71 458 42 476 0 c 1
 389 0 l 1
 378 27 374 59 369 149 c 0
 364 225 360 255 353 281 c 0
 340 319 302 333 218 333 c 2
 151 333 l 1
244 656 m 2
 151 656 l 1
 151 394 l 1
 244 394 l 2
 341 394 382 430 382 522 c 0
 382 616 340 656 244 656 c 2
EndSplineSet
EndChar

StartChar: uni0156
Encoding: 342 342 77
Width: 536
VWidth: 1220
GlyphClass: 2
Flags: MW
HStem: -231 166<233 249 196 313> 0 21G<75 151 75 75 389 389 389 476> 333 61<151 244 151 218> 656 71<151 244 151 151>
VStem: 75 76<0 333 0 394 394 656> 382 76<476 569>
AnchorPoint: "Anchor-4" 246 727 basechar 0
AnchorPoint: "Anchor-2" 255 -231 basechar 0
LayerCount: 2
Fore
SplineSet
151 333 m 1
 151 0 l 1
 75 0 l 1
 75 727 l 1
 267 727 l 2
 393 727 458 659 458 523 c 0
 458 422 410 387 340 376 c 1
 430 356 444 323 450 129 c 0
 452 71 458 42 476 0 c 1
 389 0 l 1
 378 27 374 59 369 149 c 0
 364 225 360 255 353 281 c 0
 340 319 302 333 218 333 c 2
 151 333 l 1
244 656 m 2
 151 656 l 1
 151 394 l 1
 244 394 l 2
 341 394 382 430 382 522 c 0
 382 616 340 656 244 656 c 2
249 -231 m 1
 196 -231 l 1
 233 -65 l 1
 313 -65 l 1
 249 -231 l 1
EndSplineSet
EndChar

StartChar: S
Encoding: 83 83 78
Width: 517
VWidth: 1200
GlyphClass: 2
Flags: MW
HStem: -10 67<212.5 301 212.5 327.5> 670 67<227 305>
VStem: 45 83<198 198> 66 76<475.5 593.5 475.5 610> 386 82<519 540 540 540 540 582.5> 396 76<148 274>
AnchorPoint: "Anchor-4" 263 727 basechar 0
AnchorPoint: "Anchor-2" 263 0 basechar 0
LayerCount: 2
Fore
SplineSet
261 -10 m 0xe4
 119 -10 46 57 45 198 c 1
 47 239 l 1
 128 239 l 1
 128 209 l 2xe4
 128 103 166 57 259 57 c 0
 343 57 396 107 396 189 c 0xd4
 396 359 66 328 66 551 c 0
 66 669 141 737 264 737 c 0
 396 737 474 672 468 540 c 2
 467 519 l 1
 386 519 l 1
 386 539 l 2xd8
 386 626 346 670 264 670 c 0
 190 670 142 628 142 559 c 0xd4
 142 392 472 428 472 196 c 0
 472 64 394 -10 261 -10 c 0xe4
EndSplineSet
EndChar

StartChar: Sacute
Encoding: 346 346 79
Width: 517
VWidth: 1220
GlyphClass: 2
Flags: MW
HStem: -10 67<212.5 301 212.5 327.5> 670 67<227 305> 808 141<229 417 229 417>
VStem: 45 83<198 198> 66 76<475.5 593.5 475.5 610> 386 82<519 540 540 540 540 582.5> 396 76<148 274>
AnchorPoint: "Anchor-4" 263 949 basechar 0
AnchorPoint: "Anchor-2" 263 0 basechar 0
LayerCount: 2
Fore
SplineSet
296 808 m 1xea
 229 808 l 1
 318 949 l 1
 417 949 l 1
 296 808 l 1xea
261 -10 m 0xf2
 119 -10 46 57 45 198 c 1
 47 239 l 1
 128 239 l 1
 128 209 l 2xf2
 128 103 166 57 259 57 c 0
 343 57 396 107 396 189 c 0xea
 396 359 66 328 66 551 c 0
 66 669 141 737 264 737 c 0
 396 737 474 672 468 540 c 2
 467 519 l 1
 386 519 l 1
 386 539 l 2xec
 386 626 346 670 264 670 c 0
 190 670 142 628 142 559 c 0xea
 142 392 472 428 472 196 c 0
 472 64 394 -10 261 -10 c 0xf2
EndSplineSet
EndChar

StartChar: Scaron
Encoding: 352 352 80
Width: 517
VWidth: 1220
GlyphClass: 2
Flags: MW
HStem: -10 67<212.5 301 212.5 327.5> 670 67<227 305> 808 141<132 304 132 222>
VStem: 45 83<198 198> 66 76<475.5 593.5 475.5 610> 386 82<519 540 540 540 540 582.5> 396 76<148 274>
AnchorPoint: "Anchor-4" 263 949 basechar 0
AnchorPoint: "Anchor-2" 263 0 basechar 0
LayerCount: 2
Fore
SplineSet
394 949 m 1xe8
 304 808 l 1
 222 808 l 1
 132 949 l 1
 207 949 l 1
 263 855 l 1
 319 949 l 1
 394 949 l 1xe8
261 -10 m 0
 119 -10 46 57 45 198 c 1
 47 239 l 1
 128 239 l 1
 128 209 l 2xf0
 128 103 166 57 259 57 c 0
 343 57 396 107 396 189 c 0xea
 396 359 66 328 66 551 c 0
 66 669 141 737 264 737 c 0
 396 737 474 672 468 540 c 2
 467 519 l 1
 386 519 l 1
 386 539 l 2xec
 386 626 346 670 264 670 c 0
 190 670 142 628 142 559 c 0
 142 392 472 428 472 196 c 0xea
 472 64 394 -10 261 -10 c 0
EndSplineSet
EndChar

StartChar: Scedilla
Encoding: 350 350 81
Width: 517
VWidth: 1220
GlyphClass: 2
Flags: MW
HStem: -227 45<242.5 274.5 242.5 285.5> -76 41<275 275 275 278> -9 66<229 229 288 288> 670 67<227 305>
VStem: 45 83<198 198> 66 76<475.5 593.5 475.5 610> 314 55<-139 -109> 386 82<519 540 540 540 540 582.5> 396 76<148 274>
AnchorPoint: "Anchor-4" 263 727 basechar 0
AnchorPoint: "Anchor-2" 252 -225 basechar 0
LayerCount: 2
Fore
SplineSet
472 196 m 0xb480
 472 73 404 0 288 -9 c 1
 275 -35 l 1
 324 -36 369 -65 369 -130 c 0
 369 -193 314 -227 257 -227 c 0
 221 -227 184 -214 160 -185 c 1
 191 -155 l 1
 204 -171 230 -182 255 -182 c 0
 294 -182 314 -153 314 -125 c 0
 314 -93 291 -76 265 -76 c 0
 255 -76 244 -79 235 -85 c 1
 201 -65 l 1xf680
 229 -9 l 1
 108 1 46 68 45 198 c 1
 47 239 l 1
 128 239 l 1
 128 209 l 2xb880
 128 103 166 57 259 57 c 0
 343 57 396 107 396 189 c 0xb480
 396 359 66 328 66 551 c 0
 66 669 141 737 264 737 c 0
 396 737 474 672 468 540 c 2
 467 519 l 1
 386 519 l 1
 386 539 l 2xb5
 386 626 346 670 264 670 c 0
 190 670 142 628 142 559 c 0
 142 392 472 428 472 196 c 0xb480
EndSplineSet
Substitution2: "'locl' Localized Forms in Latin lookup 2 subtable" uni0218
Substitution2: "'locl' Localized Forms in Latin lookup 1 subtable" uni0218
Substitution2: "'aalt' Access All Alternates in Latin lookup 0 subtable" uni0218
EndChar

StartChar: uni0218
Encoding: 536 536 82
Width: 517
VWidth: 1220
GlyphClass: 2
Flags: MW
HStem: -231 166<223 239 186 303> -10 67<212.5 301 212.5 327.5> 670 67<227 305>
VStem: 45 83<198 198> 66 76<475.5 593.5 475.5 610> 386 82<519 540 540 540 540 582.5> 396 76<148 274>
AnchorPoint: "Anchor-4" 263 727 basechar 0
AnchorPoint: "Anchor-2" 245 -231 basechar 0
LayerCount: 2
Fore
SplineSet
261 -10 m 0x72
 119 -10 46 57 45 198 c 1
 47 239 l 1
 128 239 l 1
 128 209 l 2x72
 128 103 166 57 259 57 c 0
 343 57 396 107 396 189 c 0x6a
 396 359 66 328 66 551 c 0
 66 669 141 737 264 737 c 0
 396 737 474 672 468 540 c 2
 467 519 l 1
 386 519 l 1
 386 539 l 2x6c
 386 626 346 670 264 670 c 0
 190 670 142 628 142 559 c 0x6a
 142 392 472 428 472 196 c 0
 472 64 394 -10 261 -10 c 0x72
239 -231 m 1xea
 186 -231 l 1
 223 -65 l 1
 303 -65 l 1
 239 -231 l 1xea
EndSplineSet
EndChar

StartChar: T
Encoding: 84 84 83
Width: 514
VWidth: 1200
GlyphClass: 2
Flags: MW
HStem: 0 21G<219 295 219 219>
AnchorPoint: "Anchor-4" 257 727 basechar 0
AnchorPoint: "Anchor-2" 257 0 basechar 0
LayerCount: 2
Fore
SplineSet
295 0 m 1
 219 0 l 1
 219 657 l 1
 30 657 l 1
 30 727 l 1
 484 727 l 1
 484 657 l 1
 295 657 l 1
 295 0 l 1
EndSplineSet
EndChar

StartChar: Tbar
Encoding: 358 358 84
Width: 514
VWidth: 1220
GlyphClass: 2
Flags: MW
HStem: 0 21G<219 295 219 219>
AnchorPoint: "Anchor-4" 257 727 basechar 0
AnchorPoint: "Anchor-2" 257 0 basechar 0
LayerCount: 2
Fore
SplineSet
484 727 m 1
 484 657 l 1
 295 657 l 1
 295 422 l 1
 411 422 l 1
 411 366 l 1
 295 366 l 1
 295 0 l 1
 219 0 l 1
 219 366 l 1
 120 366 l 1
 120 422 l 1
 219 422 l 1
 219 657 l 1
 30 657 l 1
 30 727 l 1
 484 727 l 1
EndSplineSet
EndChar

StartChar: Tcaron
Encoding: 356 356 85
Width: 514
VWidth: 1220
GlyphClass: 2
Flags: MW
HStem: 0 21G<219 295 219 219> 808 141<126 298 126 216>
VStem: 111 292
AnchorPoint: "Anchor-4" 257 949 basechar 0
AnchorPoint: "Anchor-2" 257 0 basechar 0
LayerCount: 2
Fore
SplineSet
313 949 m 1
 388 949 l 1
 298 808 l 1
 216 808 l 1
 126 949 l 1
 201 949 l 1
 257 855 l 1
 313 949 l 1
295 0 m 1
 219 0 l 1
 219 657 l 1
 30 657 l 1
 30 727 l 1
 484 727 l 1
 484 657 l 1
 295 657 l 1
 295 0 l 1
EndSplineSet
EndChar

StartChar: uni0162
Encoding: 354 354 86
Width: 514
VWidth: 1220
GlyphClass: 2
Flags: MW
HStem: -227 45<236.5 268.5 236.5 279.5> -76 41<269 269 269 272> -76 96<254 296> 0 21G<219 227 219 219 286 295 286 286>
VStem: 308 55<-139 -109>
AnchorPoint: "Anchor-4" 257 727 basechar 0
AnchorPoint: "Anchor-2" 246 -225 basechar 0
LayerCount: 2
Fore
SplineSet
484 727 m 1xa8
 484 657 l 1
 295 657 l 1
 295 20 l 1
 296 20 l 1xa8
 295 18 l 1
 295 0 l 1
 286 0 l 1x98
 269 -35 l 1xc8
 318 -36 363 -65 363 -130 c 0
 363 -193 308 -227 251 -227 c 0
 215 -227 178 -214 154 -185 c 1
 185 -155 l 1
 198 -171 224 -182 249 -182 c 0
 288 -182 308 -153 308 -125 c 0
 308 -93 285 -76 259 -76 c 0xa8
 249 -76 238 -79 229 -85 c 1
 195 -65 l 1
 227 0 l 1
 219 0 l 1x98
 219 657 l 1
 30 657 l 1
 30 727 l 1
 484 727 l 1xa8
EndSplineSet
Substitution2: "'locl' Localized Forms in Latin lookup 2 subtable" uni021A
Substitution2: "'locl' Localized Forms in Latin lookup 1 subtable" uni021A
Substitution2: "'aalt' Access All Alternates in Latin lookup 0 subtable" uni021A
EndChar

StartChar: uni021A
Encoding: 538 538 87
Width: 514
VWidth: 1220
GlyphClass: 2
Flags: MW
HStem: -231 166<217 233 180 297> 0 21G<219 295 219 219>
VStem: 180 117
AnchorPoint: "Anchor-4" 257 727 basechar 0
AnchorPoint: "Anchor-2" 239 -231 basechar 0
LayerCount: 2
Fore
SplineSet
295 0 m 1
 219 0 l 1
 219 657 l 1
 30 657 l 1
 30 727 l 1
 484 727 l 1
 484 657 l 1
 295 657 l 1
 295 0 l 1
297 -65 m 1
 233 -231 l 1
 180 -231 l 1
 217 -65 l 1
 297 -65 l 1
EndSplineSet
EndChar

StartChar: U
Encoding: 85 85 88
Width: 539
VWidth: 1200
GlyphClass: 2
Flags: MW
HStem: -10 67<216 313 216 335> 707 20G<60 136 136 136 403 479 479 479>
VStem: 60 76<266 727> 403 76<264 266 266 727>
AnchorPoint: "Anchor-5" 519 727 basechar 0
AnchorPoint: "Anchor-4" 265 727 basechar 0
AnchorPoint: "Anchor-3" 341 0 basechar 0
AnchorPoint: "Anchor-2" 265 0 basechar 0
LayerCount: 2
Fore
SplineSet
403 264 m 2
 403 727 l 1
 479 727 l 1
 479 266 l 2
 479 74 405 -10 265 -10 c 0
 125 -10 60 75 60 266 c 2
 60 727 l 1
 136 727 l 1
 136 264 l 2
 136 110 167 57 265 57 c 0
 361 57 403 110 403 264 c 2
EndSplineSet
EndChar

StartChar: Uacute
Encoding: 218 218 89
Width: 539
VWidth: 1220
GlyphClass: 2
Flags: MW
HStem: -10 67<216 313 216 335> 707 20G<60 136 136 136 403 479 479 479> 808 141<231 419 231 419>
VStem: 60 76<266 727> 403 76<264 266 266 727>
AnchorPoint: "Anchor-5" 519 727 basechar 0
AnchorPoint: "Anchor-4" 265 949 basechar 0
AnchorPoint: "Anchor-3" 341 0 basechar 0
AnchorPoint: "Anchor-2" 265 0 basechar 0
LayerCount: 2
Fore
SplineSet
298 808 m 1
 231 808 l 1
 320 949 l 1
 419 949 l 1
 298 808 l 1
403 264 m 2
 403 727 l 1
 479 727 l 1
 479 266 l 2
 479 74 405 -10 265 -10 c 0
 125 -10 60 75 60 266 c 2
 60 727 l 1
 136 727 l 1
 136 264 l 2
 136 110 167 57 265 57 c 0
 361 57 403 110 403 264 c 2
EndSplineSet
EndChar

StartChar: Ucircumflex
Encoding: 219 219 90
Width: 539
VWidth: 1220
GlyphClass: 2
Flags: MW
HStem: -10 67<216 313 216 335> 707 20G<60 136 136 136 403 479 479 479> 808 141<134 306 134 306 224 321 224 396> 902 47<265 265>
VStem: 60 76<266 727> 403 76<264 266 266 727>
AnchorPoint: "Anchor-5" 519 727 basechar 0
AnchorPoint: "Anchor-4" 265 949 basechar 0
AnchorPoint: "Anchor-3" 341 0 basechar 0
AnchorPoint: "Anchor-2" 265 0 basechar 0
LayerCount: 2
Fore
SplineSet
209 808 m 1xec
 134 808 l 1
 224 949 l 1
 306 949 l 1
 396 808 l 1
 321 808 l 1xec
 265 902 l 1xdc
 209 808 l 1xec
403 264 m 2
 403 727 l 1
 479 727 l 1
 479 266 l 2
 479 74 405 -10 265 -10 c 0
 125 -10 60 75 60 266 c 2
 60 727 l 1
 136 727 l 1
 136 264 l 2
 136 110 167 57 265 57 c 0
 361 57 403 110 403 264 c 2
EndSplineSet
EndChar

StartChar: Udieresis
Encoding: 220 220 91
Width: 539
VWidth: 1220
GlyphClass: 2
Flags: MW
HStem: -10 67<216 313 216 335> 707 20G<60 136 136 136 403 479 479 479> 833 83
VStem: 60 76<266 727> 135 80<813 896> 315 80<813 896> 403 76<264 266 266 727>
AnchorPoint: "Anchor-5" 519 727 basechar 0
AnchorPoint: "Anchor-4" 265 896 basechar 0
AnchorPoint: "Anchor-3" 341 0 basechar 0
AnchorPoint: "Anchor-2" 265 0 basechar 0
LayerCount: 2
Fore
SplineSet
215 813 m 1xee
 135 813 l 1
 135 896 l 1xf6
 215 896 l 1
 215 813 l 1xee
395 813 m 1
 315 813 l 1
 315 896 l 1
 395 896 l 1
 395 813 l 1
403 264 m 2
 403 727 l 1
 479 727 l 1
 479 266 l 2
 479 74 405 -10 265 -10 c 0
 125 -10 60 75 60 266 c 2
 60 727 l 1
 136 727 l 1
 136 264 l 2
 136 110 167 57 265 57 c 0
 361 57 403 110 403 264 c 2
EndSplineSet
EndChar

StartChar: Ugrave
Encoding: 217 217 92
Width: 539
VWidth: 1220
GlyphClass: 2
Flags: MW
HStem: -10 67<216 313 216 335> 707 20G<60 136 136 136 403 479 479 479> 808 141<111 299 111 232>
VStem: 60 76<266 727> 403 76<264 266 266 727>
AnchorPoint: "Anchor-5" 519 727 basechar 0
AnchorPoint: "Anchor-4" 265 949 basechar 0
AnchorPoint: "Anchor-3" 341 0 basechar 0
AnchorPoint: "Anchor-2" 265 0 basechar 0
LayerCount: 2
Fore
SplineSet
299 808 m 1
 232 808 l 1
 111 949 l 1
 210 949 l 1
 299 808 l 1
403 264 m 2
 403 727 l 1
 479 727 l 1
 479 266 l 2
 479 74 405 -10 265 -10 c 0
 125 -10 60 75 60 266 c 2
 60 727 l 1
 136 727 l 1
 136 264 l 2
 136 110 167 57 265 57 c 0
 361 57 403 110 403 264 c 2
EndSplineSet
EndChar

StartChar: Uhungarumlaut
Encoding: 368 368 93
Width: 539
VWidth: 1220
GlyphClass: 2
Flags: MW
HStem: -10 67<216 313 216 335> 707 20G<60 136 136 136 403 479 479 479> 808 141<146 334 146 334 293 293 293 334 235 360>
VStem: 60 76<266 727> 403 76<264 266 266 727>
AnchorPoint: "Anchor-5" 519 727 basechar 0
AnchorPoint: "Anchor-4" 299 949 basechar 0
AnchorPoint: "Anchor-3" 341 0 basechar 0
AnchorPoint: "Anchor-2" 265 0 basechar 0
LayerCount: 2
Fore
SplineSet
235 949 m 1
 334 949 l 1
 213 808 l 1
 146 808 l 1
 235 949 l 1
382 949 m 1
 481 949 l 1
 360 808 l 1
 293 808 l 1
 382 949 l 1
403 264 m 2
 403 727 l 1
 479 727 l 1
 479 266 l 2
 479 74 405 -10 265 -10 c 0
 125 -10 60 75 60 266 c 2
 60 727 l 1
 136 727 l 1
 136 264 l 2
 136 110 167 57 265 57 c 0
 361 57 403 110 403 264 c 2
EndSplineSet
EndChar

StartChar: Umacron
Encoding: 362 362 94
Width: 539
VWidth: 1220
GlyphClass: 2
Flags: MW
HStem: -10 67<216 313 216 335> 707 20G<60 136 136 136 403 479 479 479> 830 61
VStem: 60 76<266 727> 162 207 403 76<264 266 266 727>
AnchorPoint: "Anchor-5" 519 727 basechar 0
AnchorPoint: "Anchor-4" 265 869 basechar 0
AnchorPoint: "Anchor-3" 341 0 basechar 0
AnchorPoint: "Anchor-2" 265 0 basechar 0
LayerCount: 2
Fore
SplineSet
369 808 m 1
 161 808 l 1
 161 869 l 1
 369 869 l 1
 369 808 l 1
403 264 m 2
 403 727 l 1
 479 727 l 1
 479 266 l 2
 479 74 405 -10 265 -10 c 0
 125 -10 60 75 60 266 c 2
 60 727 l 1
 136 727 l 1
 136 264 l 2
 136 110 167 57 265 57 c 0
 361 57 403 110 403 264 c 2
EndSplineSet
EndChar

StartChar: Uogonek
Encoding: 370 370 95
Width: 539
VWidth: 1220
GlyphClass: 2
Flags: MW
HStem: -188 59<333.5 340.5> -10 67<216 264> 707 20G<60 136 136 136 403 479 479 479>
VStem: 60 76<266 727> 223 63<-96.5 -77> 403 76<264 266 266 727>
AnchorPoint: "Anchor-5" 519 727 basechar 0
AnchorPoint: "Anchor-4" 265 727 basechar 0
AnchorPoint: "Anchor-3" 341 0 basechar 0
AnchorPoint: "Anchor-2" 265 0 basechar 0
LayerCount: 2
Fore
SplineSet
403 264 m 2
 403 727 l 1
 479 727 l 1
 479 266 l 2
 479 112 431 27 340 0 c 1
 341 0 l 1
 304 -28 286 -54 286 -80 c 0
 286 -113 318 -129 349 -129 c 0
 358 -129 367 -128 375 -125 c 1
 375 -185 l 1
 361 -187 347 -188 334 -188 c 0
 269 -188 223 -161 223 -94 c 0
 223 -60 235 -36 264 -10 c 1
 125 -10 60 75 60 266 c 2
 60 727 l 1
 136 727 l 1
 136 264 l 2
 136 110 167 57 265 57 c 0
 361 57 403 110 403 264 c 2
EndSplineSet
EndChar

StartChar: Uring
Encoding: 366 366 96
Width: 539
VWidth: 1220
GlyphClass: 2
Flags: MW
HStem: -10 67<216 313 216 335> 707 20G<60 136 136 136 403 479 479 479> 770 49<249.5 264> 790 49 921 49<250.5 278> 941 49
VStem: 60 76<266 727> 166 48<856.5 885.5 856.5 897.5> 315 48<856.5 871 844.5 885.5> 403 76<264 266 266 727>
AnchorPoint: "Anchor-5" 519 727 basechar 0
AnchorPoint: "Anchor-4" 265 970 basechar 0
AnchorPoint: "Anchor-3" 341 0 basechar 0
AnchorPoint: "Anchor-2" 265 0 basechar 0
LayerCount: 2
Fore
SplineSet
264 770 m 0xe7c0
 211 770 166 814 166 871 c 0
 166 924 205 970 266 970 c 0xdbc0
 315 970 361 927 363 871 c 0
 363 818 323 772 264 770 c 0xe7c0
264 819 m 0
 293 819 315 842 315 871 c 0
 315 900 291 921 265 921 c 0xdbc0
 236 921 214 900 214 871 c 0
 214 842 235 819 264 819 c 0
403 264 m 2
 403 727 l 1
 479 727 l 1
 479 266 l 2
 479 74 405 -10 265 -10 c 0
 125 -10 60 75 60 266 c 2
 60 727 l 1
 136 727 l 1
 136 264 l 2
 136 110 167 57 265 57 c 0
 361 57 403 110 403 264 c 2
EndSplineSet
EndChar

StartChar: V
Encoding: 86 86 97
Width: 539
VWidth: 1200
GlyphClass: 2
Flags: MW
HStem: 0 86<270 270 270 327 212 270> 707 20G<30 110 110 110 429 509 509 509>
VStem: 30 479<727 727>
AnchorPoint: "Anchor-4" 269 727 basechar 0
AnchorPoint: "Anchor-2" 269 0 basechar 0
LayerCount: 2
Fore
SplineSet
270 86 m 1
 429 727 l 1
 509 727 l 1
 327 0 l 1
 212 0 l 1
 30 727 l 1
 110 727 l 1
 270 86 l 1
EndSplineSet
EndChar

StartChar: W
Encoding: 87 87 98
Width: 849
VWidth: 1200
GlyphClass: 2
Flags: MW
HStem: 0 96<238 238 238 283 180 238> 635 92<425 425> 707 20G<30 110 110 110 379 470 470 470 739 819 819 819>
VStem: 30 789<727 727>
AnchorPoint: "Anchor-4" 425 727 basechar 0
AnchorPoint: "Anchor-2" 425 0 basechar 0
LayerCount: 2
Fore
SplineSet
470 727 m 1xb0
 611 96 l 1
 739 727 l 1
 819 727 l 1
 669 0 l 1
 566 0 l 1
 425 635 l 1xd0
 283 0 l 1
 180 0 l 1
 30 727 l 1
 110 727 l 1
 238 96 l 1
 379 727 l 1
 470 727 l 1xb0
EndSplineSet
EndChar

StartChar: Wacute
Encoding: 7810 7810 99
Width: 849
VWidth: 1220
GlyphClass: 2
Flags: MW
HStem: 0 96<238 238 238 283 180 238> 635 92<425 425> 707 20G<30 110 110 110 379 470 470 470 739 819 819 819> 808 141<391 579 391 579>
VStem: 30 789<727 727>
AnchorPoint: "Anchor-4" 425 949 basechar 0
AnchorPoint: "Anchor-2" 425 0 basechar 0
LayerCount: 2
Fore
SplineSet
480 949 m 1xb8
 579 949 l 1
 458 808 l 1
 391 808 l 1
 480 949 l 1xb8
611 96 m 1
 739 727 l 1
 819 727 l 1
 669 0 l 1
 566 0 l 1
 425 635 l 1xd8
 283 0 l 1
 180 0 l 1
 30 727 l 1
 110 727 l 1
 238 96 l 1
 379 727 l 1
 470 727 l 1
 611 96 l 1
EndSplineSet
EndChar

StartChar: Wcircumflex
Encoding: 372 372 100
Width: 849
VWidth: 1220
GlyphClass: 2
Flags: MW
HStem: 0 96<238 238 238 283 180 238> 635 92<425 425> 707 20G<30 110 110 110 379 470 470 470 739 819 819 819> 808 141<294 466 294 466 384 556 384 481> 902 47<425 425>
VStem: 30 789<727 727>
AnchorPoint: "Anchor-4" 425 949 basechar 0
AnchorPoint: "Anchor-2" 425 0 basechar 0
LayerCount: 2
Fore
SplineSet
481 808 m 1xb4
 425 902 l 1xac
 369 808 l 1
 294 808 l 1
 384 949 l 1
 466 949 l 1
 556 808 l 1
 481 808 l 1xb4
611 96 m 1
 739 727 l 1
 819 727 l 1
 669 0 l 1
 566 0 l 1
 425 635 l 1xd4
 283 0 l 1
 180 0 l 1
 30 727 l 1
 110 727 l 1
 238 96 l 1
 379 727 l 1
 470 727 l 1
 611 96 l 1
EndSplineSet
EndChar

StartChar: Wdieresis
Encoding: 7812 7812 101
Width: 849
VWidth: 1220
GlyphClass: 2
Flags: MW
HStem: 0 96<238 238 238 283 180 238> 635 92<425 425> 833 83
VStem: 284 80 295 80<813 896> 475 80<813 896>
AnchorPoint: "Anchor-4" 425 896 basechar 0
AnchorPoint: "Anchor-2" 425 0 basechar 0
LayerCount: 2
Fore
SplineSet
375 813 m 1xec
 295 813 l 1
 295 896 l 1
 375 896 l 1
 375 813 l 1xec
555 813 m 1
 475 813 l 1
 475 896 l 1
 555 896 l 1
 555 813 l 1
470 727 m 1
 611 96 l 1
 739 727 l 1
 819 727 l 1
 669 0 l 1
 566 0 l 1
 425 635 l 1
 283 0 l 1xf4
 180 0 l 1
 30 727 l 1
 110 727 l 1
 238 96 l 1
 379 727 l 1
 470 727 l 1
EndSplineSet
EndChar

StartChar: Wgrave
Encoding: 7808 7808 102
Width: 849
VWidth: 1220
GlyphClass: 2
Flags: MW
HStem: 0 96<238 238 238 283 180 238> 635 92<425 425> 707 20G<30 110 110 110 379 470 470 470 739 819 819 819> 808 141<271 459 271 392>
VStem: 30 789<727 727>
AnchorPoint: "Anchor-4" 425 949 basechar 0
AnchorPoint: "Anchor-2" 425 0 basechar 0
LayerCount: 2
Fore
SplineSet
459 808 m 1xb8
 392 808 l 1
 271 949 l 1
 370 949 l 1
 459 808 l 1xb8
470 727 m 1
 611 96 l 1
 739 727 l 1
 819 727 l 1
 669 0 l 1
 566 0 l 1
 425 635 l 1xd8
 283 0 l 1
 180 0 l 1
 30 727 l 1
 110 727 l 1
 238 96 l 1
 379 727 l 1
 470 727 l 1
EndSplineSet
EndChar

StartChar: X
Encoding: 88 88 103
Width: 518
VWidth: 1200
GlyphClass: 2
Flags: MW
HStem: 0 21G<30 113 30 30 405 488 405 405> 707 20G<30 113 113 113 405 488 488 488>
VStem: 30 458<0 0>
AnchorPoint: "Anchor-4" 259 727 basechar 0
AnchorPoint: "Anchor-2" 259 0 basechar 0
LayerCount: 2
Fore
SplineSet
405 727 m 1
 488 727 l 1
 301 364 l 1
 488 0 l 1
 405 0 l 1
 259 283 l 1
 113 0 l 1
 30 0 l 1
 218 364 l 1
 30 727 l 1
 113 727 l 1
 259 444 l 1
 405 727 l 1
EndSplineSet
EndChar

StartChar: Y
Encoding: 89 89 104
Width: 458
VWidth: 1200
GlyphClass: 2
Flags: MW
HStem: 0 21G<191 267 191 191> 707 20G<15 96 96 96 362 443 443 443>
VStem: 191 76<0 301 0 301>
AnchorPoint: "Anchor-4" 229 727 basechar 0
AnchorPoint: "Anchor-2" 229 0 basechar 0
LayerCount: 2
Fore
SplineSet
96 727 m 1
 229 386 l 1
 362 727 l 1
 443 727 l 1
 267 301 l 1
 267 0 l 1
 191 0 l 1
 191 301 l 1
 15 727 l 1
 96 727 l 1
EndSplineSet
EndChar

StartChar: Yacute
Encoding: 221 221 105
Width: 458
VWidth: 1220
GlyphClass: 2
Flags: MW
HStem: 0 21G<191 267 191 191> 707 20G<15 96 96 96 362 443 443 443> 808 141<195 383 195 383>
VStem: 191 76<0 301 0 301>
AnchorPoint: "Anchor-4" 229 949 basechar 0
AnchorPoint: "Anchor-2" 229 0 basechar 0
LayerCount: 2
Fore
SplineSet
284 949 m 1
 383 949 l 1
 262 808 l 1
 195 808 l 1
 284 949 l 1
229 386 m 1
 362 727 l 1
 443 727 l 1
 267 301 l 1
 267 0 l 1
 191 0 l 1
 191 301 l 1
 15 727 l 1
 96 727 l 1
 229 386 l 1
EndSplineSet
EndChar

StartChar: Ycircumflex
Encoding: 374 374 106
Width: 458
VWidth: 1220
GlyphClass: 2
Flags: MW
HStem: 0 21G<191 267 191 191> 707 20G<15 96 96 96 362 443 443 443> 808 141<98 270 98 270 188 360 188 285> 902 47<229 229>
VStem: 191 76<0 301 0 301>
AnchorPoint: "Anchor-4" 229 949 basechar 0
AnchorPoint: "Anchor-2" 229 0 basechar 0
LayerCount: 2
Fore
SplineSet
285 808 m 1xe8
 229 902 l 1xd8
 173 808 l 1
 98 808 l 1
 188 949 l 1
 270 949 l 1
 360 808 l 1
 285 808 l 1xe8
229 386 m 1
 362 727 l 1
 443 727 l 1
 267 301 l 1
 267 0 l 1
 191 0 l 1
 191 301 l 1
 15 727 l 1
 96 727 l 1
 229 386 l 1
EndSplineSet
EndChar

StartChar: Ydieresis
Encoding: 376 376 107
Width: 458
VWidth: 1220
GlyphClass: 2
Flags: MW
HStem: 0 21G<191 267 191 191> 707 20G<15 96 96 96 362 443 443 443> 833 83
VStem: 88 80 99 80<813 896> 191 76<0 301 0 301> 268 80 279 80<813 896>
AnchorPoint: "Anchor-4" 229 896 basechar 0
AnchorPoint: "Anchor-2" 229 0 basechar 0
LayerCount: 2
Fore
SplineSet
179 813 m 1xed
 99 813 l 1
 99 896 l 1
 179 896 l 1
 179 813 l 1xed
359 813 m 1
 279 813 l 1
 279 896 l 1
 359 896 l 1
 359 813 l 1
96 727 m 1
 229 386 l 1
 362 727 l 1
 443 727 l 1
 267 301 l 1
 267 0 l 1xf6
 191 0 l 1
 191 301 l 1
 15 727 l 1
 96 727 l 1
EndSplineSet
EndChar

StartChar: Ygrave
Encoding: 7922 7922 108
Width: 458
VWidth: 1220
GlyphClass: 2
Flags: MW
HStem: 0 21G<191 267 191 191> 707 20G<15 96 96 96 362 443 443 443> 808 141<75 263 75 196>
VStem: 191 76<0 301 0 301>
AnchorPoint: "Anchor-4" 229 949 basechar 0
AnchorPoint: "Anchor-2" 229 0 basechar 0
LayerCount: 2
Fore
SplineSet
263 808 m 1
 196 808 l 1
 75 949 l 1
 174 949 l 1
 263 808 l 1
96 727 m 1
 229 386 l 1
 362 727 l 1
 443 727 l 1
 267 301 l 1
 267 0 l 1
 191 0 l 1
 191 301 l 1
 15 727 l 1
 96 727 l 1
EndSplineSet
EndChar

StartChar: Z
Encoding: 90 90 109
Width: 515
VWidth: 1200
GlyphClass: 2
Flags: MW
HStem: 0 70<134 470 134 470> 657 70<56 381 56 470>
VStem: 45 425<0 70 0 79 0 79>
AnchorPoint: "Anchor-4" 263 727 basechar 0
AnchorPoint: "Anchor-2" 258 0 basechar 0
LayerCount: 2
Fore
SplineSet
470 70 m 1
 470 0 l 1
 45 0 l 1
 45 79 l 1
 381 657 l 1
 56 657 l 1
 56 727 l 1
 470 727 l 1
 470 655 l 1
 134 70 l 1
 470 70 l 1
EndSplineSet
EndChar

StartChar: Zacute
Encoding: 377 377 110
Width: 515
VWidth: 1220
GlyphClass: 2
Flags: MW
HStem: 0 70<134 470 134 470> 657 70<56 381 56 470> 808 141<229 417 229 417>
VStem: 45 425<0 70 0 79 0 79>
AnchorPoint: "Anchor-4" 263 949 basechar 0
AnchorPoint: "Anchor-2" 258 0 basechar 0
LayerCount: 2
Fore
SplineSet
296 808 m 1
 229 808 l 1
 318 949 l 1
 417 949 l 1
 296 808 l 1
470 0 m 1
 45 0 l 1
 45 79 l 1
 381 657 l 1
 56 657 l 1
 56 727 l 1
 470 727 l 1
 470 655 l 1
 134 70 l 1
 470 70 l 1
 470 0 l 1
EndSplineSet
EndChar

StartChar: Zcaron
Encoding: 381 381 111
Width: 515
VWidth: 1220
GlyphClass: 2
Flags: MW
HStem: 0 70<134 470 134 470> 657 70<56 381 56 470> 808 141<132 304 132 222>
VStem: 117 292
AnchorPoint: "Anchor-4" 263 949 basechar 0
AnchorPoint: "Anchor-2" 258 0 basechar 0
LayerCount: 2
Fore
SplineSet
263 855 m 1
 319 949 l 1
 394 949 l 1
 304 808 l 1
 222 808 l 1
 132 949 l 1
 207 949 l 1
 263 855 l 1
470 70 m 1
 470 0 l 1
 45 0 l 1
 45 79 l 1
 381 657 l 1
 56 657 l 1
 56 727 l 1
 470 727 l 1
 470 655 l 1
 134 70 l 1
 470 70 l 1
EndSplineSet
EndChar

StartChar: Zdotaccent
Encoding: 379 379 112
Width: 515
VWidth: 1220
GlyphClass: 2
Flags: MW
HStem: 0 70<134 470 134 470> 657 70<56 381 56 470> 813 83<223 303 223 303>
VStem: 223 80<813 896>
AnchorPoint: "Anchor-4" 263 896 basechar 0
AnchorPoint: "Anchor-2" 258 0 basechar 0
LayerCount: 2
Fore
SplineSet
303 813 m 1
 223 813 l 1
 223 896 l 1
 303 896 l 1
 303 813 l 1
470 70 m 1
 470 0 l 1
 45 0 l 1
 45 79 l 1
 381 657 l 1
 56 657 l 1
 56 727 l 1
 470 727 l 1
 470 655 l 1
 134 70 l 1
 470 70 l 1
EndSplineSet
EndChar

StartChar: a
Encoding: 97 97 113
Width: 461
VWidth: 1200
GlyphClass: 2
Flags: MW
HStem: -10 62<196 235> 0 21G<337 401 337 337> 258 55<253 257 257 325> 460 55<207.5 262.5>
VStem: 55 76<113 177 113 191> 68 76<385 428.5> 325 76<130 258 258 258 313 325 0 361 0 397> 333 68
AnchorPoint: "Anchor-4" 235 505 basechar 0
AnchorPoint: "Anchor-3" 401 0 basechar 0
AnchorPoint: "Anchor-2" 232 0 basechar 0
LayerCount: 2
Fore
SplineSet
235 515 m 0xba
 369 515 401 460 401 325 c 2
 401 0 l 1x7a
 337 0 l 1x79
 329 67 l 1
 303 27 274 -10 196 -10 c 0
 109 -10 55 50 55 141 c 0xb9
 55 241 116 313 253 313 c 2
 325 313 l 1
 325 361 l 2
 325 433 292 460 233 460 c 0
 182 460 152 441 144 385 c 1
 68 385 l 1xb6
 68 472 119 515 235 515 c 0xba
218 52 m 0
 258 52 300 88 325 130 c 1
 325 258 l 1
 257 258 l 2
 166 258 131 212 131 142 c 0
 131 84 174 52 218 52 c 0
EndSplineSet
EndChar

StartChar: aacute
Encoding: 225 225 114
Width: 461
VWidth: 1220
GlyphClass: 2
Flags: MW
HStem: -10 62<196 235> 0 21G<337 401 337 337> 258 55<253 257 257 325> 460 55<207.5 262.5> 586 141<201 389 201 389>
VStem: 55 76<113 177 113 191> 68 76<385 428.5> 325 76<130 258 258 258 313 325 0 361 0 397> 333 68
AnchorPoint: "Anchor-4" 235 727 basechar 0
AnchorPoint: "Anchor-3" 401 0 basechar 0
AnchorPoint: "Anchor-2" 232 0 basechar 0
LayerCount: 2
Fore
SplineSet
290 727 m 1xbd
 389 727 l 1
 268 586 l 1
 201 586 l 1
 290 727 l 1xbd
235 515 m 0
 369 515 401 460 401 325 c 2
 401 0 l 1x7d
 337 0 l 1x7c80
 329 67 l 1
 303 27 274 -10 196 -10 c 0
 109 -10 55 50 55 141 c 0xbc80
 55 241 116 313 253 313 c 2
 325 313 l 1
 325 361 l 2
 325 433 292 460 233 460 c 0
 182 460 152 441 144 385 c 1
 68 385 l 1xbb
 68 472 119 515 235 515 c 0
218 52 m 0
 258 52 300 88 325 130 c 1
 325 258 l 1
 257 258 l 2
 166 258 131 212 131 142 c 0
 131 84 174 52 218 52 c 0
EndSplineSet
EndChar

StartChar: abreve
Encoding: 259 259 115
Width: 461
VWidth: 1220
GlyphClass: 2
Flags: MW
HStem: -10 62<196 235> 0 21G<337 401 337 337> 258 55<253 257 257 325> 460 55<207.5 262.5> 586 52<220 250 220 275.5>
VStem: 55 76<113 177 113 191> 68 76<385 428.5> 120 70<704 704> 281 68<704 704> 325 76<130 258 258 258 313 325 0 361 0 397> 333 68
AnchorPoint: "Anchor-4" 235 704 basechar 0
AnchorPoint: "Anchor-3" 401 0 basechar 0
AnchorPoint: "Anchor-2" 232 0 basechar 0
LayerCount: 2
Fore
SplineSet
281 704 m 1x7a80
 349 704 l 1x7a80
 343 608 316 586 235 586 c 0
 155 586 127 610 120 704 c 1
 190 704 l 1x7920
 194 652 206 638 234 638 c 0
 266 638 277 649 281 704 c 1x7a80
235 515 m 0
 369 515 401 460 401 325 c 2
 401 0 l 1
 337 0 l 1x7c20
 329 67 l 1
 303 27 274 -10 196 -10 c 0xbc20
 109 -10 55 50 55 141 c 0x7c20
 55 241 116 313 253 313 c 2
 325 313 l 1
 325 361 l 2x7a40
 325 433 292 460 233 460 c 0
 182 460 152 441 144 385 c 1
 68 385 l 1
 68 472 119 515 235 515 c 0
218 52 m 0xbc20
 258 52 300 88 325 130 c 1
 325 258 l 1xba40
 257 258 l 2
 166 258 131 212 131 142 c 0
 131 84 174 52 218 52 c 0xbc20
EndSplineSet
EndChar

StartChar: acircumflex
Encoding: 226 226 116
Width: 461
VWidth: 1220
GlyphClass: 2
Flags: MW
HStem: -10 62<196 235> 0 21G<337 401 337 337> 258 55<253 257 257 325> 460 55<207.5 262.5> 586 141<104 276 104 276 194 291 194 366> 680 47<235 235>
VStem: 55 76<113 177 113 191> 68 76<385 428.5> 325 76<130 258 258 258 313 325 0 361 0 397> 333 68
AnchorPoint: "Anchor-4" 235 727 basechar 0
AnchorPoint: "Anchor-3" 401 0 basechar 0
AnchorPoint: "Anchor-2" 232 0 basechar 0
LayerCount: 2
Fore
SplineSet
179 586 m 1xba80
 104 586 l 1
 194 727 l 1
 276 727 l 1
 366 586 l 1
 291 586 l 1xb980
 235 680 l 1xb680
 179 586 l 1xba80
235 515 m 0
 369 515 401 460 401 325 c 2
 401 0 l 1x7a80
 337 0 l 1x7a40
 329 67 l 1
 303 27 274 -10 196 -10 c 0
 109 -10 55 50 55 141 c 0xba40
 55 241 116 313 253 313 c 2
 325 313 l 1
 325 361 l 2
 325 433 292 460 233 460 c 0
 182 460 152 441 144 385 c 1
 68 385 l 1
 68 472 119 515 235 515 c 0
218 52 m 0xba80
 258 52 300 88 325 130 c 1
 325 258 l 1
 257 258 l 2
 166 258 131 212 131 142 c 0
 131 84 174 52 218 52 c 0xba80
EndSplineSet
EndChar

StartChar: adieresis
Encoding: 228 228 117
Width: 461
VWidth: 1220
GlyphClass: 2
Flags: MW
HStem: -10 62<196 235> 0 21G<337 401 337 337> 258 55<253 257 257 325> 460 55<207.5 262.5> 611 83
VStem: 55 76<113 177 113 191> 68 76<385 428.5> 105 80<591 674> 285 80<591 674> 325 76<130 258 258 258 313 325 0 361 0 397> 333 68
AnchorPoint: "Anchor-4" 235 674 basechar 0
AnchorPoint: "Anchor-3" 401 0 basechar 0
AnchorPoint: "Anchor-2" 232 0 basechar 0
LayerCount: 2
Fore
SplineSet
185 591 m 1x7980
 105 591 l 1
 105 674 l 1
 185 674 l 1
 185 591 l 1x7980
365 591 m 1
 285 591 l 1
 285 674 l 1
 365 674 l 1
 365 591 l 1
235 515 m 0
 369 515 401 460 401 325 c 2x7a20
 401 0 l 1
 337 0 l 1x7c80
 329 67 l 1
 303 27 274 -10 196 -10 c 0xbc80
 109 -10 55 50 55 141 c 0x7c80
 55 241 116 313 253 313 c 2
 325 313 l 1
 325 361 l 2x7a40
 325 433 292 460 233 460 c 0
 182 460 152 441 144 385 c 1
 68 385 l 1x7a80
 68 472 119 515 235 515 c 0
218 52 m 0xba20
 258 52 300 88 325 130 c 1
 325 258 l 1xba40
 257 258 l 2
 166 258 131 212 131 142 c 0xbc80
 131 84 174 52 218 52 c 0xba20
EndSplineSet
EndChar

StartChar: agrave
Encoding: 224 224 118
Width: 461
VWidth: 1220
GlyphClass: 2
Flags: MW
HStem: -10 62<196 235> 0 21G<337 401 337 337> 258 55<253 257 257 325> 460 55<207.5 262.5> 586 141<81 269 81 202>
VStem: 55 76<113 177 113 191> 68 76<385 428.5> 325 76<130 258 258 258 313 325 0 361 0 397> 333 68
AnchorPoint: "Anchor-4" 235 727 basechar 0
AnchorPoint: "Anchor-3" 401 0 basechar 0
AnchorPoint: "Anchor-2" 232 0 basechar 0
LayerCount: 2
Fore
SplineSet
269 586 m 1xbd
 202 586 l 1
 81 727 l 1
 180 727 l 1
 269 586 l 1xbd
235 515 m 0
 369 515 401 460 401 325 c 2
 401 0 l 1x7d
 337 0 l 1x7c80
 329 67 l 1
 303 27 274 -10 196 -10 c 0
 109 -10 55 50 55 141 c 0xbc80
 55 241 116 313 253 313 c 2
 325 313 l 1
 325 361 l 2
 325 433 292 460 233 460 c 0
 182 460 152 441 144 385 c 1
 68 385 l 1xbb
 68 472 119 515 235 515 c 0
218 52 m 0
 258 52 300 88 325 130 c 1
 325 258 l 1
 257 258 l 2
 166 258 131 212 131 142 c 0
 131 84 174 52 218 52 c 0
EndSplineSet
EndChar

StartChar: amacron
Encoding: 257 257 119
Width: 461
VWidth: 1220
GlyphClass: 2
Flags: MW
HStem: -10 62<196 235> 0 21G<337 401 337 337> 258 55<253 257 257 325> 460 55<207.5 262.5> 608 61
VStem: 55 76<113 177 113 191> 68 76<385 428.5> 121 207 132 207 325 76<130 258 258 258 313 325 0 361 0 397>
AnchorPoint: "Anchor-4" 235 647 basechar 0
AnchorPoint: "Anchor-3" 401 0 basechar 0
AnchorPoint: "Anchor-2" 232 0 basechar 0
LayerCount: 2
Fore
SplineSet
339 586 m 1x7880
 131 586 l 1
 131 647 l 1
 339 647 l 1
 339 586 l 1x7880
235 515 m 0
 369 515 401 460 401 325 c 2x7840
 401 0 l 1
 337 0 l 1x79
 329 67 l 1xb9
 303 27 274 -10 196 -10 c 0xbc80
 109 -10 55 50 55 141 c 0x7c80
 55 241 116 313 253 313 c 2
 325 313 l 1
 325 361 l 2x7840
 325 433 292 460 233 460 c 0
 182 460 152 441 144 385 c 1
 68 385 l 1x7a
 68 472 119 515 235 515 c 0
218 52 m 0xb840
 258 52 300 88 325 130 c 1
 325 258 l 1xb840
 257 258 l 2
 166 258 131 212 131 142 c 0xb880
 131 84 174 52 218 52 c 0xb840
EndSplineSet
EndChar

StartChar: aogonek
Encoding: 261 261 120
Width: 461
VWidth: 1220
GlyphClass: 2
Flags: MW
HStem: -188 59<393.5 400.5> -10 62<196 235> 0 21G<336 337 337 337 401 401> 258 55<253 257 257 325> 460 55<207.5 262.5>
VStem: 55 76<113 177 113 191> 68 76<385 428.5> 283 63<-96.5 -75> 325 76<130 258 258 258 313 325 0 361 0 397> 333 68
AnchorPoint: "Anchor-4" 235 505 basechar 0
AnchorPoint: "Anchor-3" 401 0 basechar 0
AnchorPoint: "Anchor-2" 232 0 basechar 0
LayerCount: 2
Fore
SplineSet
409 -129 m 0xdd
 418 -129 427 -128 435 -125 c 1
 435 -185 l 1
 421 -187 407 -188 394 -188 c 0
 329 -188 283 -161 283 -94 c 0xdd
 283 -56 298 -30 336 0 c 1
 337 0 l 1xbc40
 329 67 l 1
 303 27 274 -10 196 -10 c 0
 109 -10 55 50 55 141 c 0xdc40
 55 241 116 313 253 313 c 2
 325 313 l 1
 325 361 l 2
 325 433 292 460 233 460 c 0
 182 460 152 441 144 385 c 1
 68 385 l 1
 68 472 119 515 235 515 c 0
 369 515 401 460 401 325 c 2
 401 0 l 1xba80
 364 -28 346 -54 346 -80 c 0
 346 -113 378 -129 409 -129 c 0xdd
325 130 m 1xdc80
 325 258 l 1
 257 258 l 2
 166 258 131 212 131 142 c 0
 131 84 174 52 218 52 c 0
 258 52 300 88 325 130 c 1xdc80
EndSplineSet
EndChar

StartChar: aring
Encoding: 229 229 121
Width: 461
VWidth: 1220
GlyphClass: 2
Flags: MW
HStem: -10 62<196 235> 0 21G<337 401 337 337> 258 55<253 257 257 325> 460 67<219.5 248.5 219.5 262.5> 488 20G 629 49<220.5 248>
VStem: 55 76<113 177 113 191> 68 76<385 418.5> 136 48<565 593.5 564.5 605.5> 285 48<565.5 579 565.5 593.5> 325 76<130 258 258 258 313 325 0 361 0 397> 333 68
AnchorPoint: "Anchor-4" 235 505 basechar 0
AnchorPoint: "Anchor-3" 401 0 basechar 0
AnchorPoint: "Anchor-2" 232 0 basechar 0
LayerCount: 2
Fore
SplineSet
304 508 m 1xae20
 381 489 401 433 401 325 c 2
 401 0 l 1x6e20
 337 0 l 1x6e10
 329 67 l 1
 303 27 274 -10 196 -10 c 0
 109 -10 55 50 55 141 c 0xae10
 55 241 116 313 253 313 c 2
 325 313 l 1
 325 361 l 2
 325 433 292 460 233 460 c 0
 182 460 152 441 144 385 c 1
 68 385 l 1xb520
 68 452 98 493 164 508 c 1
 147 526 136 551 136 579 c 0
 136 632 175 678 236 678 c 0
 285 678 331 635 333 579 c 0xacc0
 333 552 323 527 304 508 c 1xae20
235 629 m 0xb4c0
 206 629 184 608 184 579 c 0
 184 550 205 527 234 527 c 0
 263 527 285 550 285 579 c 0
 285 608 261 629 235 629 c 0xb4c0
325 130 m 1xae20
 325 258 l 1
 257 258 l 2
 166 258 131 212 131 142 c 0
 131 84 174 52 218 52 c 0
 258 52 300 88 325 130 c 1xae20
EndSplineSet
EndChar

StartChar: atilde
Encoding: 227 227 122
Width: 461
VWidth: 1220
GlyphClass: 2
Flags: MW
HStem: -10 62<196 235> 0 21G<337 401 337 337> 258 55<253 257 257 325> 460 55<207.5 262.5> 593 64<269 300.5> 631 63<165.5 196>
VStem: 55 76<113 177 113 191> 68 76<385 428.5> 325 76<130 258 258 258 313 325 0 361 0 397> 333 52<702 702> 333 68
AnchorPoint: "Anchor-4" 235 702 basechar 0
AnchorPoint: "Anchor-3" 401 0 basechar 0
AnchorPoint: "Anchor-2" 232 0 basechar 0
LayerCount: 2
Fore
SplineSet
131 586 m 1xb680
 85 586 l 1
 92 655 125 694 184 694 c 0xb680
 238 694 248 657 290 657 c 0
 317 657 330 672 333 702 c 1
 385 702 l 1
 382 673 371 645 354 626 c 0
 336 605 314 593 287 593 c 0xba40
 241 593 214 631 178 631 c 0
 153 631 134 611 131 586 c 1xb680
235 515 m 0
 369 515 401 460 401 325 c 2
 401 0 l 1x7680
 337 0 l 1x7620
 329 67 l 1
 303 27 274 -10 196 -10 c 0
 109 -10 55 50 55 141 c 0xb620
 55 241 116 313 253 313 c 2
 325 313 l 1
 325 361 l 2
 325 433 292 460 233 460 c 0
 182 460 152 441 144 385 c 1
 68 385 l 1xb580
 68 472 119 515 235 515 c 0
218 52 m 0
 258 52 300 88 325 130 c 1
 325 258 l 1
 257 258 l 2
 166 258 131 212 131 142 c 0
 131 84 174 52 218 52 c 0
EndSplineSet
EndChar

StartChar: ae
Encoding: 230 230 123
Width: 731
VWidth: 1220
GlyphClass: 1
Flags: MW
HStem: -10 55<468 533 468 557> -10 62<196 238 196 244> 248 55<253 257 257 325> 249 55<401 610 401 686 401 610> 460 55<204.5 262.5 472.5 538>
VStem: 55 76<113 174 113 188> 66 76<361 361> 325 76<146 191 191 248 248 248 304 310> 608 76<155 155> 610 76<304 310 249 355>
LayerCount: 2
Fore
SplineSet
503 515 m 0x9d40
 623 515 686 440 686 310 c 2
 686 249 l 1
 401 249 l 1x9d40
 401 191 l 2
 401 101 433 45 503 45 c 0
 563 45 599 86 608 155 c 1
 684 155 l 1
 673 49 611 -10 503 -10 c 0
 428 -10 378 22 354 81 c 1
 323 35 292 -10 196 -10 c 0
 109 -10 55 50 55 141 c 0xad80
 55 235 126 303 253 303 c 2
 325 303 l 1
 325 338 l 2
 325 430 292 460 233 460 c 0
 176 460 144 436 142 361 c 1
 66 361 l 1xab40
 68 464 131 515 235 515 c 0
 308 515 349 496 370 453 c 1
 398 493 442 515 503 515 c 0x9d40
401 310 m 2
 401 304 l 1
 610 304 l 1
 610 310 l 2
 610 400 573 460 503 460 c 0
 433 460 401 400 401 310 c 2
218 52 m 0x6d40
 258 52 300 88 325 130 c 1
 325 248 l 1
 257 248 l 2
 176 248 131 206 131 142 c 0
 131 84 174 52 218 52 c 0x6d40
EndSplineSet
EndChar

StartChar: b
Encoding: 98 98 124
Width: 461
VWidth: 1200
GlyphClass: 2
Flags: MW
HStem: -10 55<230 271.5 212.5 306.5> 0 21G<65 129 65 65> 460 55<232 271.5> 707 20G<65 141 141 141>
VStem: 65 67.5 65 76<151 351 453 727> 340 76<231 232 232 270 148.5 331>
AnchorPoint: "Anchor-4" 230 505 basechar 0
AnchorPoint: "Anchor-2" 230 0 basechar 0
LayerCount: 2
Fore
SplineSet
258 515 m 0xb6
 355 515 416 437 416 270 c 2
 416 232 l 2
 416 65 355 -10 258 -10 c 0
 202 -10 162 18 136 58 c 1xba
 129 0 l 1x7a
 65 0 l 1x76
 65 727 l 1
 141 727 l 1
 141 453 l 1
 167 490 206 515 258 515 c 0xb6
340 231 m 2
 340 270 l 2
 340 392 305 460 238 460 c 0
 187 460 156 409 141 351 c 1
 141 151 l 1
 156 94 187 45 238 45 c 0
 305 45 340 109 340 231 c 2
EndSplineSet
EndChar

StartChar: c
Encoding: 99 99 125
Width: 439
VWidth: 1200
GlyphClass: 2
Flags: MW
HStem: -10 55<185 250 185 274> 460 55<188 252.5>
VStem: 45 76<192 310> 308 76<350 350> 318 76<154 154>
AnchorPoint: "Anchor-4" 223 505 basechar 0
AnchorPoint: "Anchor-2" 223 0 basechar 0
LayerCount: 2
Fore
SplineSet
318 154 m 1xe8
 394 154 l 1xe8
 384 48 328 -10 220 -10 c 0
 100 -10 45 62 45 192 c 2
 45 310 l 2
 45 440 103 515 223 515 c 0
 330 515 374 455 384 350 c 1
 308 350 l 1xf0
 300 418 282 460 223 460 c 0
 153 460 121 400 121 310 c 2
 121 191 l 2
 121 101 150 45 220 45 c 0
 280 45 311 86 318 154 c 1xe8
EndSplineSet
EndChar

StartChar: cacute
Encoding: 263 263 126
Width: 439
VWidth: 1220
GlyphClass: 2
Flags: MW
HStem: -10 55<185 250 185 274> 460 55<188 252.5> 586 141<189 377 189 377>
VStem: 45 76<192 310> 308 76<350 350> 318 76<154 154>
AnchorPoint: "Anchor-4" 223 727 basechar 0
AnchorPoint: "Anchor-2" 223 0 basechar 0
LayerCount: 2
Fore
SplineSet
256 586 m 1xf8
 189 586 l 1
 278 727 l 1
 377 727 l 1
 256 586 l 1xf8
318 154 m 1xf4
 394 154 l 1xf4
 384 48 328 -10 220 -10 c 0
 100 -10 45 62 45 192 c 2
 45 310 l 2
 45 440 103 515 223 515 c 0
 330 515 374 455 384 350 c 1
 308 350 l 1xf8
 300 418 282 460 223 460 c 0
 153 460 121 400 121 310 c 2
 121 191 l 2
 121 101 150 45 220 45 c 0
 280 45 311 86 318 154 c 1xf4
EndSplineSet
EndChar

StartChar: ccaron
Encoding: 269 269 127
Width: 439
VWidth: 1220
GlyphClass: 2
Flags: MW
HStem: -10 55<185 250 185 274> 460 55<188 252.5> 586 141<92 264 92 182>
VStem: 45 76<192 310> 308 76<350 350> 318 76<154 154>
AnchorPoint: "Anchor-4" 223 727 basechar 0
AnchorPoint: "Anchor-2" 223 0 basechar 0
LayerCount: 2
Fore
SplineSet
167 727 m 1xf4
 223 633 l 1
 279 727 l 1
 354 727 l 1
 264 586 l 1
 182 586 l 1
 92 727 l 1
 167 727 l 1xf4
318 154 m 1
 394 154 l 1xf4
 384 48 328 -10 220 -10 c 0
 100 -10 45 62 45 192 c 2
 45 310 l 2
 45 440 103 515 223 515 c 0
 330 515 374 455 384 350 c 1
 308 350 l 1xf8
 300 418 282 460 223 460 c 0
 153 460 121 400 121 310 c 2
 121 191 l 2
 121 101 150 45 220 45 c 0
 280 45 311 86 318 154 c 1
EndSplineSet
EndChar

StartChar: ccedilla
Encoding: 231 231 128
Width: 439
VWidth: 1220
GlyphClass: 2
Flags: MW
HStem: -227 45<202.5 234.5 202.5 245.5> -76 41<235 235 235 238> -8 21G<189 189> -8 53<189 189> 460 55<188 252.5>
VStem: 45 76<192 310> 274 55<-139 -109> 308 76<350 350> 318 76<154 154>
AnchorPoint: "Anchor-4" 223 505 basechar 0
AnchorPoint: "Anchor-2" 212 -225 basechar 0
LayerCount: 2
Fore
SplineSet
318 154 m 1xac80
 394 154 l 1xac80
 385 58 338 1 248 -9 c 1
 235 -35 l 1
 284 -36 329 -65 329 -130 c 0
 329 -193 274 -227 217 -227 c 0
 181 -227 144 -214 120 -185 c 1
 151 -155 l 1
 164 -171 190 -182 215 -182 c 0
 254 -182 274 -153 274 -125 c 0
 274 -93 251 -76 225 -76 c 0
 215 -76 204 -79 195 -85 c 1
 161 -65 l 1xee
 189 -8 l 1
 91 3 45 74 45 192 c 2
 45 310 l 2
 45 440 103 515 223 515 c 0
 330 515 374 455 384 350 c 1
 308 350 l 1xad
 300 418 282 460 223 460 c 0
 153 460 121 400 121 310 c 2
 121 191 l 2
 121 101 150 45 220 45 c 0x9c80
 280 45 311 86 318 154 c 1xac80
EndSplineSet
EndChar

StartChar: cdotaccent
Encoding: 267 267 129
Width: 439
VWidth: 1220
GlyphClass: 2
Flags: MW
HStem: -10 55<185 250 185 274> 460 55<188 252.5> 591 83<183 263 183 263>
VStem: 45 76<192 310> 183 80<591 674> 308 76<350 350> 318 76<154 154>
AnchorPoint: "Anchor-4" 223 674 basechar 0
AnchorPoint: "Anchor-2" 223 0 basechar 0
LayerCount: 2
Fore
SplineSet
263 591 m 1xfc
 183 591 l 1
 183 674 l 1
 263 674 l 1
 263 591 l 1xfc
318 154 m 1xfa
 394 154 l 1xfa
 384 48 328 -10 220 -10 c 0
 100 -10 45 62 45 192 c 2
 45 310 l 2
 45 440 103 515 223 515 c 0
 330 515 374 455 384 350 c 1
 308 350 l 1xfc
 300 418 282 460 223 460 c 0
 153 460 121 400 121 310 c 2
 121 191 l 2
 121 101 150 45 220 45 c 0
 280 45 311 86 318 154 c 1xfa
EndSplineSet
EndChar

StartChar: d
Encoding: 100 100 130
Width: 461
VWidth: 1200
GlyphClass: 2
Flags: MW
HStem: -10 55<189.5 231.5> 0 21G<335 396 335 335> 460 55<189.5 229 154.5 248.5> 707 20G<320 396 396 396>
VStem: 45 76<232 270 170 353.5> 320 76<151 351 351 351 453 727 0 727> 330.5 65.5
AnchorPoint: "Anchor-5" 424 505 basechar 0
AnchorPoint: "Anchor-4" 212 505 basechar 0
AnchorPoint: "Anchor-2" 212 0 basechar 0
LayerCount: 2
Fore
SplineSet
320 453 m 1xbc
 320 727 l 1
 396 727 l 1
 396 0 l 1x7c
 335 0 l 1x7a
 326 59 l 1xba
 300 18 260 -10 203 -10 c 0
 106 -10 45 65 45 232 c 2
 45 270 l 2
 45 437 106 515 203 515 c 0
 255 515 294 490 320 453 c 1xbc
223 45 m 0xbc
 274 45 305 94 320 151 c 1
 320 351 l 1
 305 409 274 460 223 460 c 0
 156 460 121 392 121 270 c 2
 121 231 l 2
 121 109 156 45 223 45 c 0xbc
EndSplineSet
EndChar

StartChar: eth
Encoding: 240 240 131
Width: 457
VWidth: 1220
GlyphClass: 1
Flags: MW
HStem: -10 55<183 253 183 278> 460 55<188 220 148 258>
VStem: 45 76<192 300> 320 76<191 192 192 300 300 309>
LayerCount: 2
Fore
SplineSet
121 576 m 1
 121 642 l 1
 211 688 l 1
 178 710 140 722 97 727 c 1
 122 767 l 1
 183 758 231 742 268 718 c 1
 412 792 l 1
 412 726 l 1
 316 677 l 1
 382 601 396 481 396 309 c 2
 396 192 l 2
 396 62 338 -10 218 -10 c 0
 98 -10 45 62 45 192 c 2
 45 310 l 2
 45 440 103 515 193 515 c 0
 247 515 291 496 320 455 c 1
 317 539 295 602 258 647 c 1
 121 576 l 1
121 300 m 2
 121 191 l 2
 121 101 148 45 218 45 c 0
 288 45 320 101 320 191 c 2
 320 300 l 2
 320 390 293 460 223 460 c 0
 153 460 121 390 121 300 c 2
EndSplineSet
EndChar

StartChar: dcaron
Encoding: 271 271 132
Width: 571
VWidth: 1220
GlyphClass: 2
Flags: MW
HStem: -10 55<189.5 231.5> 0 21G<335 396 335 335> 460 55<189.5 229 154.5 248.5> 561 166<320 444 481 497>
VStem: 45 76<232 270 170 353.5> 320 76<151 351 351 351 453 727 0 727> 330.5 65.5
AnchorPoint: "Anchor-5" 424 505 basechar 0
AnchorPoint: "Anchor-4" 212 505 basechar 0
AnchorPoint: "Anchor-2" 212 0 basechar 0
LayerCount: 2
Fore
SplineSet
320 453 m 1xbc
 320 727 l 1
 396 727 l 1
 396 0 l 1x7c
 335 0 l 1x7a
 326 59 l 1xba
 300 18 260 -10 203 -10 c 0
 106 -10 45 65 45 232 c 2
 45 270 l 2
 45 437 106 515 203 515 c 0
 255 515 294 490 320 453 c 1xbc
444 561 m 1
 481 727 l 1
 561 727 l 1
 497 561 l 1
 444 561 l 1
223 45 m 0xbc
 274 45 305 94 320 151 c 1
 320 351 l 1
 305 409 274 460 223 460 c 0
 156 460 121 392 121 270 c 2
 121 231 l 2
 121 109 156 45 223 45 c 0xbc
EndSplineSet
EndChar

StartChar: dcroat
Encoding: 273 273 133
Width: 461
VWidth: 1220
GlyphClass: 2
Flags: MW
HStem: -10 55<189.5 231.5> 0 21G<335 396 335 335> 460 55<189.5 229 154.5 248.5> 586 56<171 320 171 320 396 461> 586 141<171 396 320 461 320 396>
VStem: 45 76<232 270 170 353.5> 320 76<151 351 351 351 453 586 0 586 642 727> 330.5 65.5
AnchorPoint: "Anchor-5" 424 505 basechar 0
AnchorPoint: "Anchor-4" 212 505 basechar 0
AnchorPoint: "Anchor-2" 212 0 basechar 0
LayerCount: 2
Fore
SplineSet
396 642 m 1xb6
 461 642 l 1xb6
 461 586 l 1
 396 586 l 1
 396 0 l 1x6e
 335 0 l 1x6d
 326 59 l 1xad
 300 18 260 -10 203 -10 c 0
 106 -10 45 65 45 232 c 2
 45 270 l 2
 45 437 106 515 203 515 c 0
 255 515 294 490 320 453 c 1
 320 586 l 1
 171 586 l 1xae
 171 642 l 1
 320 642 l 1xb6
 320 727 l 1
 396 727 l 1xae
 396 642 l 1xb6
223 45 m 0
 274 45 305 94 320 151 c 1
 320 351 l 1
 305 409 274 460 223 460 c 0
 156 460 121 392 121 270 c 2
 121 231 l 2
 121 109 156 45 223 45 c 0
EndSplineSet
EndChar

StartChar: e
Encoding: 101 101 134
Width: 451
VWidth: 1200
GlyphClass: 2
Flags: MW
HStem: -10 55<188 253 188 277> 229 55<121 330 121 406 121 330> 460 55<188 258>
VStem: 45 76<192 229 284 310> 328 76<155 155> 330 76<284 310 229 355>
AnchorPoint: "Anchor-4" 223 505 basechar 0
AnchorPoint: "Anchor-3" 292 0 basechar 0
AnchorPoint: "Anchor-2" 223 0 basechar 0
LayerCount: 2
Fore
SplineSet
223 515 m 0xf4
 343 515 406 440 406 310 c 2
 406 229 l 1xf4
 121 229 l 1
 121 191 l 2
 121 101 153 45 223 45 c 0
 283 45 319 86 328 155 c 1
 404 155 l 1xf8
 393 49 331 -10 223 -10 c 0
 103 -10 45 62 45 192 c 2
 45 310 l 2
 45 440 103 515 223 515 c 0xf4
121 310 m 2
 121 284 l 1
 330 284 l 1
 330 310 l 2
 330 400 293 460 223 460 c 0
 153 460 121 400 121 310 c 2
EndSplineSet
EndChar

StartChar: eacute
Encoding: 233 233 135
Width: 451
VWidth: 1220
GlyphClass: 2
Flags: MW
HStem: -10 55<188 253 188 277> 229 55<121 330 121 406 121 330> 460 55<188 258> 586 141<189 377 189 377>
VStem: 45 76<192 229 284 310> 328 76<155 155> 330 76<284 310 229 355>
AnchorPoint: "Anchor-4" 223 727 basechar 0
AnchorPoint: "Anchor-3" 292 0 basechar 0
AnchorPoint: "Anchor-2" 223 0 basechar 0
LayerCount: 2
Fore
SplineSet
278 727 m 1xfa
 377 727 l 1
 256 586 l 1
 189 586 l 1
 278 727 l 1xfa
223 515 m 0
 343 515 406 440 406 310 c 2
 406 229 l 1xfa
 121 229 l 1
 121 191 l 2
 121 101 153 45 223 45 c 0
 283 45 319 86 328 155 c 1
 404 155 l 1xfc
 393 49 331 -10 223 -10 c 0
 103 -10 45 62 45 192 c 2
 45 310 l 2
 45 440 103 515 223 515 c 0
121 310 m 2
 121 284 l 1
 330 284 l 1
 330 310 l 2
 330 400 293 460 223 460 c 0
 153 460 121 400 121 310 c 2
EndSplineSet
EndChar

StartChar: ecaron
Encoding: 283 283 136
Width: 451
VWidth: 1220
GlyphClass: 2
Flags: MW
HStem: -10 55<188 253 188 277> 229 55<121 330 121 406 121 330> 460 55<188 258> 586 141<92 264 92 182>
VStem: 45 76<192 229 284 310> 328 76<155 155> 330 76<284 310 229 355>
AnchorPoint: "Anchor-4" 223 727 basechar 0
AnchorPoint: "Anchor-3" 292 0 basechar 0
AnchorPoint: "Anchor-2" 223 0 basechar 0
LayerCount: 2
Fore
SplineSet
92 727 m 1xfa
 167 727 l 1
 223 633 l 1
 279 727 l 1
 354 727 l 1
 264 586 l 1
 182 586 l 1
 92 727 l 1xfa
223 515 m 0
 343 515 406 440 406 310 c 2
 406 229 l 1xfa
 121 229 l 1
 121 191 l 2
 121 101 153 45 223 45 c 0
 283 45 319 86 328 155 c 1
 404 155 l 1xfc
 393 49 331 -10 223 -10 c 0
 103 -10 45 62 45 192 c 2
 45 310 l 2
 45 440 103 515 223 515 c 0
121 310 m 2
 121 284 l 1
 330 284 l 1
 330 310 l 2
 330 400 293 460 223 460 c 0
 153 460 121 400 121 310 c 2
EndSplineSet
EndChar

StartChar: ecircumflex
Encoding: 234 234 137
Width: 451
VWidth: 1220
GlyphClass: 2
Flags: MW
HStem: -10 55<188 253 188 277> 229 55<121 330 121 406 121 330> 460 55<188 258> 586 141<92 264 92 264 182 279 182 354> 680 47<223 223>
VStem: 45 76<192 229 284 310> 328 76<155 155> 330 76<284 310 229 355>
AnchorPoint: "Anchor-4" 223 727 basechar 0
AnchorPoint: "Anchor-3" 292 0 basechar 0
AnchorPoint: "Anchor-2" 223 0 basechar 0
LayerCount: 2
Fore
SplineSet
167 586 m 1xf5
 92 586 l 1
 182 727 l 1
 264 727 l 1
 354 586 l 1
 279 586 l 1xf5
 223 680 l 1xed
 167 586 l 1xf5
223 515 m 0
 343 515 406 440 406 310 c 2
 406 229 l 1xf5
 121 229 l 1
 121 191 l 2
 121 101 153 45 223 45 c 0
 283 45 319 86 328 155 c 1
 404 155 l 1xf6
 393 49 331 -10 223 -10 c 0
 103 -10 45 62 45 192 c 2
 45 310 l 2
 45 440 103 515 223 515 c 0
121 310 m 2
 121 284 l 1
 330 284 l 1
 330 310 l 2
 330 400 293 460 223 460 c 0
 153 460 121 400 121 310 c 2
EndSplineSet
EndChar

StartChar: edieresis
Encoding: 235 235 138
Width: 451
VWidth: 1220
GlyphClass: 2
Flags: MW
HStem: -10 55<188 253 188 277> 229 55<121 330 121 406 121 330> 460 55<188 258> 611 83
VStem: 45 76<192 229 284 310> 82 80 93 80<591 674> 273 80<591 674> 328 76<155 155> 330 76<284 310 229 355>
AnchorPoint: "Anchor-4" 223 674 basechar 0
AnchorPoint: "Anchor-3" 292 0 basechar 0
AnchorPoint: "Anchor-2" 223 0 basechar 0
LayerCount: 2
Fore
SplineSet
173 591 m 1xf240
 93 591 l 1
 93 674 l 1
 173 674 l 1
 173 591 l 1xf240
353 591 m 1xf5
 273 591 l 1
 273 674 l 1
 353 674 l 1
 353 591 l 1xf5
223 515 m 0
 343 515 406 440 406 310 c 2
 406 229 l 1
 121 229 l 1
 121 191 l 2xf840
 121 101 153 45 223 45 c 0
 283 45 319 86 328 155 c 1
 404 155 l 1xf480
 393 49 331 -10 223 -10 c 0
 103 -10 45 62 45 192 c 2
 45 310 l 2xf840
 45 440 103 515 223 515 c 0
121 310 m 2
 121 284 l 1
 330 284 l 1
 330 310 l 2
 330 400 293 460 223 460 c 0
 153 460 121 400 121 310 c 2
EndSplineSet
EndChar

StartChar: edotaccent
Encoding: 279 279 139
Width: 451
VWidth: 1220
GlyphClass: 2
Flags: MW
HStem: -10 55<188 253 188 277> 229 55<121 330 121 406 121 330> 460 55<188 258> 591 83<183 263 183 263>
VStem: 45 76<192 229 284 310> 183 80<591 674> 328 76<155 155> 330 76<284 310 229 355>
AnchorPoint: "Anchor-4" 223 674 basechar 0
AnchorPoint: "Anchor-3" 292 0 basechar 0
AnchorPoint: "Anchor-2" 223 0 basechar 0
LayerCount: 2
Fore
SplineSet
263 591 m 1xfd
 183 591 l 1
 183 674 l 1
 263 674 l 1
 263 591 l 1xfd
223 515 m 0
 343 515 406 440 406 310 c 2
 406 229 l 1xfd
 121 229 l 1
 121 191 l 2
 121 101 153 45 223 45 c 0
 283 45 319 86 328 155 c 1
 404 155 l 1xfe
 393 49 331 -10 223 -10 c 0
 103 -10 45 62 45 192 c 2
 45 310 l 2
 45 440 103 515 223 515 c 0
121 310 m 2
 121 284 l 1
 330 284 l 1
 330 310 l 2
 330 400 293 460 223 460 c 0
 153 460 121 400 121 310 c 2
EndSplineSet
EndChar

StartChar: egrave
Encoding: 232 232 140
Width: 451
VWidth: 1220
GlyphClass: 2
Flags: MW
HStem: -10 55<188 253 188 277> 229 55<121 330 121 406 121 330> 460 55<188 258> 586 141<69 257 69 190>
VStem: 45 76<192 229 284 310> 328 76<155 155> 330 76<284 310 229 355>
AnchorPoint: "Anchor-4" 223 727 basechar 0
AnchorPoint: "Anchor-3" 292 0 basechar 0
AnchorPoint: "Anchor-2" 223 0 basechar 0
LayerCount: 2
Fore
SplineSet
257 586 m 1xfa
 190 586 l 1
 69 727 l 1
 168 727 l 1
 257 586 l 1xfa
223 515 m 0
 343 515 406 440 406 310 c 2
 406 229 l 1xfa
 121 229 l 1
 121 191 l 2
 121 101 153 45 223 45 c 0
 283 45 319 86 328 155 c 1
 404 155 l 1xfc
 393 49 331 -10 223 -10 c 0
 103 -10 45 62 45 192 c 2
 45 310 l 2
 45 440 103 515 223 515 c 0
121 310 m 2
 121 284 l 1
 330 284 l 1
 330 310 l 2
 330 400 293 460 223 460 c 0
 153 460 121 400 121 310 c 2
EndSplineSet
EndChar

StartChar: emacron
Encoding: 275 275 141
Width: 451
VWidth: 1220
GlyphClass: 2
Flags: MW
HStem: -10 55<188 253 188 277> 229 55<121 330 121 406 121 330> 460 55<188 258> 608 61
VStem: 45 76<192 229 284 310> 109 207 120 207 328 76<155 155> 330 76<284 310 229 355>
AnchorPoint: "Anchor-4" 223 647 basechar 0
AnchorPoint: "Anchor-3" 292 0 basechar 0
AnchorPoint: "Anchor-2" 223 0 basechar 0
LayerCount: 2
Fore
SplineSet
327 586 m 1xf280
 119 586 l 1
 119 647 l 1
 327 647 l 1
 327 586 l 1xf280
223 515 m 0
 343 515 406 440 406 310 c 2
 406 229 l 1
 121 229 l 1
 121 191 l 2xf880
 121 101 153 45 223 45 c 0
 283 45 319 86 328 155 c 1
 404 155 l 1xf5
 393 49 331 -10 223 -10 c 0
 103 -10 45 62 45 192 c 2
 45 310 l 2xf880
 45 440 103 515 223 515 c 0
121 310 m 2
 121 284 l 1
 330 284 l 1
 330 310 l 2
 330 400 293 460 223 460 c 0
 153 460 121 400 121 310 c 2
EndSplineSet
EndChar

StartChar: eogonek
Encoding: 281 281 142
Width: 451
VWidth: 1220
GlyphClass: 2
Flags: MW
HStem: -188 59<284.5 291.5> -10 55 229 55<121 330 121 406 121 330> 460 55<188 258>
VStem: 45 76<192 229 284 310> 174 63<-96.5 -77> 328 76<155 155> 330 76<284 310 229 355>
AnchorPoint: "Anchor-4" 223 505 basechar 0
AnchorPoint: "Anchor-3" 292 0 basechar 0
AnchorPoint: "Anchor-2" 223 0 basechar 0
LayerCount: 2
Fore
SplineSet
406 310 m 2xfd
 406 229 l 1xfd
 121 229 l 1
 121 191 l 2
 121 101 153 45 223 45 c 0
 283 45 319 86 328 155 c 1
 404 155 l 1xfe
 396 74 357 20 292 0 c 1
 255 -28 237 -54 237 -80 c 0
 237 -113 269 -129 300 -129 c 0
 309 -129 318 -128 326 -125 c 1
 326 -185 l 1
 312 -187 298 -188 285 -188 c 0
 220 -188 174 -161 174 -94 c 0
 174 -60 186 -36 215 -10 c 1
 100 -7 45 65 45 192 c 2
 45 310 l 2
 45 440 103 515 223 515 c 0
 343 515 406 440 406 310 c 2xfd
121 310 m 2
 121 284 l 1
 330 284 l 1
 330 310 l 2
 330 400 293 460 223 460 c 0
 153 460 121 400 121 310 c 2
EndSplineSet
EndChar

StartChar: f
Encoding: 102 102 143
Width: 319
VWidth: 1200
GlyphClass: 1
Flags: MW
HStem: 0 21G<111 187 111 111> 450 55<30 111 30 111 187 283> 672 65<227.5 228.5 183.5 256.5> 707 20G<289 289>
VStem: 111 76<0 450 505 594>
LayerCount: 2
Fore
SplineSet
187 0 m 1xe8
 111 0 l 1
 111 450 l 1
 30 450 l 1
 30 505 l 1
 111 505 l 1
 111 594 l 2
 111 689 149 737 218 737 c 0xe8
 239 737 263 734 289 727 c 1xd8
 289 668 l 1
 275 670 262 672 251 672 c 0
 204 672 187 658 187 594 c 2
 187 505 l 1
 283 505 l 1
 283 450 l 1
 187 450 l 1
 187 0 l 1xe8
EndSplineSet
EndChar

StartChar: g
Encoding: 103 103 144
Width: 461
VWidth: 1200
GlyphClass: 2
Flags: MW
HStem: -211 55<202.5 257.5 202.5 297> -10 55<189.5 229> 460 55<189.5 231 154.5 248.5> 485 20G<335 396 396 396>
VStem: 45 76<232 270 170 353.5> 63 76<-124.5 -81> 320 76<-57 -21 -21 50 50 50 151 351 351 351> 330.5 65.5
AnchorPoint: "Anchor-4" 229 505 basechar 0
AnchorPoint: "Anchor-2" 229 0 basechar 0
LayerCount: 2
Fore
SplineSet
326 444 m 1xe9
 335 505 l 1xd9
 396 505 l 1
 396 -21 l 2
 396 -156 364 -211 230 -211 c 0
 114 -211 63 -168 63 -81 c 1
 139 -81 l 1
 147 -137 177 -156 228 -156 c 0
 287 -156 320 -129 320 -57 c 2
 320 50 l 1xd6
 294 14 255 -10 203 -10 c 0
 106 -10 45 65 45 232 c 2
 45 270 l 2
 45 437 106 515 203 515 c 0
 259 515 300 486 326 444 c 1xe9
223 45 m 0
 274 45 305 94 320 151 c 1
 320 351 l 1
 305 409 274 460 223 460 c 0xea
 156 460 121 392 121 270 c 2
 121 231 l 2
 121 109 156 45 223 45 c 0
EndSplineSet
EndChar

StartChar: gbreve
Encoding: 287 287 145
Width: 461
VWidth: 1220
GlyphClass: 2
Flags: MW
HStem: -211 55<202.5 257.5 202.5 297> -10 55<189.5 229> 460 55<189.5 231 154.5 248.5> 485 20G<335 396 396 396> 586 52<214 244 214 269.5>
VStem: 45 76<232 270 170 353.5> 63 76<-124.5 -81> 114 70<704 704> 275 68<704 704> 320 76<-57 -21 -21 50 50 50 151 351 351 351> 331 66
AnchorPoint: "Anchor-4" 229 704 basechar 0
AnchorPoint: "Anchor-2" 229 0 basechar 0
LayerCount: 2
Fore
SplineSet
275 704 m 1xd980
 343 704 l 1
 337 608 310 586 229 586 c 0
 149 586 121 610 114 704 c 1
 184 704 l 1
 188 652 200 638 228 638 c 0
 260 638 271 649 275 704 c 1xd980
326 444 m 1
 335 505 l 1xda20
 396 505 l 1
 396 -21 l 2
 396 -156 364 -211 230 -211 c 0
 114 -211 63 -168 63 -81 c 1
 139 -81 l 1xea20
 147 -137 177 -156 228 -156 c 0
 287 -156 320 -129 320 -57 c 2
 320 50 l 1xe940
 294 14 255 -10 203 -10 c 0
 106 -10 45 65 45 232 c 2
 45 270 l 2xec20
 45 437 106 515 203 515 c 0xe980
 259 515 300 486 326 444 c 1
223 45 m 0
 274 45 305 94 320 151 c 1
 320 351 l 1xe940
 305 409 274 460 223 460 c 0xec20
 156 460 121 392 121 270 c 2
 121 231 l 2xdc20
 121 109 156 45 223 45 c 0
EndSplineSet
EndChar

StartChar: uni0123
Encoding: 291 291 146
Width: 461
VWidth: 1220
GlyphClass: 2
Flags: MW
HStem: -211 55<202.5 257.5 202.5 297> -10 55<189.5 229> 460 55<189.5 231 154.5 248.5> 485 20G<335 396 396 396> 561 166<253 269 189 306>
VStem: 45 76<232 270 170 353.5> 63 76<-124.5 -81> 320 76<-57 -21 -21 50 50 50 151 351 351 351> 330.5 65.5
AnchorPoint: "Anchor-4" 248 727 basechar 0
AnchorPoint: "Anchor-2" 229 0 basechar 0
LayerCount: 2
Fore
SplineSet
253 727 m 1xed
 306 727 l 1
 269 561 l 1
 189 561 l 1
 253 727 l 1xed
326 444 m 1xec80
 335 505 l 1xdc80
 396 505 l 1
 396 -21 l 2
 396 -156 364 -211 230 -211 c 0
 114 -211 63 -168 63 -81 c 1
 139 -81 l 1
 147 -137 177 -156 228 -156 c 0
 287 -156 320 -129 320 -57 c 2
 320 50 l 1xdb
 294 14 255 -10 203 -10 c 0
 106 -10 45 65 45 232 c 2
 45 270 l 2
 45 437 106 515 203 515 c 0
 259 515 300 486 326 444 c 1xec80
223 45 m 0
 274 45 305 94 320 151 c 1
 320 351 l 1
 305 409 274 460 223 460 c 0xed
 156 460 121 392 121 270 c 2
 121 231 l 2
 121 109 156 45 223 45 c 0
EndSplineSet
EndChar

StartChar: gdotaccent
Encoding: 289 289 147
Width: 461
VWidth: 1220
GlyphClass: 2
Flags: MW
HStem: -211 55<202.5 257.5 202.5 297> -10 55<189.5 229> 460 55<189.5 231 154.5 248.5> 485 20G<335 396 396 396> 591 83<189 269 189 269>
VStem: 45 76<232 270 170 353.5> 63 76<-124.5 -81> 189 80<591 674> 320 76<-57 -21 -21 50 50 50 151 351 351 351> 330.5 65.5
AnchorPoint: "Anchor-4" 229 674 basechar 0
AnchorPoint: "Anchor-2" 229 0 basechar 0
LayerCount: 2
Fore
SplineSet
269 591 m 1xed80
 189 591 l 1
 189 674 l 1
 269 674 l 1
 269 591 l 1xed80
326 444 m 1xed40
 335 505 l 1xdd40
 396 505 l 1
 396 -21 l 2
 396 -156 364 -211 230 -211 c 0
 114 -211 63 -168 63 -81 c 1
 139 -81 l 1
 147 -137 177 -156 228 -156 c 0
 287 -156 320 -129 320 -57 c 2
 320 50 l 1xdb80
 294 14 255 -10 203 -10 c 0
 106 -10 45 65 45 232 c 2
 45 270 l 2
 45 437 106 515 203 515 c 0
 259 515 300 486 326 444 c 1xed40
223 45 m 0
 274 45 305 94 320 151 c 1
 320 351 l 1
 305 409 274 460 223 460 c 0xed80
 156 460 121 392 121 270 c 2
 121 231 l 2
 121 109 156 45 223 45 c 0
EndSplineSet
EndChar

StartChar: h
Encoding: 104 104 148
Width: 471
VWidth: 1200
GlyphClass: 2
Flags: MW
HStem: 0 21G<65 141 65 65 335 411 335 335> 460 55<232 271.5> 707 20G<65 141 141 141>
VStem: 65 76<0 352 454 727> 335 76<0 323 0 324 0 371>
AnchorPoint: "Anchor-4" 237 505 basechar 0
AnchorPoint: "Anchor-2" 237 0 basechar 0
LayerCount: 2
Fore
SplineSet
258 515 m 0
 355 515 411 472 411 323 c 2
 411 0 l 1
 335 0 l 1
 335 324 l 2
 335 418 305 460 238 460 c 0
 187 460 156 410 141 352 c 1
 141 0 l 1
 65 0 l 1
 65 727 l 1
 141 727 l 1
 141 454 l 1
 167 490 206 515 258 515 c 0
EndSplineSet
EndChar

StartChar: hbar
Encoding: 295 295 149
Width: 471
VWidth: 1220
GlyphClass: 2
Flags: MW
HStem: 0 21G<65 141 65 65 335 411 335 335> 460 55<232 271.5> 586 56<0 65 0 65 141 292> 586 141<0 141 0 141 65 141 65 292>
VStem: 65 76<0 352 454 586 642 727> 335 76<0 323 0 324 0 371>
AnchorPoint: "Anchor-4" 237 505 basechar 0
AnchorPoint: "Anchor-2" 237 0 basechar 0
LayerCount: 2
Fore
SplineSet
258 515 m 0xdc
 355 515 411 472 411 323 c 2
 411 0 l 1
 335 0 l 1
 335 324 l 2
 335 418 305 460 238 460 c 0
 187 460 156 410 141 352 c 1
 141 0 l 1
 65 0 l 1
 65 586 l 1
 0 586 l 1xdc
 0 642 l 1
 65 642 l 1xec
 65 727 l 1
 141 727 l 1xdc
 141 642 l 1
 292 642 l 1xec
 292 586 l 1
 141 586 l 1
 141 454 l 1
 167 490 206 515 258 515 c 0xdc
EndSplineSet
EndChar

StartChar: i
Encoding: 105 105 150
Width: 216
VWidth: 1200
GlyphClass: 2
Flags: MW
HStem: 0 21G<70 146 70 70> 485 20G<70 146 146 146> 645 82<65 151 65 151>
VStem: 65 86<645 727 645 727> 70 76<0 505>
AnchorPoint: "Anchor-2" 108 0 basechar 0
LayerCount: 2
Fore
SplineSet
151 645 m 1xf0
 65 645 l 1
 65 727 l 1
 151 727 l 1
 151 645 l 1xf0
146 0 m 1xe8
 70 0 l 1
 70 505 l 1
 146 505 l 1
 146 0 l 1xe8
EndSplineSet
Substitution2: "'locl' Localized Forms in Latin lookup 7 subtable" i.loclTRK
Substitution2: "'locl' Localized Forms in Latin lookup 6 subtable" i.loclTRK
Substitution2: "'locl' Localized Forms in Latin lookup 5 subtable" i.loclTRK
Substitution2: "'locl' Localized Forms in Latin lookup 4 subtable" i.loclTRK
Substitution2: "'locl' Localized Forms in Latin lookup 3 subtable" i.loclTRK
Substitution2: "'aalt' Access All Alternates in Latin lookup 0 subtable" i.loclTRK
EndChar

StartChar: dotlessi
Encoding: 305 305 151
Width: 216
VWidth: 1220
GlyphClass: 2
Flags: MW
HStem: 0 21G<70 146 70 70> 485 20G<70 146 146 146>
VStem: 70 76<0 505 0 505>
AnchorPoint: "Anchor-4" 108 505 basechar 0
AnchorPoint: "Anchor-3" 146 0 basechar 0
AnchorPoint: "Anchor-2" 108 0 basechar 0
LayerCount: 2
Fore
SplineSet
70 505 m 1
 146 505 l 1
 146 0 l 1
 70 0 l 1
 70 505 l 1
EndSplineSet
EndChar

StartChar: iacute
Encoding: 237 237 152
Width: 216
VWidth: 1220
GlyphClass: 2
Flags: MW
HStem: 0 21G<70 146 70 70> 485 20G<70 146 146 146> 586 141<74 262 74 262>
VStem: 70 76<0 505>
AnchorPoint: "Anchor-4" 108 727 basechar 0
AnchorPoint: "Anchor-3" 146 0 basechar 0
AnchorPoint: "Anchor-2" 108 0 basechar 0
LayerCount: 2
Fore
SplineSet
141 586 m 1
 74 586 l 1
 163 727 l 1
 262 727 l 1
 141 586 l 1
146 0 m 1
 70 0 l 1
 70 505 l 1
 146 505 l 1
 146 0 l 1
EndSplineSet
EndChar

StartChar: icircumflex
Encoding: 238 238 153
Width: 216
VWidth: 1220
GlyphClass: 2
Flags: MW
HStem: 0 21G<70 146 70 70> 485 20G<70 146 146 146> 586 141<-23 149 -23 149 67 164 67 239> 680 47<108 108>
VStem: 70 76<0 505>
AnchorPoint: "Anchor-4" 108 727 basechar 0
AnchorPoint: "Anchor-3" 146 0 basechar 0
AnchorPoint: "Anchor-2" 108 0 basechar 0
LayerCount: 2
Fore
SplineSet
52 586 m 1xe8
 -23 586 l 1
 67 727 l 1
 149 727 l 1
 239 586 l 1
 164 586 l 1xe8
 108 680 l 1xd8
 52 586 l 1xe8
146 0 m 1
 70 0 l 1
 70 505 l 1
 146 505 l 1
 146 0 l 1
EndSplineSet
EndChar

StartChar: idieresis
Encoding: 239 239 154
Width: 216
VWidth: 1220
GlyphClass: 2
Flags: MW
HStem: 0 21G<70 146 70 70> 485 20G<70 146 146 146> 611 83
VStem: -22 80<591 674> 70 76<0 505 0 505> 147 80 158 80<591 674>
AnchorPoint: "Anchor-4" 108 674 basechar 0
AnchorPoint: "Anchor-3" 146 0 basechar 0
AnchorPoint: "Anchor-2" 108 0 basechar 0
LayerCount: 2
Fore
SplineSet
58 591 m 1xfa
 -22 591 l 1
 -22 674 l 1
 58 674 l 1
 58 591 l 1xfa
238 591 m 1
 158 591 l 1
 158 674 l 1
 238 674 l 1
 238 591 l 1
146 505 m 1xfc
 146 0 l 1
 70 0 l 1
 70 505 l 1
 146 505 l 1xfc
EndSplineSet
EndChar

StartChar: i.loclTRK
Encoding: 65537 -1 155
Width: 216
VWidth: 1220
GlyphClass: 2
Flags: MW
HStem: 0 21G<70 146 70 70> 485 20G<70 146 146 146> 591 83<68 148 68 148>
VStem: 68 80<591 674> 70 76<0 505 0 505>
AnchorPoint: "Anchor-4" 108 674 basechar 0
AnchorPoint: "Anchor-3" 146 0 basechar 0
AnchorPoint: "Anchor-2" 108 0 basechar 0
LayerCount: 2
Fore
SplineSet
148 591 m 1xf0
 68 591 l 1
 68 674 l 1
 148 674 l 1
 148 591 l 1xf0
146 505 m 1xe8
 146 0 l 1
 70 0 l 1
 70 505 l 1
 146 505 l 1xe8
EndSplineSet
EndChar

StartChar: igrave
Encoding: 236 236 156
Width: 216
VWidth: 1220
GlyphClass: 2
Flags: MW
HStem: 0 21G<70 146 70 70> 485 20G<70 146 146 146> 586 141<-46 142 -46 75>
VStem: 70 76<0 505 0 505>
AnchorPoint: "Anchor-4" 108 727 basechar 0
AnchorPoint: "Anchor-3" 146 0 basechar 0
AnchorPoint: "Anchor-2" 108 0 basechar 0
LayerCount: 2
Fore
SplineSet
142 586 m 1
 75 586 l 1
 -46 727 l 1
 53 727 l 1
 142 586 l 1
146 505 m 1
 146 0 l 1
 70 0 l 1
 70 505 l 1
 146 505 l 1
EndSplineSet
EndChar

StartChar: imacron
Encoding: 299 299 157
Width: 216
VWidth: 1220
GlyphClass: 2
Flags: MW
HStem: 0 21G<70 146 70 70> 485 20G<70 146 146 146> 608 61
VStem: 5 207 70 76<0 505 0 505>
AnchorPoint: "Anchor-4" 108 647 basechar 0
AnchorPoint: "Anchor-3" 146 0 basechar 0
AnchorPoint: "Anchor-2" 108 0 basechar 0
LayerCount: 2
Fore
SplineSet
212 586 m 1xf0
 4 586 l 1
 4 647 l 1
 212 647 l 1
 212 586 l 1xf0
70 505 m 1xe8
 146 505 l 1
 146 0 l 1
 70 0 l 1
 70 505 l 1xe8
EndSplineSet
EndChar

StartChar: iogonek
Encoding: 303 303 158
Width: 216
VWidth: 1220
GlyphClass: 2
Flags: MW
HStem: -188 59<138.5 145.5> 0 21G<70 81 70 70 146 146> 485 20G<70 146 146 146> 591 83<68 148 68 148>
VStem: 28 63<-96.5 -75> 68 80<591 674 591 674> 70 76<0 505 0 505>
AnchorPoint: "Anchor-4" 108 674 basechar 0
AnchorPoint: "Anchor-3" 146 0 basechar 0
AnchorPoint: "Anchor-2" 108 0 basechar 0
LayerCount: 2
Fore
SplineSet
68 674 m 1xf4
 148 674 l 1
 148 591 l 1
 68 591 l 1
 68 674 l 1xf4
154 -129 m 0xf8
 163 -129 172 -128 180 -125 c 1
 180 -185 l 1
 166 -187 152 -188 139 -188 c 0
 74 -188 28 -161 28 -94 c 0xf8
 28 -56 43 -30 81 0 c 1
 70 0 l 1
 70 505 l 1
 146 505 l 1
 146 0 l 1xf2
 109 -28 91 -54 91 -80 c 0
 91 -113 123 -129 154 -129 c 0xf8
EndSplineSet
EndChar

StartChar: j
Encoding: 106 106 159
Width: 211
VWidth: 1200
GlyphClass: 1
Flags: MW
HStem: -200 65<23.5 24.5 -4.5 68.5> -190 21G<-37 -37> 485 20G<65 141 141 141> 645 82<60 146 60 146>
VStem: -37 178<-190 -57 -131 -57> 60 86<645 727 645 727> 65 76<-57 505>
LayerCount: 2
Fore
SplineSet
146 645 m 1xb4
 60 645 l 1
 60 727 l 1
 146 727 l 1
 146 645 l 1xb4
65 505 m 1xb2
 141 505 l 1
 141 -57 l 2xb2
 141 -152 103 -200 34 -200 c 0xb8
 13 -200 -11 -197 -37 -190 c 1x78
 -37 -131 l 1xb8
 -23 -133 -10 -135 1 -135 c 0
 48 -135 65 -121 65 -57 c 2
 65 505 l 1xb2
EndSplineSet
EndChar

StartChar: k
Encoding: 107 107 160
Width: 432
VWidth: 1200
GlyphClass: 2
Flags: MW
HStem: 0 21G<65 141 65 65 327 327 327 422> 485 20G<301 393 393 393> 707 20G<65 141 141 141>
VStem: 65 76<0 284 298 727>
AnchorPoint: "Anchor-4" 216 505 basechar 0
AnchorPoint: "Anchor-2" 239 0 basechar 0
LayerCount: 2
Fore
SplineSet
141 0 m 1
 65 0 l 1
 65 727 l 1
 141 727 l 1
 141 298 l 1
 301 505 l 1
 393 505 l 1
 231 285 l 1
 422 0 l 1
 327 0 l 1
 141 284 l 1
 141 0 l 1
EndSplineSet
EndChar

StartChar: uni0137
Encoding: 311 311 161
Width: 432
VWidth: 1220
GlyphClass: 2
Flags: MW
HStem: -231 166<199 215 162 279> 0 21G<65 141 65 65 327 327 327 422> 485 20G<301 393 393 393> 707 20G<65 141 141 141>
VStem: 65 76<0 284 298 727>
AnchorPoint: "Anchor-4" 216 505 basechar 0
AnchorPoint: "Anchor-2" 221 -231 basechar 0
LayerCount: 2
Fore
SplineSet
141 0 m 1
 65 0 l 1
 65 727 l 1
 141 727 l 1
 141 298 l 1
 301 505 l 1
 393 505 l 1
 231 285 l 1
 422 0 l 1
 327 0 l 1
 141 284 l 1
 141 0 l 1
279 -65 m 1
 215 -231 l 1
 162 -231 l 1
 199 -65 l 1
 279 -65 l 1
EndSplineSet
EndChar

StartChar: l
Encoding: 108 108 162
Width: 206
VWidth: 1200
GlyphClass: 2
Flags: MW
HStem: 0 21G<65 141 65 65> 707 20G<65 141 141 141>
VStem: 65 76<0 727>
AnchorPoint: "Anchor-5" 192 505 basechar 0
AnchorPoint: "Anchor-4" 103 727 basechar 0
AnchorPoint: "Anchor-2" 103 0 basechar 0
LayerCount: 2
Fore
SplineSet
141 0 m 1
 65 0 l 1
 65 727 l 1
 141 727 l 1
 141 0 l 1
EndSplineSet
EndChar

StartChar: lacute
Encoding: 314 314 163
Width: 206
VWidth: 1220
GlyphClass: 2
Flags: MW
HStem: 0 21G<65 141 65 65> 707 20G<65 141 141 141> 808 141<69 257 69 257>
VStem: 65 76<0 727>
AnchorPoint: "Anchor-5" 192 505 basechar 0
AnchorPoint: "Anchor-4" 103 949 basechar 0
AnchorPoint: "Anchor-2" 103 0 basechar 0
LayerCount: 2
Fore
SplineSet
136 808 m 1
 69 808 l 1
 158 949 l 1
 257 949 l 1
 136 808 l 1
141 0 m 1
 65 0 l 1
 65 727 l 1
 141 727 l 1
 141 0 l 1
EndSplineSet
EndChar

StartChar: lcaron
Encoding: 318 318 164
Width: 339
VWidth: 1220
GlyphClass: 2
Flags: MW
HStem: 0 21G<65 141 65 65> 561 166<249 265 65 212>
VStem: 65 76<0 727>
AnchorPoint: "Anchor-5" 192 505 basechar 0
AnchorPoint: "Anchor-4" 103 727 basechar 0
AnchorPoint: "Anchor-2" 103 0 basechar 0
LayerCount: 2
Fore
SplineSet
141 0 m 1
 65 0 l 1
 65 727 l 1
 141 727 l 1
 141 0 l 1
265 561 m 1
 212 561 l 1
 249 727 l 1
 329 727 l 1
 265 561 l 1
EndSplineSet
EndChar

StartChar: uni013C
Encoding: 316 316 165
Width: 206
VWidth: 1220
GlyphClass: 2
Flags: MW
HStem: -231 166<63 79 26 143> 0 21G<65 141 65 65> 707 20G<65 141 141 141>
VStem: 65 76<0 727>
AnchorPoint: "Anchor-5" 192 505 basechar 0
AnchorPoint: "Anchor-4" 103 727 basechar 0
AnchorPoint: "Anchor-2" 85 -231 basechar 0
LayerCount: 2
Fore
SplineSet
141 0 m 1
 65 0 l 1
 65 727 l 1
 141 727 l 1
 141 0 l 1
143 -65 m 1
 79 -231 l 1
 26 -231 l 1
 63 -65 l 1
 143 -65 l 1
EndSplineSet
EndChar

StartChar: lslash
Encoding: 322 322 166
Width: 206
VWidth: 1220
GlyphClass: 2
Flags: MW
HStem: 0 21G<65 141 65 65> 707 20G<65 141 141 141>
VStem: 65 76<0 292 292 292 405 727>
AnchorPoint: "Anchor-5" 192 505 basechar 0
AnchorPoint: "Anchor-4" 103 727 basechar 0
AnchorPoint: "Anchor-2" 103 0 basechar 0
LayerCount: 2
Fore
SplineSet
141 405 m 1
 206 446 l 1
 206 380 l 1
 141 339 l 1
 141 0 l 1
 65 0 l 1
 65 292 l 1
 0 251 l 1
 0 317 l 1
 65 358 l 1
 65 727 l 1
 141 727 l 1
 141 405 l 1
EndSplineSet
EndChar

StartChar: m
Encoding: 109 109 167
Width: 741
VWidth: 1200
GlyphClass: 1
Flags: MW
HStem: 0 21G<65 141 65 65 335 411 335 335 605 681 605 605> 460 55<229.5 273 496.5 543> 485 20G<65 126 126 126>
VStem: 65 65.5 65 76<0 354 0 505> 335 76<0 324 0 325 0 372> 605 76<0 324 0 325 0 372>
LayerCount: 2
Fore
SplineSet
528 515 m 0xce
 625 515 681 473 681 324 c 2
 681 0 l 1
 605 0 l 1
 605 325 l 2
 605 419 572 460 514 460 c 0
 457 460 425 409 410 351 c 0
 411 343 411 334 411 324 c 2
 411 0 l 1
 335 0 l 1
 335 325 l 2
 335 419 302 460 244 460 c 0xce
 188 460 156 411 141 354 c 1
 141 0 l 1
 65 0 l 1
 65 505 l 1xae
 126 505 l 1xb6
 135 445 l 1xd6
 161 486 201 515 258 515 c 0
 326 515 374 494 397 430 c 1
 422 479 465 515 528 515 c 0xce
EndSplineSet
EndChar

StartChar: n
Encoding: 110 110 168
Width: 471
VWidth: 1200
GlyphClass: 2
Flags: MW
HStem: 0 21G<65 141 65 65 335 411 335 335> 460 55<229.5 273> 485 20G<65 126 126 126>
VStem: 65 65.5 65 76<0 354 0 505> 335 76<0 324 0 325 0 372>
AnchorPoint: "Anchor-4" 241 505 basechar 0
AnchorPoint: "Anchor-2" 241 0 basechar 0
LayerCount: 2
Fore
SplineSet
258 515 m 0xcc
 355 515 411 473 411 324 c 2
 411 0 l 1
 335 0 l 1
 335 325 l 2
 335 419 302 460 244 460 c 0xcc
 188 460 156 411 141 354 c 1
 141 0 l 1
 65 0 l 1
 65 505 l 1xac
 126 505 l 1xb4
 135 445 l 1xd4
 161 486 201 515 258 515 c 0xcc
EndSplineSet
EndChar

StartChar: nacute
Encoding: 324 324 169
Width: 471
VWidth: 1220
GlyphClass: 2
Flags: MW
HStem: 0 21G<65 141 65 65 335 411 335 335> 460 55<229.5 273> 485 20G<65 126 126 126> 586 141<207 395 207 395>
VStem: 65 65.5 65 76<0 354 0 505> 335 76<0 324 0 325 0 372>
AnchorPoint: "Anchor-4" 241 727 basechar 0
AnchorPoint: "Anchor-2" 241 0 basechar 0
LayerCount: 2
Fore
SplineSet
296 727 m 1xd6
 395 727 l 1
 274 586 l 1
 207 586 l 1
 296 727 l 1xd6
258 515 m 0
 355 515 411 473 411 324 c 2
 411 0 l 1
 335 0 l 1
 335 325 l 2
 335 419 302 460 244 460 c 0xd6
 188 460 156 411 141 354 c 1
 141 0 l 1
 65 0 l 1
 65 505 l 1xb6
 126 505 l 1xba
 135 445 l 1xda
 161 486 201 515 258 515 c 0
EndSplineSet
EndChar

StartChar: ncaron
Encoding: 328 328 170
Width: 471
VWidth: 1220
GlyphClass: 2
Flags: MW
HStem: 0 21G<65 141 65 65 335 411 335 335> 460 55<229.5 273> 485 20G<65 126 126 126> 586 141<110 200 110 282>
VStem: 65 76<0 354 0 505> 335 76<0 324 0 325 0 372>
AnchorPoint: "Anchor-4" 241 727 basechar 0
AnchorPoint: "Anchor-2" 241 0 basechar 0
LayerCount: 2
Fore
SplineSet
200 586 m 1xd8
 110 727 l 1
 185 727 l 1
 241 633 l 1
 297 727 l 1
 372 727 l 1
 282 586 l 1
 200 586 l 1xd8
258 515 m 0
 355 515 411 473 411 324 c 2
 411 0 l 1
 335 0 l 1
 335 325 l 2xdc
 335 419 302 460 244 460 c 0xd8
 188 460 156 411 141 354 c 1
 141 0 l 1
 65 0 l 1
 65 505 l 1
 126 505 l 1xb8
 135 445 l 1
 161 486 201 515 258 515 c 0
EndSplineSet
EndChar

StartChar: uni0146
Encoding: 326 326 171
Width: 471
VWidth: 1220
GlyphClass: 2
Flags: MW
HStem: -231 166<201 217 164 281> 0 21G<65 141 65 65 335 411 335 335> 460 55<229.5 273> 485 20G<65 126 126 126>
VStem: 65 65.5 65 76<0 354 0 505> 335 76<0 324 0 325 0 372>
AnchorPoint: "Anchor-4" 241 505 basechar 0
AnchorPoint: "Anchor-2" 223 -231 basechar 0
LayerCount: 2
Fore
SplineSet
258 515 m 0xe6
 355 515 411 473 411 324 c 2
 411 0 l 1
 335 0 l 1
 335 325 l 2
 335 419 302 460 244 460 c 0xe6
 188 460 156 411 141 354 c 1
 141 0 l 1
 65 0 l 1
 65 505 l 1xd6
 126 505 l 1xda
 135 445 l 1xea
 161 486 201 515 258 515 c 0xe6
281 -65 m 1
 217 -231 l 1
 164 -231 l 1
 201 -65 l 1
 281 -65 l 1
EndSplineSet
EndChar

StartChar: eng
Encoding: 331 331 172
Width: 471
VWidth: 1220
GlyphClass: 2
Flags: MW
HStem: -190 64<272 299 272 300> 0 21G<65 141 65 65> 460 55<229.5 273> 485 20G<65 126 126 126>
VStem: 65 65.5 65 76<0 354 0 505> 335 76<-69 -54 -54 324>
AnchorPoint: "Anchor-4" 241 505 basechar 0
AnchorPoint: "Anchor-2" 241 0 basechar 0
LayerCount: 2
Fore
SplineSet
258 515 m 0xe6
 355 515 411 473 411 324 c 2
 411 -54 l 2
 411 -167 387 -190 299 -190 c 2
 272 -190 l 1
 272 -126 l 1
 328 -126 335 -124 335 -69 c 2
 335 325 l 2
 335 419 302 460 244 460 c 0xe6
 188 460 156 411 141 354 c 1
 141 0 l 1
 65 0 l 1
 65 505 l 1xd6
 126 505 l 1xda
 135 445 l 1xea
 161 486 201 515 258 515 c 0xe6
EndSplineSet
EndChar

StartChar: ntilde
Encoding: 241 241 173
Width: 471
VWidth: 1220
GlyphClass: 2
Flags: MW
HStem: 0 21G<65 141 65 65 335 411 335 335> 460 55<229.5 273> 485 20G<65 126 126 126> 593 64<275 306.5> 631 63<171.5 202>
VStem: 65 65.5 65 76<0 354 0 505> 335 76<0 324 0 325 0 372> 339 52<702 702>
AnchorPoint: "Anchor-4" 241 702 basechar 0
AnchorPoint: "Anchor-2" 241 0 basechar 0
LayerCount: 2
Fore
SplineSet
137 586 m 1xcb
 91 586 l 1
 98 655 131 694 190 694 c 0xcd
 244 694 254 657 296 657 c 0
 323 657 336 672 339 702 c 1
 391 702 l 1
 388 673 377 645 360 626 c 0
 342 605 320 593 293 593 c 0xd280
 247 593 220 631 184 631 c 0
 159 631 140 611 137 586 c 1xcb
258 515 m 0
 355 515 411 473 411 324 c 2
 411 0 l 1
 335 0 l 1
 335 325 l 2
 335 419 302 460 244 460 c 0xcb
 188 460 156 411 141 354 c 1
 141 0 l 1
 65 0 l 1
 65 505 l 1xab
 126 505 l 1xad
 135 445 l 1
 161 486 201 515 258 515 c 0
EndSplineSet
EndChar

StartChar: o
Encoding: 111 111 174
Width: 451
VWidth: 1200
GlyphClass: 2
Flags: MW
HStem: -10 55<188 258 188 283> 460 55<188 258>
VStem: 45 76<192 310> 330 76<191 192 192 310>
AnchorPoint: "Anchor-5" 431 505 basechar 0
AnchorPoint: "Anchor-4" 223 505 basechar 0
AnchorPoint: "Anchor-3" 406 10 basechar 0
AnchorPoint: "Anchor-2" 223 0 basechar 0
LayerCount: 2
Fore
SplineSet
223 -10 m 4
 103 -10 45 62 45 192 c 6
 45 310 l 6
 45 440 103 515 223 515 c 4
 343 515 406 440 406 310 c 6
 406 192 l 6
 406 62 343 -10 223 -10 c 4
223 45 m 4
 293 45 330 101 330 191 c 6
 330 310 l 6
 330 400 293 460 223 460 c 4
 153 460 121 400 121 310 c 6
 121 191 l 6
 121 101 153 45 223 45 c 4
EndSplineSet
EndChar

StartChar: oacute
Encoding: 243 243 175
Width: 451
VWidth: 1220
GlyphClass: 2
Flags: MW
HStem: -10 55<188 258 188 283> 460 55<188 258> 586 141<189 377 189 377>
VStem: 45 76<192 310> 330 76<191 192 192 310>
AnchorPoint: "Anchor-5" 431 505 basechar 0
AnchorPoint: "Anchor-4" 223 727 basechar 0
AnchorPoint: "Anchor-3" 406 10 basechar 0
AnchorPoint: "Anchor-2" 223 0 basechar 0
LayerCount: 2
Fore
SplineSet
256 586 m 1
 189 586 l 1
 278 727 l 1
 377 727 l 1
 256 586 l 1
223 -10 m 0
 103 -10 45 62 45 192 c 2
 45 310 l 2
 45 440 103 515 223 515 c 0
 343 515 406 440 406 310 c 2
 406 192 l 2
 406 62 343 -10 223 -10 c 0
223 45 m 0
 293 45 330 101 330 191 c 2
 330 310 l 2
 330 400 293 460 223 460 c 0
 153 460 121 400 121 310 c 2
 121 191 l 2
 121 101 153 45 223 45 c 0
EndSplineSet
EndChar

StartChar: ocircumflex
Encoding: 244 244 176
Width: 451
VWidth: 1220
GlyphClass: 2
Flags: MW
HStem: -10 55<188 258 188 283> 460 55<188 258> 586 141<92 264 92 264 182 279 182 354> 680 47<223 223>
VStem: 45 76<192 310> 330 76<191 192 192 310>
AnchorPoint: "Anchor-5" 431 505 basechar 0
AnchorPoint: "Anchor-4" 223 727 basechar 0
AnchorPoint: "Anchor-3" 406 10 basechar 0
AnchorPoint: "Anchor-2" 223 0 basechar 0
LayerCount: 2
Fore
SplineSet
167 586 m 1xec
 92 586 l 1
 182 727 l 1
 264 727 l 1
 354 586 l 1
 279 586 l 1xec
 223 680 l 1xdc
 167 586 l 1xec
223 -10 m 0
 103 -10 45 62 45 192 c 2
 45 310 l 2
 45 440 103 515 223 515 c 0
 343 515 406 440 406 310 c 2
 406 192 l 2
 406 62 343 -10 223 -10 c 0
223 45 m 0
 293 45 330 101 330 191 c 2
 330 310 l 2
 330 400 293 460 223 460 c 0
 153 460 121 400 121 310 c 2
 121 191 l 2
 121 101 153 45 223 45 c 0
EndSplineSet
EndChar

StartChar: odieresis
Encoding: 246 246 177
Width: 451
VWidth: 1220
GlyphClass: 2
Flags: MW
HStem: -10 55<188 258 188 283> 460 55<188 258> 611 83
VStem: 45 76<192 310> 82 80 93 80<591 674> 273 80<591 674> 330 76<191 192 192 310>
AnchorPoint: "Anchor-5" 431 505 basechar 0
AnchorPoint: "Anchor-4" 223 674 basechar 0
AnchorPoint: "Anchor-3" 406 10 basechar 0
AnchorPoint: "Anchor-2" 223 0 basechar 0
LayerCount: 2
Fore
SplineSet
173 591 m 1xe5
 93 591 l 1
 93 674 l 1
 173 674 l 1
 173 591 l 1xe5
353 591 m 1xea
 273 591 l 1
 273 674 l 1
 353 674 l 1
 353 591 l 1xea
223 -10 m 0
 103 -10 45 62 45 192 c 2
 45 310 l 2xf1
 45 440 103 515 223 515 c 0
 343 515 406 440 406 310 c 2
 406 192 l 2xe9
 406 62 343 -10 223 -10 c 0
223 45 m 0
 293 45 330 101 330 191 c 2
 330 310 l 2
 330 400 293 460 223 460 c 0
 153 460 121 400 121 310 c 2
 121 191 l 2
 121 101 153 45 223 45 c 0
EndSplineSet
EndChar

StartChar: ograve
Encoding: 242 242 178
Width: 451
VWidth: 1220
GlyphClass: 2
Flags: MW
HStem: -10 55<188 258 188 283> 460 55<188 258> 586 141<69 257 69 190>
VStem: 45 76<192 310> 330 76<191 192 192 310>
AnchorPoint: "Anchor-5" 431 505 basechar 0
AnchorPoint: "Anchor-4" 223 727 basechar 0
AnchorPoint: "Anchor-3" 406 10 basechar 0
AnchorPoint: "Anchor-2" 223 0 basechar 0
LayerCount: 2
Fore
SplineSet
257 586 m 1
 190 586 l 1
 69 727 l 1
 168 727 l 1
 257 586 l 1
223 -10 m 0
 103 -10 45 62 45 192 c 2
 45 310 l 2
 45 440 103 515 223 515 c 0
 343 515 406 440 406 310 c 2
 406 192 l 2
 406 62 343 -10 223 -10 c 0
223 45 m 0
 293 45 330 101 330 191 c 2
 330 310 l 2
 330 400 293 460 223 460 c 0
 153 460 121 400 121 310 c 2
 121 191 l 2
 121 101 153 45 223 45 c 0
EndSplineSet
EndChar

StartChar: ohungarumlaut
Encoding: 337 337 179
Width: 451
VWidth: 1220
GlyphClass: 2
Flags: MW
HStem: -10 55<188 258 188 283> 460 55<188 258> 586 141<104 292 104 292 251 292 193 318 251 251>
VStem: 45 76<192 310> 330 76<191 192 192 310>
AnchorPoint: "Anchor-5" 431 505 basechar 0
AnchorPoint: "Anchor-4" 257 727 basechar 0
AnchorPoint: "Anchor-3" 406 10 basechar 0
AnchorPoint: "Anchor-2" 223 0 basechar 0
LayerCount: 2
Fore
SplineSet
104 586 m 1
 193 727 l 1
 292 727 l 1
 171 586 l 1
 104 586 l 1
251 586 m 1
 340 727 l 1
 439 727 l 1
 318 586 l 1
 251 586 l 1
223 -10 m 0
 103 -10 45 62 45 192 c 2
 45 310 l 2
 45 440 103 515 223 515 c 0
 343 515 406 440 406 310 c 2
 406 192 l 2
 406 62 343 -10 223 -10 c 0
223 45 m 0
 293 45 330 101 330 191 c 2
 330 310 l 2
 330 400 293 460 223 460 c 0
 153 460 121 400 121 310 c 2
 121 191 l 2
 121 101 153 45 223 45 c 0
EndSplineSet
EndChar

StartChar: omacron
Encoding: 333 333 180
Width: 451
VWidth: 1220
GlyphClass: 2
Flags: MW
HStem: -10 55<188 258 188 283> 460 55<188 258> 608 61
VStem: 45 76<192 310> 120 207 330 76<191 192 192 310>
AnchorPoint: "Anchor-5" 431 505 basechar 0
AnchorPoint: "Anchor-4" 223 647 basechar 0
AnchorPoint: "Anchor-3" 406 10 basechar 0
AnchorPoint: "Anchor-2" 223 0 basechar 0
LayerCount: 2
Fore
SplineSet
327 586 m 1xec
 119 586 l 1
 119 647 l 1
 327 647 l 1
 327 586 l 1xec
223 -10 m 0
 103 -10 45 62 45 192 c 2
 45 310 l 2xf4
 45 440 103 515 223 515 c 0
 343 515 406 440 406 310 c 2
 406 192 l 2
 406 62 343 -10 223 -10 c 0
223 45 m 0
 293 45 330 101 330 191 c 2
 330 310 l 2
 330 400 293 460 223 460 c 0
 153 460 121 400 121 310 c 2
 121 191 l 2
 121 101 153 45 223 45 c 0
EndSplineSet
EndChar

StartChar: oslash
Encoding: 248 248 181
Width: 451
VWidth: 1220
GlyphClass: 2
Flags: MW
HStem: -10 55<216 258 216 283> -4 21G<168 168> 460 55<188 231.5> 486 20G<287 287>
VStem: 45 76<192 310> 330 76<191 192 192 310>
AnchorPoint: "Anchor-5" 431 505 basechar 0
AnchorPoint: "Anchor-4" 223 505 basechar 0
AnchorPoint: "Anchor-3" 406 10 basechar 0
AnchorPoint: "Anchor-2" 223 0 basechar 0
LayerCount: 2
Fore
SplineSet
352 555 m 1x9c
 330 487 l 1
 380 454 406 393 406 310 c 2
 406 192 l 2
 406 62 343 -10 223 -10 c 0x9c
 203 -10 185 -8 168 -4 c 1
 153 -50 l 1
 104 -50 l 1
 125 13 l 1
 71 44 45 105 45 192 c 2
 45 310 l 2
 45 440 103 515 223 515 c 0x6c
 247 515 268 512 287 506 c 1
 303 555 l 1
 352 555 l 1x9c
121 310 m 2
 121 191 l 2
 121 145 130 107 147 82 c 1
 268 450 l 1
 255 456 240 460 223 460 c 0xac
 153 460 121 400 121 310 c 2
330 191 m 2
 330 310 l 2
 330 352 322 388 306 414 c 1
 186 51 l 1
 197 47 209 45 223 45 c 0
 293 45 330 101 330 191 c 2
EndSplineSet
EndChar

StartChar: otilde
Encoding: 245 245 182
Width: 451
VWidth: 1220
GlyphClass: 2
Flags: MW
HStem: -10 55<188 258 188 283> 460 55<188 258> 593 64<257 288.5> 631 63<153.5 184>
VStem: 45 76<192 310> 321 52<702 702> 330 76<191 192 192 310>
AnchorPoint: "Anchor-5" 431 505 basechar 0
AnchorPoint: "Anchor-4" 223 702 basechar 0
AnchorPoint: "Anchor-3" 406 10 basechar 0
AnchorPoint: "Anchor-2" 223 0 basechar 0
LayerCount: 2
Fore
SplineSet
119 586 m 1xda
 73 586 l 1
 80 655 113 694 172 694 c 0xda
 226 694 236 657 278 657 c 0
 305 657 318 672 321 702 c 1
 373 702 l 1
 370 673 359 645 342 626 c 0
 324 605 302 593 275 593 c 0xec
 229 593 202 631 166 631 c 0
 141 631 122 611 119 586 c 1xda
223 -10 m 0
 103 -10 45 62 45 192 c 2
 45 310 l 2
 45 440 103 515 223 515 c 0
 343 515 406 440 406 310 c 2
 406 192 l 2
 406 62 343 -10 223 -10 c 0
223 45 m 0
 293 45 330 101 330 191 c 2
 330 310 l 2
 330 400 293 460 223 460 c 0
 153 460 121 400 121 310 c 2
 121 191 l 2
 121 101 153 45 223 45 c 0
EndSplineSet
EndChar

StartChar: oe
Encoding: 339 339 183
Width: 736
VWidth: 1220
GlyphClass: 1
Flags: MW
HStem: -10 55<188 255.5 475.5 538> 229 55<406 615 406 691 406 615> 460 55<188 255.5 163 258 475.5 543>
VStem: 45 76<192 310> 330 76<191 229 284 310> 613 76<155 155> 615 76<284 310 229 355>
LayerCount: 2
Fore
SplineSet
223 -10 m 0xfa
 103 -10 45 62 45 192 c 2
 45 310 l 2
 45 440 103 515 223 515 c 0
 288 515 336 484 367 440 c 1
 396 484 443 515 508 515 c 0
 628 515 691 440 691 310 c 2
 691 229 l 1xfa
 406 229 l 1
 406 191 l 2
 406 101 438 45 508 45 c 0
 568 45 604 86 613 155 c 1
 689 155 l 1xfc
 678 49 616 -10 508 -10 c 0
 443 -10 396 20 367 63 c 1
 336 20 288 -10 223 -10 c 0xfa
121 310 m 2
 121 191 l 2
 121 101 153 45 223 45 c 0
 293 45 330 101 330 191 c 2
 330 310 l 2
 330 400 293 460 223 460 c 0
 153 460 121 400 121 310 c 2
406 310 m 2
 406 284 l 1
 615 284 l 1
 615 310 l 2
 615 400 578 460 508 460 c 0
 438 460 406 400 406 310 c 2
EndSplineSet
EndChar

StartChar: p
Encoding: 112 112 184
Width: 461
VWidth: 1200
GlyphClass: 2
Flags: MW
HStem: -190 21G<65 141 65 65> -10 55<232 271.5 212.5 306.5> 460 55<230 271.5> 485 20G<65 126 126 126>
VStem: 65 65.5 65 76<-190 50 151 351> 340 76<231 232 232 270 148.5 331>
AnchorPoint: "Anchor-4" 251 505 basechar 0
AnchorPoint: "Anchor-2" 251 0 basechar 0
LayerCount: 2
Fore
SplineSet
258 515 m 0xe6
 355 515 416 437 416 270 c 2
 416 232 l 2
 416 65 355 -10 258 -10 c 0
 206 -10 167 14 141 50 c 1
 141 -190 l 1
 65 -190 l 1
 65 505 l 1xd6
 126 505 l 1xda
 135 444 l 1xea
 161 486 202 515 258 515 c 0xe6
340 231 m 2
 340 270 l 2
 340 392 305 460 238 460 c 0
 187 460 156 409 141 351 c 1
 141 151 l 1
 156 94 187 45 238 45 c 0
 305 45 340 109 340 231 c 2
EndSplineSet
EndChar

StartChar: thorn
Encoding: 254 254 185
Width: 461
VWidth: 1220
GlyphClass: 2
Flags: MW
HStem: -190 21G<65 141 65 65> -10 55<232 271.5 212.5 306.5> 460 55<232 271.5> 707 20G<65 141 141 141>
VStem: 65 76<-190 50 151 351 453 727> 340 76<231 232 232 270 148.5 331>
AnchorPoint: "Anchor-4" 251 505 basechar 0
AnchorPoint: "Anchor-2" 251 0 basechar 0
LayerCount: 2
Fore
SplineSet
258 515 m 0
 355 515 416 437 416 270 c 2
 416 232 l 2
 416 65 355 -10 258 -10 c 0
 206 -10 167 14 141 50 c 1
 141 -190 l 1
 65 -190 l 1
 65 727 l 1
 141 727 l 1
 141 453 l 1
 167 490 206 515 258 515 c 0
340 231 m 2
 340 270 l 2
 340 392 305 460 238 460 c 0
 187 460 156 409 141 351 c 1
 141 151 l 1
 156 94 187 45 238 45 c 0
 305 45 340 109 340 231 c 2
EndSplineSet
EndChar

StartChar: q
Encoding: 113 113 186
Width: 461
VWidth: 1200
GlyphClass: 2
Flags: MW
HStem: -190 21G<320 396 320 320> -10 55<189.5 229> 460 55<189.5 231 154.5 248.5> 485 20G<335 396 396 396>
VStem: 45 76<232 270 170 353.5> 320 76<-190 50 50 50 151 351 351 351> 330.5 65.5
AnchorPoint: "Anchor-4" 214 505 basechar 0
AnchorPoint: "Anchor-2" 214 0 basechar 0
LayerCount: 2
Fore
SplineSet
326 444 m 1xea
 335 505 l 1xda
 396 505 l 1
 396 -190 l 1
 320 -190 l 1
 320 50 l 1xdc
 294 14 255 -10 203 -10 c 0
 106 -10 45 65 45 232 c 2
 45 270 l 2
 45 437 106 515 203 515 c 0
 259 515 300 486 326 444 c 1xea
223 45 m 0
 274 45 305 94 320 151 c 1
 320 351 l 1
 305 409 274 460 223 460 c 0xec
 156 460 121 392 121 270 c 2
 121 231 l 2
 121 109 156 45 223 45 c 0
EndSplineSet
EndChar

StartChar: r
Encoding: 114 114 187
Width: 316
VWidth: 1200
GlyphClass: 2
Flags: MW
HStem: 0 21G<65 141 65 65> 434 81<271 296> 485 20G<65 126 126 126> 495 20G<271 296 296 296>
VStem: 65 76<0 309>
AnchorPoint: "Anchor-4" 181 505 basechar 0
AnchorPoint: "Anchor-2" 103 0 basechar 0
LayerCount: 2
Fore
SplineSet
141 309 m 1x98
 141 0 l 1
 65 0 l 1
 65 505 l 1
 126 505 l 1xa8
 141 429 l 1
 163 488 209 515 271 515 c 2
 296 515 l 1
 296 434 l 1
 219 445 160 413 142 337 c 1xc8
 141 309 l 1x98
EndSplineSet
EndChar

StartChar: racute
Encoding: 341 341 188
Width: 316
VWidth: 1220
GlyphClass: 2
Flags: MW
HStem: 0 21G<65 141 65 65> 434 81<271 296> 485 20G<65 126 126 126> 495 20G<271 296 296 296> 586 141<147 335 147 335>
VStem: 65 76<0 309>
AnchorPoint: "Anchor-4" 181 727 basechar 0
AnchorPoint: "Anchor-2" 103 0 basechar 0
LayerCount: 2
Fore
SplineSet
214 586 m 1x9c
 147 586 l 1
 236 727 l 1
 335 727 l 1
 214 586 l 1x9c
141 0 m 1
 65 0 l 1
 65 505 l 1
 126 505 l 1xac
 141 429 l 1
 163 488 209 515 271 515 c 2
 296 515 l 1
 296 434 l 1
 219 445 160 413 142 337 c 1xcc
 141 309 l 1
 141 0 l 1
EndSplineSet
EndChar

StartChar: rcaron
Encoding: 345 345 189
Width: 316
VWidth: 1220
GlyphClass: 2
Flags: MW
HStem: 0 21G<65 141 65 65> 434 81<271 296> 485 20G<65 126 126 126> 495 20G<271 296 296 296> 586 141<50 222 50 140>
VStem: 65 76<0 309>
AnchorPoint: "Anchor-4" 181 727 basechar 0
AnchorPoint: "Anchor-2" 103 0 basechar 0
LayerCount: 2
Fore
SplineSet
222 586 m 1xac
 140 586 l 1
 50 727 l 1
 125 727 l 1
 181 633 l 1
 237 727 l 1
 312 727 l 1
 222 586 l 1xac
141 309 m 1
 141 0 l 1
 65 0 l 1
 65 505 l 1
 126 505 l 1xac
 141 429 l 1
 163 488 209 515 271 515 c 2
 296 515 l 1x9c
 296 434 l 1xcc
 219 445 160 413 142 337 c 1
 141 309 l 1
EndSplineSet
EndChar

StartChar: uni0157
Encoding: 343 343 190
Width: 316
VWidth: 1220
GlyphClass: 2
Flags: MW
HStem: -231 166<63 79 26 143> 0 21G<65 141 65 65> 434 81<271 296> 485 20G<65 126 126 126> 495 20G<271 296 296 296>
VStem: 65 76<0 309>
AnchorPoint: "Anchor-4" 181 505 basechar 0
AnchorPoint: "Anchor-2" 85 -231 basechar 0
LayerCount: 2
Fore
SplineSet
141 309 m 1xcc
 141 0 l 1
 65 0 l 1
 65 505 l 1
 126 505 l 1xd4
 141 429 l 1
 163 488 209 515 271 515 c 2
 296 515 l 1
 296 434 l 1
 219 445 160 413 142 337 c 1xe4
 141 309 l 1xcc
143 -65 m 1
 79 -231 l 1
 26 -231 l 1
 63 -65 l 1
 143 -65 l 1
EndSplineSet
EndChar

StartChar: s
Encoding: 115 115 191
Width: 426
VWidth: 1200
GlyphClass: 2
Flags: MW
HStem: -10 55<191 239 191 262.5> 460 55<195.5 246>
VStem: 45 79<135 156 156 156> 57 76<328.5 409.5 328.5 424.5> 305 76<100.5 188.5>
AnchorPoint: "Anchor-4" 216 505 basechar 0
AnchorPoint: "Anchor-2" 216 0 basechar 0
LayerCount: 2
Fore
SplineSet
216 -10 m 0xe8
 112 -10 45 40 45 135 c 2
 45 156 l 1
 124 156 l 1xe8
 122 76 165 45 217 45 c 0
 261 45 305 78 305 123 c 0
 305 254 57 218 57 384 c 0
 57 465 125 515 216 515 c 0
 315 515 380 469 380 387 c 0
 380 378 379 368 378 356 c 1
 305 356 l 1
 308 430 276 460 216 460 c 0
 175 460 133 434 133 385 c 0xd8
 133 272 381 309 381 126 c 0
 381 42 309 -10 216 -10 c 0xe8
EndSplineSet
EndChar

StartChar: sacute
Encoding: 347 347 192
Width: 426
VWidth: 1220
GlyphClass: 2
Flags: MW
HStem: -10 55<191 239 191 262.5> 460 55<195.5 246> 586 141<182 370 182 370>
VStem: 45 79<135 156 156 156> 57 76<328.5 409.5 328.5 424.5> 305 76<100.5 188.5>
AnchorPoint: "Anchor-4" 216 727 basechar 0
AnchorPoint: "Anchor-2" 216 0 basechar 0
LayerCount: 2
Fore
SplineSet
249 586 m 1xec
 182 586 l 1
 271 727 l 1
 370 727 l 1
 249 586 l 1xec
216 -10 m 0xf4
 112 -10 45 40 45 135 c 2
 45 156 l 1
 124 156 l 1xf4
 122 76 165 45 217 45 c 0
 261 45 305 78 305 123 c 0
 305 254 57 218 57 384 c 0
 57 465 125 515 216 515 c 0
 315 515 380 469 380 387 c 0
 380 378 379 368 378 356 c 1
 305 356 l 1
 308 430 276 460 216 460 c 0
 175 460 133 434 133 385 c 0xec
 133 272 381 309 381 126 c 0
 381 42 309 -10 216 -10 c 0xf4
EndSplineSet
EndChar

StartChar: scaron
Encoding: 353 353 193
Width: 426
VWidth: 1220
GlyphClass: 2
Flags: MW
HStem: -10 55<191 239 191 262.5> 460 55<195.5 246> 586 141<85 257 85 175>
VStem: 45 79<135 156 156 156> 57 76<328.5 409.5 328.5 424.5> 305 76<100.5 188.5>
AnchorPoint: "Anchor-4" 216 727 basechar 0
AnchorPoint: "Anchor-2" 216 0 basechar 0
LayerCount: 2
Fore
SplineSet
347 727 m 1xec
 257 586 l 1
 175 586 l 1
 85 727 l 1
 160 727 l 1
 216 633 l 1
 272 727 l 1
 347 727 l 1xec
216 -10 m 0
 112 -10 45 40 45 135 c 2
 45 156 l 1
 124 156 l 1xf4
 122 76 165 45 217 45 c 0
 261 45 305 78 305 123 c 0
 305 254 57 218 57 384 c 0
 57 465 125 515 216 515 c 0
 315 515 380 469 380 387 c 0
 380 378 379 368 378 356 c 1
 305 356 l 1
 308 430 276 460 216 460 c 0
 175 460 133 434 133 385 c 0
 133 272 381 309 381 126 c 0
 381 42 309 -10 216 -10 c 0
EndSplineSet
EndChar

StartChar: scedilla
Encoding: 351 351 194
Width: 426
VWidth: 1220
GlyphClass: 2
Flags: MW
HStem: -227 45<195.5 227.5 195.5 238.5> -76 41<228 228 228 231> -8 21G<182 182> -8 53<182 239> 460 55<195.5 246>
VStem: 45 79<135 156 156 156> 57 76<328.5 409.5 328.5 424.5> 267 55<-139 -109> 305 76<100.5 188.5>
AnchorPoint: "Anchor-4" 216 505 basechar 0
AnchorPoint: "Anchor-2" 205 -225 basechar 0
LayerCount: 2
Fore
SplineSet
381 126 m 0xaa80
 381 50 322 0 241 -9 c 1
 228 -35 l 1
 277 -36 322 -65 322 -130 c 0
 322 -193 267 -227 210 -227 c 0
 174 -227 137 -214 113 -185 c 1
 144 -155 l 1
 157 -171 183 -182 208 -182 c 0
 247 -182 267 -153 267 -125 c 0
 267 -93 244 -76 218 -76 c 0
 208 -76 197 -79 188 -85 c 1
 154 -65 l 1xeb
 182 -8 l 1
 98 2 45 51 45 135 c 2
 45 156 l 1
 124 156 l 1x9c80
 122 76 165 45 217 45 c 0
 261 45 305 78 305 123 c 0x9a80
 305 254 57 218 57 384 c 0
 57 465 125 515 216 515 c 0
 315 515 380 469 380 387 c 0
 380 378 379 368 378 356 c 1
 305 356 l 1
 308 430 276 460 216 460 c 0
 175 460 133 434 133 385 c 0
 133 272 381 309 381 126 c 0xaa80
EndSplineSet
Substitution2: "'locl' Localized Forms in Latin lookup 2 subtable" uni0219
Substitution2: "'locl' Localized Forms in Latin lookup 1 subtable" uni0219
Substitution2: "'aalt' Access All Alternates in Latin lookup 0 subtable" uni0219
EndChar

StartChar: uni0219
Encoding: 537 537 195
Width: 426
VWidth: 1220
GlyphClass: 2
Flags: MW
HStem: -231 166<176 192 139 256> -10 55<191 239 191 262.5> 460 55<195.5 246>
VStem: 45 79<135 156 156 156> 57 76<328.5 409.5 328.5 424.5> 305 76<100.5 188.5>
AnchorPoint: "Anchor-4" 216 505 basechar 0
AnchorPoint: "Anchor-2" 198 -231 basechar 0
LayerCount: 2
Fore
SplineSet
216 -10 m 0x74
 112 -10 45 40 45 135 c 2
 45 156 l 1
 124 156 l 1x74
 122 76 165 45 217 45 c 0
 261 45 305 78 305 123 c 0
 305 254 57 218 57 384 c 0
 57 465 125 515 216 515 c 0
 315 515 380 469 380 387 c 0
 380 378 379 368 378 356 c 1
 305 356 l 1
 308 430 276 460 216 460 c 0
 175 460 133 434 133 385 c 0x6c
 133 272 381 309 381 126 c 0
 381 42 309 -10 216 -10 c 0x74
256 -65 m 1xec
 192 -231 l 1
 139 -231 l 1
 176 -65 l 1
 256 -65 l 1xec
EndSplineSet
EndChar

StartChar: germandbls
Encoding: 223 223 196
Width: 566
VWidth: 1220
GlyphClass: 1
Flags: MW
HStem: -10 55<331 379 331 402.5> 0 156<65 264 65 264> 681 53<208.5 260.5>
VStem: 65 76<0 543 543 546 0 614.5> 185 79<135 156 156 156> 197 76<328.5 428.5 328.5 442> 333 76<548 623> 445 76<100.5 188.5>
LayerCount: 2
Fore
SplineSet
273 385 m 0xb7
 273 272 521 309 521 126 c 0
 521 42 449 -10 356 -10 c 0xbb
 252 -10 185 40 185 135 c 2
 185 156 l 1x7b
 264 156 l 1xbb
 262 76 305 45 357 45 c 0
 401 45 445 78 445 123 c 0xb7
 445 254 197 218 197 384 c 0
 197 500 333 499 333 597 c 0
 333 649 284 681 237 681 c 0
 180 681 141 647 141 546 c 2
 141 0 l 1
 65 0 l 1x77
 65 543 l 2
 65 686 123 734 234 734 c 0
 336 734 409 678 409 608 c 0
 409 478 273 472 273 385 c 0xb7
EndSplineSet
EndChar

StartChar: t
Encoding: 116 116 197
Width: 319
VWidth: 1200
GlyphClass: 2
Flags: MW
HStem: -10 65<227.5 228.5> 450 55<30 111 30 111 187 283>
VStem: 111 76<133 450 505 601 601 601>
AnchorPoint: "Anchor-5" 226 505 basechar 0
AnchorPoint: "Anchor-4" 173 505 basechar 0
AnchorPoint: "Anchor-2" 193 0 basechar 0
LayerCount: 2
Fore
SplineSet
111 505 m 1
 111 601 l 1
 187 638 l 1
 187 505 l 1
 283 505 l 1
 283 450 l 1
 187 450 l 1
 187 133 l 2
 187 69 204 55 251 55 c 0
 262 55 275 57 289 59 c 1
 289 0 l 1
 263 -7 239 -10 218 -10 c 0
 149 -10 111 38 111 133 c 2
 111 450 l 1
 30 450 l 1
 30 505 l 1
 111 505 l 1
EndSplineSet
EndChar

StartChar: tbar
Encoding: 359 359 198
Width: 319
VWidth: 1220
GlyphClass: 2
Flags: MW
HStem: -10 65<227.5 228.5> 266 56<35 111 35 111 187 288> 450 55<30 111 30 111 187 283>
VStem: 111 76<133 266 322 450 505 601 601 601>
AnchorPoint: "Anchor-5" 226 505 basechar 0
AnchorPoint: "Anchor-4" 173 505 basechar 0
AnchorPoint: "Anchor-2" 193 0 basechar 0
LayerCount: 2
Fore
SplineSet
251 55 m 0
 262 55 275 57 289 59 c 1
 289 0 l 1
 263 -7 239 -10 218 -10 c 0
 149 -10 111 38 111 133 c 2
 111 266 l 1
 35 266 l 1
 35 322 l 1
 111 322 l 1
 111 450 l 1
 30 450 l 1
 30 505 l 1
 111 505 l 1
 111 601 l 1
 187 638 l 1
 187 505 l 1
 283 505 l 1
 283 450 l 1
 187 450 l 1
 187 322 l 1
 288 322 l 1
 288 266 l 1
 187 266 l 1
 187 133 l 2
 187 69 204 55 251 55 c 0
EndSplineSet
EndChar

StartChar: tcaron
Encoding: 357 357 199
Width: 373
VWidth: 1220
GlyphClass: 2
Flags: MW
HStem: -10 65<227.5 228.5> 450 55<30 111 30 111 187 283> 561 166<283 299 246 363>
VStem: 111 76<133 450 505 601 601 601>
AnchorPoint: "Anchor-5" 226 505 basechar 0
AnchorPoint: "Anchor-4" 173 505 basechar 0
AnchorPoint: "Anchor-2" 193 0 basechar 0
LayerCount: 2
Fore
SplineSet
299 561 m 1
 246 561 l 1
 283 727 l 1
 363 727 l 1
 299 561 l 1
111 505 m 1
 111 601 l 1
 187 638 l 1
 187 505 l 1
 283 505 l 1
 283 450 l 1
 187 450 l 1
 187 133 l 2
 187 69 204 55 251 55 c 0
 262 55 275 57 289 59 c 1
 289 0 l 1
 263 -7 239 -10 218 -10 c 0
 149 -10 111 38 111 133 c 2
 111 450 l 1
 30 450 l 1
 30 505 l 1
 111 505 l 1
EndSplineSet
EndChar

StartChar: uni0163
Encoding: 355 355 200
Width: 319
VWidth: 1220
GlyphClass: 2
Flags: MW
HStem: -227 45<172.5 204.5 172.5 215.5> -76 41<205 205 205 208> -10 65<217 256.5 217 256.5> 0 21G<289 289> 450 55<30 111 30 111 187 283>
VStem: 111 76<133 450 505 601 601 601> 244 55<-139 -109>
AnchorPoint: "Anchor-5" 226 505 basechar 0
AnchorPoint: "Anchor-4" 173 505 basechar 0
AnchorPoint: "Anchor-2" 182 -225 basechar 0
LayerCount: 2
Fore
SplineSet
217 -10 m 1xee
 205 -35 l 1
 254 -36 299 -65 299 -130 c 0
 299 -193 244 -227 187 -227 c 0
 151 -227 114 -214 90 -185 c 1
 121 -155 l 1
 134 -171 160 -182 185 -182 c 0
 224 -182 244 -153 244 -125 c 0
 244 -93 221 -76 195 -76 c 0
 185 -76 174 -79 165 -85 c 1
 131 -65 l 1
 165 3 l 1xde
 130 23 111 66 111 133 c 2
 111 450 l 1
 30 450 l 1
 30 505 l 1
 111 505 l 1
 111 601 l 1
 187 638 l 1
 187 505 l 1
 283 505 l 1
 283 450 l 1
 187 450 l 1
 187 133 l 2
 187 69 204 55 251 55 c 0
 262 55 275 57 289 59 c 1
 289 0 l 1
 263 -7 239 -10 218 -10 c 2
 217 -10 l 1xee
EndSplineSet
Substitution2: "'locl' Localized Forms in Latin lookup 2 subtable" uni021B
Substitution2: "'locl' Localized Forms in Latin lookup 1 subtable" uni021B
Substitution2: "'aalt' Access All Alternates in Latin lookup 0 subtable" uni021B
EndChar

StartChar: uni021B
Encoding: 539 539 201
Width: 319
VWidth: 1220
GlyphClass: 2
Flags: MW
HStem: -231 166<153 169 116 233> -10 65<227.5 228.5> 450 55<30 111 30 111 187 283>
VStem: 111 76<133 450 505 601 601 601>
AnchorPoint: "Anchor-5" 226 505 basechar 0
AnchorPoint: "Anchor-4" 173 505 basechar 0
AnchorPoint: "Anchor-2" 175 -231 basechar 0
LayerCount: 2
Fore
SplineSet
111 505 m 1
 111 601 l 1
 187 638 l 1
 187 505 l 1
 283 505 l 1
 283 450 l 1
 187 450 l 1
 187 133 l 2
 187 69 204 55 251 55 c 0
 262 55 275 57 289 59 c 1
 289 0 l 1
 263 -7 239 -10 218 -10 c 0
 149 -10 111 38 111 133 c 2
 111 450 l 1
 30 450 l 1
 30 505 l 1
 111 505 l 1
233 -65 m 1
 169 -231 l 1
 116 -231 l 1
 153 -65 l 1
 233 -65 l 1
EndSplineSet
EndChar

StartChar: u
Encoding: 117 117 202
Width: 471
VWidth: 1220
GlyphClass: 2
Flags: MW
HStem: -10 55<198 241.5> 0 21G<345 406 345 345> 485 20G<60 136 136 136 330 406 406 406>
VStem: 60 76<181 505> 330 76<151 505 0 505> 340.5 65.5
AnchorPoint: "Anchor-5" 451 505 basechar 0
AnchorPoint: "Anchor-4" 234 505 basechar 0
AnchorPoint: "Anchor-3" 406 0 basechar 0
AnchorPoint: "Anchor-2" 234 0 basechar 0
LayerCount: 2
Fore
SplineSet
213 -10 m 0xb8
 116 -10 60 32 60 181 c 2
 60 505 l 1
 136 505 l 1
 136 180 l 2
 136 86 169 45 227 45 c 0xb8
 283 45 315 94 330 151 c 1
 330 505 l 1
 406 505 l 1
 406 0 l 1x78
 345 0 l 1x74
 336 60 l 1xb4
 310 19 270 -10 213 -10 c 0xb8
EndSplineSet
EndChar

StartChar: uacute
Encoding: 250 250 203
Width: 471
VWidth: 1220
GlyphClass: 2
Flags: MW
HStem: -10 55<198 241.5> 0 21G<345 406 345 345> 485 20G<60 136 136 136 330 406 406 406> 586 141<200 388 200 388>
VStem: 60 76<181 505> 330 76<151 505 0 505> 340.5 65.5
AnchorPoint: "Anchor-5" 451 505 basechar 0
AnchorPoint: "Anchor-4" 234 727 basechar 0
AnchorPoint: "Anchor-3" 406 0 basechar 0
AnchorPoint: "Anchor-2" 234 0 basechar 0
LayerCount: 2
Fore
SplineSet
267 586 m 1xbc
 200 586 l 1
 289 727 l 1
 388 727 l 1
 267 586 l 1xbc
213 -10 m 0
 116 -10 60 32 60 181 c 2
 60 505 l 1
 136 505 l 1
 136 180 l 2
 136 86 169 45 227 45 c 0xbc
 283 45 315 94 330 151 c 1
 330 505 l 1
 406 505 l 1
 406 0 l 1x7c
 345 0 l 1x7a
 336 60 l 1xba
 310 19 270 -10 213 -10 c 0
EndSplineSet
EndChar

StartChar: ucircumflex
Encoding: 251 251 204
Width: 471
VWidth: 1220
GlyphClass: 2
Flags: MW
HStem: -10 55<198 241.5> 0 21G<345 406 345 345> 485 20G<60 136 136 136 330 406 406 406> 586 141<103 275 103 275 193 290 193 365> 680 47<234 234>
VStem: 60 76<181 505> 330 76<151 505 0 505> 340.5 65.5
AnchorPoint: "Anchor-5" 451 505 basechar 0
AnchorPoint: "Anchor-4" 234 727 basechar 0
AnchorPoint: "Anchor-3" 406 0 basechar 0
AnchorPoint: "Anchor-2" 234 0 basechar 0
LayerCount: 2
Fore
SplineSet
178 586 m 1xb6
 103 586 l 1
 193 727 l 1
 275 727 l 1
 365 586 l 1
 290 586 l 1xb5
 234 680 l 1xae
 178 586 l 1xb6
213 -10 m 0
 116 -10 60 32 60 181 c 2
 60 505 l 1
 136 505 l 1
 136 180 l 2
 136 86 169 45 227 45 c 0xb6
 283 45 315 94 330 151 c 1
 330 505 l 1
 406 505 l 1
 406 0 l 1x76
 345 0 l 1x75
 336 60 l 1
 310 19 270 -10 213 -10 c 0
EndSplineSet
EndChar

StartChar: udieresis
Encoding: 252 252 205
Width: 471
VWidth: 1220
GlyphClass: 2
Flags: MW
HStem: -10 55<198 241.5> 0 21G<345 406 345 345> 485 20G<60 136 136 136 330 406 406 406> 611 83
VStem: 60 76<181 505> 104 80<591 674> 284 80<591 674> 330 76<151 505 0 505>
AnchorPoint: "Anchor-5" 451 505 basechar 0
AnchorPoint: "Anchor-4" 234 674 basechar 0
AnchorPoint: "Anchor-3" 406 0 basechar 0
AnchorPoint: "Anchor-2" 234 0 basechar 0
LayerCount: 2
Fore
SplineSet
184 591 m 1xb5
 104 591 l 1
 104 674 l 1
 184 674 l 1
 184 591 l 1xb5
364 591 m 1xb6
 284 591 l 1
 284 674 l 1
 364 674 l 1
 364 591 l 1xb6
213 -10 m 0
 116 -10 60 32 60 181 c 2
 60 505 l 1
 136 505 l 1
 136 180 l 2xb9
 136 86 169 45 227 45 c 0xb5
 283 45 315 94 330 151 c 1
 330 505 l 1
 406 505 l 1x75
 406 0 l 1
 345 0 l 1x76
 336 60 l 1
 310 19 270 -10 213 -10 c 0
EndSplineSet
EndChar

StartChar: ugrave
Encoding: 249 249 206
Width: 471
VWidth: 1220
GlyphClass: 2
Flags: MW
HStem: -10 55<198 241.5> 0 21G<345 406 345 345> 485 20G<60 136 136 136 330 406 406 406> 586 141<80 268 80 201>
VStem: 60 76<181 505> 330 76<151 505 0 505> 340.5 65.5
AnchorPoint: "Anchor-5" 451 505 basechar 0
AnchorPoint: "Anchor-4" 234 727 basechar 0
AnchorPoint: "Anchor-3" 406 0 basechar 0
AnchorPoint: "Anchor-2" 234 0 basechar 0
LayerCount: 2
Fore
SplineSet
268 586 m 1xbc
 201 586 l 1
 80 727 l 1
 179 727 l 1
 268 586 l 1xbc
213 -10 m 0
 116 -10 60 32 60 181 c 2
 60 505 l 1
 136 505 l 1
 136 180 l 2
 136 86 169 45 227 45 c 0xbc
 283 45 315 94 330 151 c 1
 330 505 l 1
 406 505 l 1
 406 0 l 1x7c
 345 0 l 1x7a
 336 60 l 1xba
 310 19 270 -10 213 -10 c 0
EndSplineSet
EndChar

StartChar: uhungarumlaut
Encoding: 369 369 207
Width: 471
VWidth: 1220
GlyphClass: 2
Flags: MW
HStem: -10 55<198 241.5> 0 21G<345 406 345 345> 485 20G<60 136 136 136 330 406 406 406> 586 141<115 303 115 303 262 262 262 303 204 329>
VStem: 60 76<181 505> 330 76<151 505 0 505> 341 66
AnchorPoint: "Anchor-5" 451 505 basechar 0
AnchorPoint: "Anchor-4" 268 727 basechar 0
AnchorPoint: "Anchor-3" 406 0 basechar 0
AnchorPoint: "Anchor-2" 234 0 basechar 0
LayerCount: 2
Fore
SplineSet
182 586 m 1xba
 115 586 l 1
 204 727 l 1
 303 727 l 1
 182 586 l 1xba
329 586 m 1
 262 586 l 1
 351 727 l 1
 450 727 l 1
 329 586 l 1
213 -10 m 0
 116 -10 60 32 60 181 c 2
 60 505 l 1
 136 505 l 1
 136 180 l 2
 136 86 169 45 227 45 c 0xbc
 283 45 315 94 330 151 c 1
 330 505 l 1x7c
 406 505 l 1
 406 0 l 1
 345 0 l 1x7a
 336 60 l 1
 310 19 270 -10 213 -10 c 0
EndSplineSet
EndChar

StartChar: umacron
Encoding: 363 363 208
Width: 471
VWidth: 1220
GlyphClass: 2
Flags: MW
HStem: -10 55<198 241.5> 0 21G<345 406 345 345> 485 20G<60 136 136 136 330 406 406 406> 608 61
VStem: 60 76<181 505> 131 207 330 76<151 505 0 505>
AnchorPoint: "Anchor-5" 451 505 basechar 0
AnchorPoint: "Anchor-4" 234 647 basechar 0
AnchorPoint: "Anchor-3" 406 0 basechar 0
AnchorPoint: "Anchor-2" 234 0 basechar 0
LayerCount: 2
Fore
SplineSet
338 586 m 1xb4
 130 586 l 1
 130 647 l 1
 338 647 l 1
 338 586 l 1xb4
213 -10 m 0
 116 -10 60 32 60 181 c 2
 60 505 l 1
 136 505 l 1
 136 180 l 2xba
 136 86 169 45 227 45 c 0xb2
 283 45 315 94 330 151 c 1
 330 505 l 1
 406 505 l 1x72
 406 0 l 1
 345 0 l 1x74
 336 60 l 1
 310 19 270 -10 213 -10 c 0
EndSplineSet
EndChar

StartChar: uogonek
Encoding: 371 371 209
Width: 471
VWidth: 1220
GlyphClass: 2
Flags: MW
HStem: -188 59<398.5 405.5> -10 55<198 241.5> 0 21G<341 345 345 345 406 406> 485 20G<60 136 136 136 330 406 406 406>
VStem: 60 76<181 505> 288 63<-96.5 -75> 330 76<151 505 0 505> 340.5 65.5
AnchorPoint: "Anchor-5" 451 505 basechar 0
AnchorPoint: "Anchor-4" 234 505 basechar 0
AnchorPoint: "Anchor-3" 406 0 basechar 0
AnchorPoint: "Anchor-2" 234 0 basechar 0
LayerCount: 2
Fore
SplineSet
414 -129 m 0xdc
 423 -129 432 -128 440 -125 c 1
 440 -185 l 1
 426 -187 412 -188 399 -188 c 0
 334 -188 288 -161 288 -94 c 0xdc
 288 -56 303 -30 341 0 c 1
 345 0 l 1xb9
 336 60 l 1
 310 19 270 -10 213 -10 c 0
 116 -10 60 32 60 181 c 2
 60 505 l 1
 136 505 l 1
 136 180 l 2
 136 86 169 45 227 45 c 0xd9
 283 45 315 94 330 151 c 1
 330 505 l 1
 406 505 l 1
 406 0 l 1xba
 369 -28 351 -54 351 -80 c 0
 351 -113 383 -129 414 -129 c 0xdc
EndSplineSet
EndChar

StartChar: uring
Encoding: 367 367 210
Width: 471
VWidth: 1220
GlyphClass: 2
Flags: MW
HStem: -10 55<198 241.5> 0 21G<345 406 345 345> 485 20G<60 136 136 136 330 406 406 406> 548 49<218.5 233> 568 49 699 49<219.5 247>
VStem: 60 76<181 505> 135 48<634.5 663.5 634.5 675.5> 284 48<634.5 649 622.5 663.5> 330 76<151 505 0 505>
AnchorPoint: "Anchor-5" 451 505 basechar 0
AnchorPoint: "Anchor-4" 234 748 basechar 0
AnchorPoint: "Anchor-3" 406 0 basechar 0
AnchorPoint: "Anchor-2" 234 0 basechar 0
LayerCount: 2
Fore
SplineSet
233 548 m 0x7540
 180 548 135 592 135 649 c 0
 135 702 174 748 235 748 c 0
 284 748 330 705 332 649 c 0x7580
 332 596 292 550 233 548 c 0x7540
233 597 m 0
 262 597 284 620 284 649 c 0
 284 678 260 699 234 699 c 0
 205 699 183 678 183 649 c 0
 183 620 204 597 233 597 c 0
213 -10 m 0xad80
 116 -10 60 32 60 181 c 2
 60 505 l 1xae40
 136 505 l 1
 136 180 l 2
 136 86 169 45 227 45 c 0xad40
 283 45 315 94 330 151 c 1
 330 505 l 1
 406 505 l 1x6d40
 406 0 l 1
 345 0 l 1x6d80
 336 60 l 1
 310 19 270 -10 213 -10 c 0xad80
EndSplineSet
EndChar

StartChar: v
Encoding: 118 118 211
Width: 443
VWidth: 1200
GlyphClass: 2
Flags: MW
HStem: 0 64<222 222 222 276 167 222> 485 20G<25 101 101 101 342 418 418 418>
VStem: 25 393<505 505>
AnchorPoint: "Anchor-4" 223 505 basechar 0
AnchorPoint: "Anchor-2" 223 0 basechar 0
LayerCount: 2
Fore
SplineSet
222 64 m 1
 342 505 l 1
 418 505 l 1
 276 0 l 1
 167 0 l 1
 25 505 l 1
 101 505 l 1
 222 64 l 1
EndSplineSet
EndChar

StartChar: w
Encoding: 119 119 212
Width: 676
VWidth: 1200
GlyphClass: 2
Flags: MW
HStem: 0 67<203 203 203 252 140 203> 448 57<338 338>
VStem: 25 626<505 505>
AnchorPoint: "Anchor-4" 338 505 basechar 0
AnchorPoint: "Anchor-2" 338 0 basechar 0
LayerCount: 2
Fore
SplineSet
389 505 m 1
 473 67 l 1
 573 505 l 1
 651 505 l 1
 536 0 l 1
 424 0 l 1
 338 448 l 1
 252 0 l 1
 140 0 l 1
 25 505 l 1
 103 505 l 1
 203 67 l 1
 287 505 l 1
 389 505 l 1
EndSplineSet
EndChar

StartChar: wacute
Encoding: 7811 7811 213
Width: 676
VWidth: 1220
GlyphClass: 2
Flags: MW
HStem: 0 67<203 203 203 252 140 203> 448 57<338 338> 586 141<304 492 304 492>
VStem: 25 626<505 505>
AnchorPoint: "Anchor-4" 338 727 basechar 0
AnchorPoint: "Anchor-2" 338 0 basechar 0
LayerCount: 2
Fore
SplineSet
393 727 m 1
 492 727 l 1
 371 586 l 1
 304 586 l 1
 393 727 l 1
473 67 m 1
 573 505 l 1
 651 505 l 1
 536 0 l 1
 424 0 l 1
 338 448 l 1
 252 0 l 1
 140 0 l 1
 25 505 l 1
 103 505 l 1
 203 67 l 1
 287 505 l 1
 389 505 l 1
 473 67 l 1
EndSplineSet
EndChar

StartChar: wcircumflex
Encoding: 373 373 214
Width: 676
VWidth: 1220
GlyphClass: 2
Flags: MW
HStem: 0 67<203 203 203 252 140 203> 448 57<338 338> 586 141<207 379 207 379 297 469 297 394> 680 47<338 338>
VStem: 25 626<505 505>
AnchorPoint: "Anchor-4" 338 727 basechar 0
AnchorPoint: "Anchor-2" 338 0 basechar 0
LayerCount: 2
Fore
SplineSet
394 586 m 1xe8
 338 680 l 1xd8
 282 586 l 1
 207 586 l 1
 297 727 l 1
 379 727 l 1
 469 586 l 1
 394 586 l 1xe8
473 67 m 1
 573 505 l 1
 651 505 l 1
 536 0 l 1
 424 0 l 1
 338 448 l 1
 252 0 l 1
 140 0 l 1
 25 505 l 1
 103 505 l 1
 203 67 l 1
 287 505 l 1
 389 505 l 1
 473 67 l 1
EndSplineSet
EndChar

StartChar: wdieresis
Encoding: 7813 7813 215
Width: 676
VWidth: 1220
GlyphClass: 2
Flags: MW
HStem: 0 67<203 203 203 252 140 203> 448 57<338 338> 611 83
VStem: 208 80<591 674> 377 80 388 80<591 674>
AnchorPoint: "Anchor-4" 338 674 basechar 0
AnchorPoint: "Anchor-2" 338 0 basechar 0
LayerCount: 2
Fore
SplineSet
288 591 m 1xf8
 208 591 l 1
 208 674 l 1
 288 674 l 1
 288 591 l 1xf8
468 591 m 1xf4
 388 591 l 1
 388 674 l 1
 468 674 l 1
 468 591 l 1xf4
389 505 m 1
 473 67 l 1
 573 505 l 1
 651 505 l 1
 536 0 l 1
 424 0 l 1
 338 448 l 1
 252 0 l 1
 140 0 l 1
 25 505 l 1
 103 505 l 1
 203 67 l 1
 287 505 l 1
 389 505 l 1
EndSplineSet
EndChar

StartChar: wgrave
Encoding: 7809 7809 216
Width: 676
VWidth: 1220
GlyphClass: 2
Flags: MW
HStem: 0 67<203 203 203 252 140 203> 448 57<338 338> 586 141<184 372 184 305>
VStem: 25 626<505 505>
AnchorPoint: "Anchor-4" 338 727 basechar 0
AnchorPoint: "Anchor-2" 338 0 basechar 0
LayerCount: 2
Fore
SplineSet
372 586 m 1
 305 586 l 1
 184 727 l 1
 283 727 l 1
 372 586 l 1
389 505 m 1
 473 67 l 1
 573 505 l 1
 651 505 l 1
 536 0 l 1
 424 0 l 1
 338 448 l 1
 252 0 l 1
 140 0 l 1
 25 505 l 1
 103 505 l 1
 203 67 l 1
 287 505 l 1
 389 505 l 1
EndSplineSet
EndChar

StartChar: x
Encoding: 120 120 217
Width: 434
VWidth: 1200
GlyphClass: 2
Flags: MW
HStem: 0 21G<25 109 25 25 325 409 325 325> 485 20G<25 109 109 109 325 409 409 409>
VStem: 25 384<0 0>
AnchorPoint: "Anchor-4" 217 505 basechar 0
AnchorPoint: "Anchor-2" 217 0 basechar 0
LayerCount: 2
Fore
SplineSet
325 505 m 1
 409 505 l 1
 259 253 l 1
 409 0 l 1
 325 0 l 1
 217 182 l 1
 109 0 l 1
 25 0 l 1
 175 253 l 1
 25 505 l 1
 109 505 l 1
 217 323 l 1
 325 505 l 1
EndSplineSet
EndChar

StartChar: y
Encoding: 121 121 218
Width: 455
VWidth: 1200
GlyphClass: 2
Flags: MW
HStem: -190 21G<128 204 128 128> 485 20G<25 100 100 100 354 430 430 430>
VStem: 25 405<505 505>
AnchorPoint: "Anchor-4" 227 505 basechar 0
AnchorPoint: "Anchor-2" 227 0 basechar 0
LayerCount: 2
Fore
SplineSet
100 505 m 1
 227 115 l 1
 354 505 l 1
 430 505 l 1
 204 -190 l 1
 128 -190 l 1
 190 0 l 1
 25 505 l 1
 100 505 l 1
EndSplineSet
EndChar

StartChar: yacute
Encoding: 253 253 219
Width: 455
VWidth: 1220
GlyphClass: 2
Flags: MW
HStem: -190 21G<128 204 128 128> 485 20G<25 100 100 100 354 430 430 430> 586 141<193 381 193 381>
VStem: 25 405<505 505>
AnchorPoint: "Anchor-4" 227 727 basechar 0
AnchorPoint: "Anchor-2" 227 0 basechar 0
LayerCount: 2
Fore
SplineSet
282 727 m 1
 381 727 l 1
 260 586 l 1
 193 586 l 1
 282 727 l 1
227 115 m 1
 354 505 l 1
 430 505 l 1
 204 -190 l 1
 128 -190 l 1
 190 0 l 1
 25 505 l 1
 100 505 l 1
 227 115 l 1
EndSplineSet
EndChar

StartChar: ycircumflex
Encoding: 375 375 220
Width: 455
VWidth: 1220
GlyphClass: 2
Flags: MW
HStem: -190 21G<128 204 128 128> 485 20G<25 100 100 100 354 430 430 430> 586 141<96 268 96 268 186 358 186 283> 680 47<227 227>
VStem: 25 405<505 505>
AnchorPoint: "Anchor-4" 227 727 basechar 0
AnchorPoint: "Anchor-2" 227 0 basechar 0
LayerCount: 2
Fore
SplineSet
283 586 m 1xe8
 227 680 l 1xd8
 171 586 l 1
 96 586 l 1
 186 727 l 1
 268 727 l 1
 358 586 l 1
 283 586 l 1xe8
227 115 m 1
 354 505 l 1
 430 505 l 1
 204 -190 l 1
 128 -190 l 1
 190 0 l 1
 25 505 l 1
 100 505 l 1
 227 115 l 1
EndSplineSet
EndChar

StartChar: ydieresis
Encoding: 255 255 221
Width: 455
VWidth: 1220
GlyphClass: 2
Flags: MW
HStem: -190 21G<128 204 128 128> 485 20G<25 100 100 100 354 430 430 430> 611 83
VStem: 97 80<591 674> 277 80<591 674>
AnchorPoint: "Anchor-4" 227 674 basechar 0
AnchorPoint: "Anchor-2" 227 0 basechar 0
LayerCount: 2
Fore
SplineSet
177 591 m 1
 97 591 l 1
 97 674 l 1
 177 674 l 1
 177 591 l 1
357 591 m 1
 277 591 l 1
 277 674 l 1
 357 674 l 1
 357 591 l 1
100 505 m 1
 227 115 l 1
 354 505 l 1
 430 505 l 1
 204 -190 l 1
 128 -190 l 1
 190 0 l 1
 25 505 l 1
 100 505 l 1
EndSplineSet
EndChar

StartChar: ygrave
Encoding: 7923 7923 222
Width: 455
VWidth: 1220
GlyphClass: 2
Flags: MW
HStem: -190 21G<128 204 128 128> 485 20G<25 100 100 100 354 430 430 430> 586 141<73 261 73 194>
VStem: 25 405<505 505>
AnchorPoint: "Anchor-4" 227 727 basechar 0
AnchorPoint: "Anchor-2" 227 0 basechar 0
LayerCount: 2
Fore
SplineSet
261 586 m 1
 194 586 l 1
 73 727 l 1
 172 727 l 1
 261 586 l 1
100 505 m 1
 227 115 l 1
 354 505 l 1
 430 505 l 1
 204 -190 l 1
 128 -190 l 1
 190 0 l 1
 25 505 l 1
 100 505 l 1
EndSplineSet
EndChar

StartChar: z
Encoding: 122 122 223
Width: 406
VWidth: 1200
GlyphClass: 2
Flags: MW
HStem: 0 55<129 361 129 361> 450 55<56 277 56 359>
VStem: 45 316<0 55 0 57 0 57>
AnchorPoint: "Anchor-4" 208 505 basechar 0
AnchorPoint: "Anchor-2" 200 0 basechar 0
LayerCount: 2
Fore
SplineSet
361 55 m 1
 361 0 l 1
 45 0 l 1
 45 57 l 1
 277 450 l 1
 56 450 l 1
 56 505 l 1
 359 505 l 1
 359 448 l 1
 129 55 l 1
 361 55 l 1
EndSplineSet
EndChar

StartChar: zacute
Encoding: 378 378 224
Width: 406
VWidth: 1220
GlyphClass: 2
Flags: MW
HStem: 0 55<129 361 129 361> 450 55<56 277 56 359> 586 141<174 362 174 362>
VStem: 45 317
AnchorPoint: "Anchor-4" 208 727 basechar 0
AnchorPoint: "Anchor-2" 200 0 basechar 0
LayerCount: 2
Fore
SplineSet
241 586 m 1
 174 586 l 1
 263 727 l 1
 362 727 l 1
 241 586 l 1
361 0 m 1
 45 0 l 1
 45 57 l 1
 277 450 l 1
 56 450 l 1
 56 505 l 1
 359 505 l 1
 359 448 l 1
 129 55 l 1
 361 55 l 1
 361 0 l 1
EndSplineSet
EndChar

StartChar: zcaron
Encoding: 382 382 225
Width: 406
VWidth: 1220
GlyphClass: 2
Flags: MW
HStem: 0 55<129 361 129 361> 450 55<56 277 56 359> 586 141<77 249 77 167>
VStem: 62 292
AnchorPoint: "Anchor-4" 208 727 basechar 0
AnchorPoint: "Anchor-2" 200 0 basechar 0
LayerCount: 2
Fore
SplineSet
264 727 m 1
 339 727 l 1
 249 586 l 1
 167 586 l 1
 77 727 l 1
 152 727 l 1
 208 633 l 1
 264 727 l 1
361 55 m 1
 361 0 l 1
 45 0 l 1
 45 57 l 1
 277 450 l 1
 56 450 l 1
 56 505 l 1
 359 505 l 1
 359 448 l 1
 129 55 l 1
 361 55 l 1
EndSplineSet
EndChar

StartChar: zdotaccent
Encoding: 380 380 226
Width: 406
VWidth: 1220
GlyphClass: 2
Flags: MW
HStem: 0 55<129 361 129 361> 450 55<56 277 56 359> 591 83<168 248 168 248>
VStem: 168 80<591 674>
AnchorPoint: "Anchor-4" 208 674 basechar 0
AnchorPoint: "Anchor-2" 200 0 basechar 0
LayerCount: 2
Fore
SplineSet
248 591 m 1
 168 591 l 1
 168 674 l 1
 248 674 l 1
 248 591 l 1
361 55 m 1
 361 0 l 1
 45 0 l 1
 45 57 l 1
 277 450 l 1
 56 450 l 1
 56 505 l 1
 359 505 l 1
 359 448 l 1
 129 55 l 1
 361 55 l 1
EndSplineSet
EndChar

StartChar: ordfeminine
Encoding: 170 170 227
Width: 332
VWidth: 1220
GlyphClass: 1
Flags: MW
HStem: 262 55<45 287 45 287> 383 48<144.5 164.5> 389 42 559 45<182 185 185 223> 693 44<150 188>
VStem: 44 64<471 509.5 471 522> 52 64<647 663.5> 223 64<389 422 422 422 478 559 559 559>
LayerCount: 2
Fore
SplineSet
170 737 m 0xdd
 259 737 287 704 287 601 c 2
 287 389 l 1
 223 389 l 1xbd
 223 422 l 1
 207 401 185 383 144 383 c 0
 83 383 44 424 44 486 c 0xdd
 44 558 98 604 182 604 c 2
 223 604 l 1
 223 616 l 2
 223 670 207 693 169 693 c 0
 131 693 116 680 116 647 c 1
 52 647 l 1xdb
 51 705 94 737 170 737 c 0xdd
159 431 m 0
 187 431 209 451 223 478 c 1
 223 559 l 1
 185 559 l 2
 136 559 108 532 108 487 c 0
 108 455 130 431 159 431 c 0
287 262 m 1
 45 262 l 1
 45 317 l 1
 287 317 l 1
 287 262 l 1
EndSplineSet
EndChar

StartChar: ordmasculine
Encoding: 186 186 228
Width: 342
VWidth: 1220
GlyphClass: 1
Flags: MW
HStem: 262 55<45 297 45 297> 383 44<149.5 189 149.5 210.5> 693 44<150 188.5>
VStem: 45 64<520 598> 45 252<262 317 262 317 520 598> 233 64<519 520 520 598>
LayerCount: 2
Fore
SplineSet
169 383 m 0xf4
 88 383 45 430 45 520 c 2
 45 598 l 2
 45 689 88 737 169 737 c 0
 251 737 297 687 297 598 c 2
 297 520 l 2
 297 432 252 383 169 383 c 0xf4
169 427 m 0
 209 427 233 460 233 519 c 2
 233 598 l 2
 233 658 208 693 169 693 c 0
 131 693 109 659 109 598 c 2
 109 519 l 2
 109 459 130 427 169 427 c 0
45 262 m 1xe8
 45 317 l 1
 297 317 l 1
 297 262 l 1
 45 262 l 1xe8
EndSplineSet
EndChar

StartChar: zero
Encoding: 48 48 229
Width: 483
VWidth: 1200
GlyphClass: 1
Flags: MW
HStem: -10 67<192 281.5 192 310> 670 67<192 282>
VStem: 54 76<256 470 470 472> 352 76<254 256 256 470>
LayerCount: 2
Fore
SplineSet
237 -10 m 0
 91 -10 54 115 54 256 c 2
 54 470 l 2
 54 617 91 737 237 737 c 0
 383 737 428 619 428 470 c 2
 428 256 l 2
 428 114 383 -10 237 -10 c 0
237 57 m 0
 326 57 352 150 352 254 c 2
 352 472 l 2
 352 580 327 670 237 670 c 0
 147 670 130 575 130 472 c 2
 130 254 l 2
 130 150 147 57 237 57 c 0
EndSplineSet
Substitution2: "'frac' Diagonal Fractions in Latin lookup 9 subtable" zero.numr
Substitution2: "'aalt' Access All Alternates in Latin lookup 0 subtable" zero.numr
EndChar

StartChar: one
Encoding: 49 49 230
Width: 483
VWidth: 1200
GlyphClass: 1
Flags: MW
HStem: 0 21G<238 314 238 238> 641 86<238 238> 707 20G<233 314 314 314>
VStem: 79 235<559 645 645 645> 238 76<0 641 641 641>
LayerCount: 2
Fore
SplineSet
314 0 m 1xa8
 238 0 l 1
 238 641 l 1xc8
 79 559 l 1
 79 645 l 1xd0
 233 727 l 1
 314 727 l 1
 314 0 l 1xa8
EndSplineSet
Substitution2: "'frac' Diagonal Fractions in Latin lookup 9 subtable" one.numr
Substitution2: "'aalt' Access All Alternates in Latin lookup 0 subtable" one.numr
EndChar

StartChar: two
Encoding: 50 50 231
Width: 483
VWidth: 1200
GlyphClass: 1
Flags: MW
HStem: 0 70<145 435 145 435> 670 67<205 275.5>
VStem: 66 78<540 586> 345 76<513 603.5>
LayerCount: 2
Fore
SplineSet
435 0 m 1
 61 0 l 1
 61 75 l 1
 332 428 345 456 345 570 c 0
 345 637 311 670 240 670 c 0
 170 670 144 632 144 540 c 1
 66 540 l 1
 61 679 126 737 247 737 c 0
 353 737 421 679 421 556 c 0
 421 454 405 388 145 70 c 1
 435 70 l 1
 435 0 l 1
EndSplineSet
Substitution2: "'frac' Diagonal Fractions in Latin lookup 9 subtable" two.numr
Substitution2: "'aalt' Access All Alternates in Latin lookup 0 subtable" two.numr
EndChar

StartChar: three
Encoding: 51 51 232
Width: 483
VWidth: 1200
GlyphClass: 1
Flags: MW
HStem: -10 67<192.5 270 192.5 292.5> 346 70<185 246.5> 670 67<191.5 264>
VStem: 42 76<199 199> 49 76<529 603.5> 334 76<512.5 593.5> 349 76<155 253>
LayerCount: 2
Fore
SplineSet
228 -10 m 0xf2
 101 -10 44 53 42 199 c 1
 118 199 l 1
 125 89 154 57 231 57 c 0
 309 57 349 105 349 205 c 0xf2
 349 301 308 346 185 346 c 1
 185 416 l 1
 289 417 334 462 334 563 c 0
 334 624 301 670 227 670 c 0
 156 670 129 632 125 529 c 1
 49 529 l 1
 49 678 118 737 227 737 c 0
 347 737 410 669 410 552 c 0xec
 410 460 372 406 291 386 c 1
 384 364 425 308 425 202 c 0
 425 66 357 -10 228 -10 c 0xf2
EndSplineSet
Substitution2: "'frac' Diagonal Fractions in Latin lookup 9 subtable" three.numr
Substitution2: "'aalt' Access All Alternates in Latin lookup 0 subtable" three.numr
EndChar

StartChar: four
Encoding: 52 52 233
Width: 483
VWidth: 1200
GlyphClass: 1
Flags: MW
HStem: 0 21G<304 380 304 304> 177 68<104 304 104 304 380 449> 659 68<299 304 299 299>
VStem: 29 75<245 252 252 252> 304 76<0 177 245 659 659 659>
LayerCount: 2
Fore
SplineSet
380 0 m 1
 304 0 l 1
 304 177 l 1
 29 177 l 1
 29 252 l 1
 258 727 l 1
 380 727 l 1
 380 245 l 1
 449 245 l 1
 449 177 l 1
 380 177 l 1
 380 0 l 1
104 253 m 1
 104 245 l 1
 304 245 l 1
 304 659 l 1
 299 659 l 1
 104 253 l 1
EndSplineSet
Substitution2: "'frac' Diagonal Fractions in Latin lookup 9 subtable" four.numr
Substitution2: "'aalt' Access All Alternates in Latin lookup 0 subtable" four.numr
EndChar

StartChar: five
Encoding: 53 53 234
Width: 483
VWidth: 1200
GlyphClass: 1
Flags: MW
HStem: -10 67<214.5 284.5 214.5 311> 419 63<257 285> 657 70<160 412 160 160>
VStem: 71 77<163 163> 80 77 363 76<166.5 297.5>
LayerCount: 2
Fore
SplineSet
71 163 m 1xf4
 148 163 l 1xf4
 152 88 180 57 249 57 c 0
 320 57 363 101 363 232 c 0
 363 363 315 419 255 419 c 0
 198 419 162 374 150 305 c 1
 74 305 l 1
 86 727 l 1
 412 727 l 1
 412 657 l 1
 160 657 l 1
 154 420 l 1xec
 196 467 237 482 277 482 c 0
 364 482 439 404 439 243 c 0
 439 66 371 -10 251 -10 c 0
 128 -10 77 44 71 163 c 1xf4
EndSplineSet
Substitution2: "'frac' Diagonal Fractions in Latin lookup 9 subtable" five.numr
Substitution2: "'aalt' Access All Alternates in Latin lookup 0 subtable" five.numr
EndChar

StartChar: six
Encoding: 54 54 235
Width: 483
VWidth: 1200
GlyphClass: 1
Flags: MW
HStem: -10 67<211 283 211 308.5> 403 67<244.5 286.5> 670 67<210 282>
VStem: 62 77<242 290.5 399 451> 344 80<557 557> 362 76<175.5 290.5>
LayerCount: 2
Fore
SplineSet
62 353 m 0xf4
 62 588 81 737 256 737 c 0
 367 737 417 681 424 557 c 1
 344 557 l 1xf8
 342 635 313 670 251 670 c 0
 169 670 139 610 139 451 c 2
 139 399 l 1
 178 455 224 470 265 470 c 0
 375 470 438 383 438 232 c 0
 438 75 371 -10 246 -10 c 0
 68 -10 62 131 62 353 c 0xf4
246 57 m 0
 320 57 362 119 362 232 c 0
 362 349 324 403 249 403 c 0
 175 403 139 349 139 232 c 0
 139 119 176 57 246 57 c 0
EndSplineSet
Substitution2: "'frac' Diagonal Fractions in Latin lookup 9 subtable" six.numr
Substitution2: "'aalt' Access All Alternates in Latin lookup 0 subtable" six.numr
EndChar

StartChar: seven
Encoding: 55 55 236
Width: 483
VWidth: 1200
GlyphClass: 1
Flags: MW
HStem: 0 21G<119 204 119 119> 653 74<42 364 42 440>
VStem: 364 76<653 727>
LayerCount: 2
Fore
SplineSet
204 0 m 1
 119 0 l 1
 364 653 l 1
 42 653 l 1
 42 727 l 1
 440 727 l 1
 440 658 l 1
 204 0 l 1
EndSplineSet
Substitution2: "'frac' Diagonal Fractions in Latin lookup 9 subtable" seven.numr
Substitution2: "'aalt' Access All Alternates in Latin lookup 0 subtable" seven.numr
EndChar

StartChar: eight
Encoding: 56 56 237
Width: 483
VWidth: 1200
GlyphClass: 1
Flags: MW
HStem: -10 67<200 284 200 312> 342 64<202 277 202 287> 670 67<208.5 276.5>
VStem: 57 76<153 229.5 153 235.5> 63 76<512.5 584 512.5 601.5> 344 76<510 584> 350 76<153 232>
LayerCount: 2
Fore
SplineSet
311 375 m 1xf2
 395 350 426 276 426 196 c 0
 426 74 382 -10 242 -10 c 0
 102 -10 57 75 57 196 c 0xf2
 57 275 89 349 174 375 c 1
 101 400 63 466 63 551 c 0
 63 652 112 737 242 737 c 0
 372 737 420 653 420 551 c 0xec
 420 466 383 400 311 375 c 1xf2
242 670 m 0xec
 175 670 139 629 139 539 c 0
 139 486 162 406 242 406 c 0
 312 406 344 481 344 539 c 0
 344 629 311 670 242 670 c 0xec
242 57 m 0xf2
 326 57 350 108 350 198 c 0
 350 266 332 342 242 342 c 0
 152 342 133 261 133 198 c 0
 133 108 158 57 242 57 c 0xf2
EndSplineSet
Substitution2: "'frac' Diagonal Fractions in Latin lookup 9 subtable" eight.numr
Substitution2: "'aalt' Access All Alternates in Latin lookup 0 subtable" eight.numr
EndChar

StartChar: nine
Encoding: 57 57 238
Width: 483
VWidth: 1200
GlyphClass: 1
Flags: MW
HStem: -10 67<201 273 201 314.5> 257 67<196.5 238.5> 670 67<200 272>
VStem: 45 76<436.5 551.5 436.5 573.5> 59 80<170 170> 344 77<276 328 328 328 436.5 485 256.5 551.5>
LayerCount: 2
Fore
SplineSet
421 374 m 0xf4
 421 139 402 -10 227 -10 c 0
 116 -10 66 46 59 170 c 1
 139 170 l 1xec
 141 92 170 57 232 57 c 0
 314 57 344 117 344 276 c 2
 344 328 l 1
 305 272 259 257 218 257 c 0
 108 257 45 344 45 495 c 0
 45 652 112 737 237 737 c 0
 415 737 421 596 421 374 c 0xf4
237 670 m 0
 163 670 121 608 121 495 c 0
 121 378 159 324 234 324 c 0
 308 324 344 378 344 495 c 0
 344 608 307 670 237 670 c 0
EndSplineSet
Substitution2: "'frac' Diagonal Fractions in Latin lookup 9 subtable" nine.numr
Substitution2: "'aalt' Access All Alternates in Latin lookup 0 subtable" nine.numr
EndChar

StartChar: zero.dnom
Encoding: 65538 -1 239
Width: 319
VWidth: 1220
GlyphClass: 1
Flags: MW
HStem: -7 53<129.5 178.5 129.5 199.5> 442 52<129.5 179>
VStem: 29 64<173 314 314 316> 225 64<172 173 173 314>
LayerCount: 2
Fore
SplineSet
156 -7 m 0
 71 -7 29 53 29 173 c 2
 29 314 l 2
 29 436 69 494 156 494 c 0
 245 494 289 434 289 314 c 2
 289 173 l 2
 289 55 243 -7 156 -7 c 0
156 46 m 0
 201 46 225 90 225 172 c 2
 225 316 l 2
 225 400 202 442 156 442 c 0
 103 442 93 384 93 316 c 2
 93 172 l 2
 93 103 103 46 156 46 c 0
EndSplineSet
EndChar

StartChar: one.dnom
Encoding: 65539 -1 240
Width: 319
VWidth: 1220
GlyphClass: 1
Flags: MW
HStem: 0 21G<150 214 150 150> 418 70<150 214>
VStem: 45 169<364 432 432 432> 150 64<0 418 418 418>
LayerCount: 2
Fore
SplineSet
214 0 m 1xd0
 150 0 l 1
 150 418 l 1xd0
 45 364 l 1
 45 432 l 1xe0
 152 488 l 1
 214 488 l 1
 214 0 l 1xd0
EndSplineSet
EndChar

StartChar: two.dnom
Encoding: 65540 -1 241
Width: 319
VWidth: 1220
GlyphClass: 1
Flags: MW
HStem: 0 54<107 294 107 294> 442 52<137.5 179.5>
VStem: 33 261<0 54 0 55 0 55> 37 65<356 356> 221 64<342.5 401>
LayerCount: 2
Fore
SplineSet
294 0 m 1xe0
 33 0 l 1xe0
 33 55 l 1
 212 287 221 305 221 380 c 0
 221 422 201 442 158 442 c 0
 117 442 101 419 102 356 c 1
 37 356 l 1
 32 449 73 494 163 494 c 0
 241 494 285 450 285 371 c 0xd8
 285 305 274 260 107 54 c 1
 294 54 l 1
 294 0 l 1xe0
EndSplineSet
EndChar

StartChar: three.dnom
Encoding: 65541 -1 242
Width: 319
VWidth: 1220
GlyphClass: 1
Flags: MW
HStem: -7 53<128.5 176 128.5 194.5> 228 55<115 115> 442 52<128.5 170>
VStem: 21 64<89 139> 25 65<349 349> 213 65<342 397> 223 65<107 170.5 91 174>
LayerCount: 2
Fore
SplineSet
201 260 m 1xea
 262 242 288 204 288 137 c 0
 288 45 239 -7 150 -7 c 0
 61 -7 21 39 21 139 c 1
 85 139 l 1
 89 67 105 46 152 46 c 0
 200 46 223 75 223 139 c 0xf2
 223 209 198 229 115 228 c 1
 115 283 l 1
 184 281 213 308 213 376 c 0
 213 418 190 442 150 442 c 0
 107 442 91 418 90 349 c 1
 25 349 l 1
 24 445 66 494 150 494 c 0
 232 494 278 449 278 368 c 0xec
 278 310 254 275 201 260 c 1xea
EndSplineSet
EndChar

StartChar: four.dnom
Encoding: 65542 -1 243
Width: 319
VWidth: 1220
GlyphClass: 1
Flags: MW
HStem: 0 170<194 194 258 258> 117 53<76 194 12 12 258 303> 418 70<194 194>
VStem: 194 64<0 117 0 117 170 418 418 418>
LayerCount: 2
Fore
SplineSet
258 488 m 1x70
 258 170 l 1
 303 170 l 1
 303 117 l 1
 258 117 l 1x70
 258 0 l 1
 194 0 l 1xb0
 194 117 l 1
 12 117 l 1
 12 170 l 1
 165 488 l 1
 258 488 l 1x70
76 171 m 1
 76 170 l 1
 194 170 l 1
 194 418 l 1
 76 171 l 1
EndSplineSet
EndChar

StartChar: five.dnom
Encoding: 65543 -1 244
Width: 319
VWidth: 1220
GlyphClass: 1
Flags: MW
HStem: -7 53<143 187.5 143 209.5> 270 50<180 189> 434 54<113 279 113 113>
VStem: 40 65<116 116> 46 59 46 65 233 64<119 194>
LayerCount: 2
Fore
SplineSet
189 320 m 0xe6
 259 320 297 264 297 164 c 0
 297 50 253 -7 166 -7 c 0
 81 -7 43 30 40 116 c 1xf2
 105 116 l 1
 106 65 122 46 164 46 c 0
 211 46 233 81 233 157 c 0
 233 231 210 270 168 270 c 0
 134 270 112 247 105 201 c 1xea
 42 201 l 1
 50 488 l 1
 279 488 l 1
 279 434 l 1
 113 434 l 1
 109 292 l 1
 139 317 171 320 189 320 c 0xe6
EndSplineSet
EndChar

StartChar: six.dnom
Encoding: 65544 -1 245
Width: 319
VWidth: 1220
GlyphClass: 1
Flags: MW
HStem: -7 53<142 184 142 205.5> 259 53<160.5 187> 442 52<142 184.5>
VStem: 34 65<163.5 191.5 279 302> 220 67<368 394> 232 64<121.5 191.5>
LayerCount: 2
Fore
SplineSet
175 312 m 0xf4
 252 312 296 256 296 157 c 0xf4
 296 51 249 -7 162 -7 c 0
 38 -7 34 90 34 237 c 0
 34 392 46 494 169 494 c 0
 246 494 283 455 287 368 c 1
 220 368 l 1xf8
 220 420 203 442 166 442 c 0
 118 442 99 404 99 302 c 2
 99 279 l 1
 119 300 146 312 175 312 c 0xf4
162 46 m 0
 206 46 232 86 232 157 c 0
 232 226 210 259 164 259 c 0
 120 259 99 226 99 157 c 0
 99 85 122 46 162 46 c 0
EndSplineSet
EndChar

StartChar: seven.dnom
Encoding: 65545 -1 246
Width: 319
VWidth: 1220
GlyphClass: 1
Flags: MW
HStem: 0 21G<70 141 70 70> 431 57<21 231 21 297>
VStem: 21 276<438 488 438 488 438 488>
LayerCount: 2
Fore
SplineSet
141 0 m 1
 70 0 l 1
 231 431 l 1
 21 431 l 1
 21 488 l 1
 297 488 l 1
 297 438 l 1
 141 0 l 1
EndSplineSet
EndChar

StartChar: eight.dnom
Encoding: 65546 -1 247
Width: 319
VWidth: 1220
GlyphClass: 1
Flags: MW
HStem: -7 53<136.5 183 136.5 203> 226 50<139 177 136.5 181.5> 442 52<139.5 180.5>
VStem: 31 64<102.5 162.5> 35 64<342.5 387.5 342.5 408> 220 64<340.5 388> 224 64<103 162.5 86 165>
LayerCount: 2
Fore
SplineSet
219 252 m 1xf2
 264 233 288 192 288 133 c 0
 288 39 246 -7 160 -7 c 0
 73 -7 31 39 31 133 c 0xf2
 31 192 56 233 102 252 c 1
 59 272 35 313 35 368 c 0
 35 448 81 494 160 494 c 0
 240 494 284 449 284 368 c 0xec
 284 313 261 272 219 252 c 1xf2
160 442 m 0xec
 119 442 99 415 99 360 c 0
 99 325 113 276 160 276 c 0
 194 276 220 313 220 360 c 0
 220 416 201 442 160 442 c 0xec
160 46 m 0xf2
 206 46 224 71 224 135 c 0
 224 195 203 226 160 226 c 0
 118 226 95 194 95 135 c 0
 95 70 113 46 160 46 c 0xf2
EndSplineSet
EndChar

StartChar: nine.dnom
Encoding: 65547 -1 248
Width: 319
VWidth: 1220
GlyphClass: 1
Flags: MW
HStem: -7 52<134.5 177 134.5 211.5> 175 53<132 158.5> 441 53<135 177>
VStem: 23 64<295.5 365.5 295.5 383> 32 67<93 119> 220 65<185 208 208 208 295.5 323.5 172.5 366>
LayerCount: 2
Fore
SplineSet
157 494 m 0xf4
 281 494 285 397 285 250 c 0
 285 95 273 -7 150 -7 c 0
 73 -7 36 32 32 119 c 1
 99 119 l 1xec
 99 67 116 45 153 45 c 0
 201 45 220 83 220 185 c 2
 220 208 l 1
 200 187 173 175 144 175 c 0
 67 175 23 231 23 330 c 0
 23 436 70 494 157 494 c 0xf4
155 228 m 0
 199 228 220 261 220 330 c 0
 220 402 197 441 157 441 c 0
 113 441 87 401 87 330 c 0
 87 261 109 228 155 228 c 0
EndSplineSet
EndChar

StartChar: zero.numr
Encoding: 65548 -1 249
Width: 319
VWidth: 1220
GlyphClass: 1
Flags: MW
HStem: 232 53<129.5 178.5 129.5 199.5> 681 52<129.5 179>
VStem: 29 64<412 553 553 555> 225 64<411 412 412 553>
LayerCount: 2
Fore
SplineSet
156 232 m 0
 71 232 29 292 29 412 c 2
 29 553 l 2
 29 675 69 733 156 733 c 0
 245 733 289 673 289 553 c 2
 289 412 l 2
 289 294 243 232 156 232 c 0
156 285 m 0
 201 285 225 329 225 411 c 2
 225 555 l 2
 225 639 202 681 156 681 c 0
 103 681 93 623 93 555 c 2
 93 411 l 2
 93 342 103 285 156 285 c 0
EndSplineSet
Substitution2: "Single Substitution lookup 12 subtable" zero.dnom
Substitution2: "'aalt' Access All Alternates in Latin lookup 0 subtable" zero.dnom
EndChar

StartChar: one.numr
Encoding: 65549 -1 250
Width: 319
VWidth: 1220
GlyphClass: 1
Flags: MW
HStem: 707 20G<152 214 214 214>
VStem: 45 169<603 671 671 671> 150 64<239 657 657 657>
LayerCount: 2
Fore
SplineSet
214 239 m 1xa0
 150 239 l 1
 150 657 l 1xa0
 45 603 l 1
 45 671 l 1xc0
 152 727 l 1
 214 727 l 1
 214 239 l 1xa0
EndSplineSet
Substitution2: "Single Substitution lookup 12 subtable" one.dnom
Substitution2: "'aalt' Access All Alternates in Latin lookup 0 subtable" one.dnom
EndChar

StartChar: two.numr
Encoding: 65550 -1 251
Width: 319
VWidth: 1220
GlyphClass: 1
Flags: MW
HStem: 239 54<107 294 107 294> 681 52<137.5 179.5>
VStem: 33 261<239 293 239 294 239 294> 37 65<595 595> 221 64<581.5 640>
LayerCount: 2
Fore
SplineSet
294 239 m 1xe0
 33 239 l 1xe0
 33 294 l 1
 212 526 221 544 221 619 c 0
 221 661 201 681 158 681 c 0
 117 681 101 658 102 595 c 1
 37 595 l 1
 32 688 73 733 163 733 c 0
 241 733 285 689 285 610 c 0xd8
 285 544 274 499 107 293 c 1
 294 293 l 1
 294 239 l 1xe0
EndSplineSet
Substitution2: "Single Substitution lookup 12 subtable" two.dnom
Substitution2: "'aalt' Access All Alternates in Latin lookup 0 subtable" two.dnom
EndChar

StartChar: three.numr
Encoding: 65551 -1 252
Width: 319
VWidth: 1220
GlyphClass: 1
Flags: MW
HStem: 232 53<128.5 176 128.5 194.5> 467 55<115 115> 681 52<128.5 170>
VStem: 21 64<328 378> 25 65<588 588> 213 65<581 636> 223 65<346 409.5 330 413>
LayerCount: 2
Fore
SplineSet
201 499 m 1xea
 262 481 288 443 288 376 c 0
 288 284 239 232 150 232 c 0
 61 232 21 278 21 378 c 1
 85 378 l 1
 89 306 105 285 152 285 c 0
 200 285 223 314 223 378 c 0xf2
 223 448 198 468 115 467 c 1
 115 522 l 1
 184 520 213 547 213 615 c 0
 213 657 190 681 150 681 c 0
 107 681 91 657 90 588 c 1
 25 588 l 1
 24 684 66 733 150 733 c 0
 232 733 278 688 278 607 c 0xec
 278 549 254 514 201 499 c 1xea
EndSplineSet
Substitution2: "Single Substitution lookup 12 subtable" three.dnom
Substitution2: "'aalt' Access All Alternates in Latin lookup 0 subtable" three.dnom
EndChar

StartChar: four.numr
Encoding: 65552 -1 253
Width: 319
VWidth: 1220
GlyphClass: 1
Flags: MW
HStem: 356 53<76 194 12 12 258 303> 657 70<194 194> 707 20G<165 258 258 258>
VStem: 194 64<239 356 239 356 409 657 657 657>
LayerCount: 2
Fore
SplineSet
258 727 m 1xb0
 258 409 l 1
 303 409 l 1
 303 356 l 1
 258 356 l 1
 258 239 l 1
 194 239 l 1
 194 356 l 1
 12 356 l 1
 12 409 l 1
 165 727 l 1
 258 727 l 1xb0
76 410 m 1
 76 409 l 1xb0
 194 409 l 1
 194 657 l 1xd0
 76 410 l 1
EndSplineSet
Substitution2: "Single Substitution lookup 12 subtable" four.dnom
Substitution2: "'aalt' Access All Alternates in Latin lookup 0 subtable" four.dnom
EndChar

StartChar: five.numr
Encoding: 65553 -1 254
Width: 319
VWidth: 1220
GlyphClass: 1
Flags: MW
HStem: 232 53<143 187.5 143 209.5> 509 50<180 189> 673 54<113 279 113 113>
VStem: 40 65<355 355> 46 59 46 65 233 64<358 433>
LayerCount: 2
Fore
SplineSet
189 559 m 0xe6
 259 559 297 503 297 403 c 0
 297 289 253 232 166 232 c 0
 81 232 43 269 40 355 c 1xf2
 105 355 l 1
 106 304 122 285 164 285 c 0
 211 285 233 320 233 396 c 0
 233 470 210 509 168 509 c 0
 134 509 112 486 105 440 c 1xea
 42 440 l 1
 50 727 l 1
 279 727 l 1
 279 673 l 1
 113 673 l 1
 109 531 l 1
 139 556 171 559 189 559 c 0xe6
EndSplineSet
Substitution2: "Single Substitution lookup 12 subtable" five.dnom
Substitution2: "'aalt' Access All Alternates in Latin lookup 0 subtable" five.dnom
EndChar

StartChar: six.numr
Encoding: 65554 -1 255
Width: 319
VWidth: 1220
GlyphClass: 1
Flags: MW
HStem: 232 53<142 184 142 205.5> 498 53<160.5 187> 681 52<142 184.5>
VStem: 34 65<402.5 430.5 518 541> 220 67<607 633> 232 64<360.5 430.5>
LayerCount: 2
Fore
SplineSet
175 551 m 0xf4
 252 551 296 495 296 396 c 0xf4
 296 290 249 232 162 232 c 0
 38 232 34 329 34 476 c 0
 34 631 46 733 169 733 c 0
 246 733 283 694 287 607 c 1
 220 607 l 1xf8
 220 659 203 681 166 681 c 0
 118 681 99 643 99 541 c 2
 99 518 l 1
 119 539 146 551 175 551 c 0xf4
162 285 m 0
 206 285 232 325 232 396 c 0
 232 465 210 498 164 498 c 0
 120 498 99 465 99 396 c 0
 99 324 122 285 162 285 c 0
EndSplineSet
Substitution2: "Single Substitution lookup 12 subtable" six.dnom
Substitution2: "'aalt' Access All Alternates in Latin lookup 0 subtable" six.dnom
EndChar

StartChar: seven.numr
Encoding: 65555 -1 256
Width: 319
VWidth: 1220
GlyphClass: 1
Flags: MW
HStem: 670 57<21 231 21 297>
VStem: 21 276<677 727 677 727 677 727>
LayerCount: 2
Fore
SplineSet
141 239 m 1
 70 239 l 1
 231 670 l 1
 21 670 l 1
 21 727 l 1
 297 727 l 1
 297 677 l 1
 141 239 l 1
EndSplineSet
Substitution2: "Single Substitution lookup 12 subtable" seven.dnom
Substitution2: "'aalt' Access All Alternates in Latin lookup 0 subtable" seven.dnom
EndChar

StartChar: eight.numr
Encoding: 65556 -1 257
Width: 319
VWidth: 1220
GlyphClass: 1
Flags: MW
HStem: 232 53<136.5 183 136.5 203> 465 50<139 177 136.5 181.5> 491 24 681 52<139.5 180.5>
VStem: 31 64<341.5 401.5> 35 64<581.5 626.5 581.5 647> 220 64<579.5 627> 224 64<342 401.5 325 404>
LayerCount: 2
Fore
SplineSet
219 491 m 1xb9
 264 472 288 431 288 372 c 0
 288 278 246 232 160 232 c 0
 73 232 31 278 31 372 c 0xd9
 31 431 56 472 102 491 c 1
 59 511 35 552 35 607 c 0
 35 687 81 733 160 733 c 0
 240 733 284 688 284 607 c 0xb6
 284 552 261 511 219 491 c 1xb9
160 681 m 0xd6
 119 681 99 654 99 599 c 0
 99 564 113 515 160 515 c 0
 194 515 220 552 220 599 c 0
 220 655 201 681 160 681 c 0xd6
160 285 m 0xd9
 206 285 224 310 224 374 c 0
 224 434 203 465 160 465 c 0
 118 465 95 433 95 374 c 0
 95 309 113 285 160 285 c 0xd9
EndSplineSet
Substitution2: "Single Substitution lookup 12 subtable" eight.dnom
Substitution2: "'aalt' Access All Alternates in Latin lookup 0 subtable" eight.dnom
EndChar

StartChar: nine.numr
Encoding: 65557 -1 258
Width: 319
VWidth: 1220
GlyphClass: 1
Flags: MW
HStem: 232 52<134.5 177 134.5 211.5> 414 53<132 158.5> 680 53<135 177>
VStem: 23 64<534.5 604.5 534.5 622> 32 67<332 358> 220 65<424 447 447 447 534.5 562.5 411.5 605>
LayerCount: 2
Fore
SplineSet
157 733 m 0xf4
 281 733 285 636 285 489 c 0
 285 334 273 232 150 232 c 0
 73 232 36 271 32 358 c 1
 99 358 l 1xec
 99 306 116 284 153 284 c 0
 201 284 220 322 220 424 c 2
 220 447 l 1
 200 426 173 414 144 414 c 0
 67 414 23 470 23 569 c 0
 23 675 70 733 157 733 c 0xf4
155 467 m 0
 199 467 220 500 220 569 c 0
 220 641 197 680 157 680 c 0
 113 680 87 640 87 569 c 0
 87 500 109 467 155 467 c 0
EndSplineSet
Substitution2: "Single Substitution lookup 12 subtable" nine.dnom
Substitution2: "'aalt' Access All Alternates in Latin lookup 0 subtable" nine.dnom
EndChar

StartChar: fraction
Encoding: 8260 8260 259
Width: 276
VWidth: 1200
GlyphClass: 1
Flags: MW
HStem: 0 21G<-80 -14 -80 -80> 707 20G<291 356 356 356>
VStem: -80 436
LayerCount: 2
Fore
SplineSet
-14 0 m 1
 -80 0 l 1
 291 727 l 1
 356 727 l 1
 -14 0 l 1
EndSplineSet
EndChar

StartChar: onehalf
Encoding: 189 189 260
Width: 914
VWidth: 1220
GlyphClass: 1
Flags: MW
HStem: 0 54<702 889 702 889> 442 52<732.5 774.5> 657 70<150 214> 707 20G<152 214 214 214 610 675 675 675>
VStem: 45 169<603 671 671 671> 150 64<239 657 657 657> 632 65<356 356> 816 64<342.5 401>
LayerCount: 2
Fore
SplineSet
214 239 m 1xd7
 150 239 l 1
 150 657 l 1xe7
 45 603 l 1
 45 671 l 1xeb
 152 727 l 1
 214 727 l 1
 214 239 l 1xd7
305 0 m 1
 239 0 l 1
 610 727 l 1
 675 727 l 1
 305 0 l 1
889 0 m 1
 628 0 l 1
 628 55 l 1
 807 287 816 305 816 380 c 0
 816 422 796 442 753 442 c 0
 712 442 696 419 697 356 c 1
 632 356 l 1
 627 449 668 494 758 494 c 0
 836 494 880 450 880 371 c 0
 880 305 869 260 702 54 c 1
 889 54 l 1
 889 0 l 1
EndSplineSet
EndChar

StartChar: onequarter
Encoding: 188 188 261
Width: 864
VWidth: 1220
GlyphClass: 1
Flags: MW
HStem: 0 170<739 739 803 803> 117 53<621 739 557 557 803 848> 418 70<739 739> 657 70<150 214> 707 20G<152 214 214 214 610 675 675 675>
VStem: 45 169<603 671 671 671> 150 64<239 657 657 657> 739 64<0 117 0 117 170 418 418 418>
LayerCount: 2
Fore
SplineSet
45 603 m 1x75
 45 671 l 1xb5
 152 727 l 1
 214 727 l 1
 214 239 l 1
 150 239 l 1
 150 657 l 1x73
 45 603 l 1x75
239 0 m 1
 610 727 l 1
 675 727 l 1
 305 0 l 1
 239 0 l 1
803 488 m 1
 803 170 l 1
 848 170 l 1
 848 117 l 1
 803 117 l 1x6b
 803 0 l 1
 739 0 l 1xab
 739 117 l 1
 557 117 l 1
 557 170 l 1x6b
 710 488 l 1
 803 488 l 1
621 171 m 1
 621 170 l 1
 739 170 l 1
 739 418 l 1
 621 171 l 1
EndSplineSet
EndChar

StartChar: threequarters
Encoding: 190 190 262
Width: 864
VWidth: 1220
GlyphClass: 1
Flags: MW
HStem: 0 170<739 739 803 803> 117 53<621 739 557 557 803 848> 232 53<128.5 176 128.5 194.5> 418 70<739 739> 467 55<115 115> 681 52<128.5 170> 707 20G<610 675 675 675>
VStem: 21 64<328 378> 25 65<588 588> 213 65<581 636> 223 65<346 409.5 330 413> 739 64<0 117 0 117 170 418 418 418>
LayerCount: 2
Fore
SplineSet
288 376 m 0x6cb0
 288 284 239 232 150 232 c 0
 61 232 21 278 21 378 c 1
 85 378 l 1
 89 306 105 285 152 285 c 0
 200 285 223 314 223 378 c 0x6d30
 223 448 198 468 115 467 c 1
 115 522 l 1
 184 520 213 547 213 615 c 0
 213 657 190 681 150 681 c 0
 107 681 91 657 90 588 c 1
 25 588 l 1
 24 684 66 733 150 733 c 0
 232 733 278 688 278 607 c 0x6cd0
 278 549 254 514 201 499 c 1
 262 481 288 443 288 376 c 0x6cb0
239 0 m 1xb2b0
 610 727 l 1
 675 727 l 1
 305 0 l 1
 239 0 l 1xb2b0
803 488 m 1
 803 170 l 1
 848 170 l 1
 848 117 l 1
 803 117 l 1x74b0
 803 0 l 1
 739 0 l 1xacb0
 739 117 l 1
 557 117 l 1
 557 170 l 1x6cb0
 710 488 l 1
 803 488 l 1
621 171 m 1
 621 170 l 1
 739 170 l 1
 739 418 l 1
 621 171 l 1
EndSplineSet
EndChar

StartChar: oneeighth
Encoding: 8539 8539 263
Width: 914
VWidth: 1220
GlyphClass: 1
Flags: MW
HStem: -7 53<731.5 778 731.5 798> 0 21G<239 239 239 305> 226 50<734 772 731.5 776.5> 442 52<734.5 775.5> 657 70<150 214> 707 20G<152 214 214 214 610 675 675 675>
VStem: 45 169<603 671 671 671> 150 64<239 657 657 657> 626 64<102.5 162.5> 630 64<342.5 387.5 342.5 408> 815 64<340.5 388> 819 64<103 162.5 86 165>
LayerCount: 2
Fore
SplineSet
45 603 m 1xba90
 45 671 l 1x7a90
 152 727 l 1
 214 727 l 1
 214 239 l 1
 150 239 l 1
 150 657 l 1xb990
 45 603 l 1xba90
239 0 m 1
 610 727 l 1
 675 727 l 1
 305 0 l 1
 239 0 l 1
814 252 m 1
 859 233 883 192 883 133 c 0
 883 39 841 -7 755 -7 c 0
 668 -7 626 39 626 133 c 0xb590
 626 192 651 233 697 252 c 1
 654 272 630 313 630 368 c 0
 630 448 676 494 755 494 c 0
 835 494 879 449 879 368 c 0xb560
 879 313 856 272 814 252 c 1
755 442 m 0xb560
 714 442 694 415 694 360 c 0
 694 325 708 276 755 276 c 0
 789 276 815 313 815 360 c 0
 815 416 796 442 755 442 c 0xb560
755 46 m 0xb590
 801 46 819 71 819 135 c 0
 819 195 798 226 755 226 c 0
 713 226 690 194 690 135 c 0
 690 70 708 46 755 46 c 0xb590
EndSplineSet
EndChar

StartChar: threeeighths
Encoding: 8540 8540 264
Width: 914
VWidth: 1220
GlyphClass: 1
Flags: MW
HStem: -7 53<731.5 778 731.5 798> 0 21G<239 239 239 305> 226 50<734 772 731.5 776.5> 232 53<128.5 176 128.5 194.5> 442 52<734.5 775.5> 467 55<115 115> 681 52<128.5 170> 707 20G<610 675 675 675>
VStem: 21 64<328 378> 25 65<588 588> 213 65<581 636> 223 65<346 409.5 330 413> 626 64<102.5 162.5> 630 64<342.5 387.5 342.5 408> 815 64<340.5 388> 819 64<103 162.5 86 165>
LayerCount: 2
Fore
SplineSet
288 376 m 0x9659
 288 284 239 232 150 232 c 0
 61 232 21 278 21 378 c 1
 85 378 l 1
 89 306 105 285 152 285 c 0
 200 285 223 314 223 378 c 0x9699
 223 448 198 468 115 467 c 1
 115 522 l 1
 184 520 213 547 213 615 c 0
 213 657 190 681 150 681 c 0
 107 681 91 657 90 588 c 1
 25 588 l 1
 24 684 66 733 150 733 c 0
 232 733 278 688 278 607 c 0x9669
 278 549 254 514 201 499 c 1
 262 481 288 443 288 376 c 0x9659
239 0 m 1x5559
 610 727 l 1
 675 727 l 1
 305 0 l 1
 239 0 l 1x5559
814 252 m 1
 859 233 883 192 883 133 c 0
 883 39 841 -7 755 -7 c 0
 668 -7 626 39 626 133 c 0x9659
 626 192 651 233 697 252 c 1
 654 272 630 313 630 368 c 0
 630 448 676 494 755 494 c 0
 835 494 879 449 879 368 c 0x9a56
 879 313 856 272 814 252 c 1
755 442 m 0xaa56
 714 442 694 415 694 360 c 0
 694 325 708 276 755 276 c 0
 789 276 815 313 815 360 c 0
 815 416 796 442 755 442 c 0xaa56
755 46 m 0xa659
 801 46 819 71 819 135 c 0
 819 195 798 226 755 226 c 0
 713 226 690 194 690 135 c 0
 690 70 708 46 755 46 c 0xa659
EndSplineSet
EndChar

StartChar: fiveeighths
Encoding: 8541 8541 265
Width: 914
VWidth: 1220
GlyphClass: 1
Flags: MW
HStem: -7 53<731.5 778 731.5 798> 0 21G<239 239 239 305> 226 50<734 772 731.5 776.5> 232 53<143 187.5 143 209.5> 442 52<734.5 775.5> 509 50<180 189> 673 54<113 279 113 113>
VStem: 40 65<355 355> 46 59 46 65 233 64<358 433> 626 64<102.5 162.5> 630 64<342.5 387.5 342.5 408> 815 64<340.5 388> 819 64<103 162.5 86 165>
LayerCount: 2
Fore
SplineSet
297 403 m 0x9a72
 297 289 253 232 166 232 c 0
 81 232 43 269 40 355 c 1x9b32
 105 355 l 1
 106 304 122 285 164 285 c 0
 211 285 233 320 233 396 c 0
 233 470 210 509 168 509 c 0
 134 509 112 486 105 440 c 1x9eb2
 42 440 l 1
 50 727 l 1
 279 727 l 1
 279 673 l 1
 113 673 l 1
 109 531 l 1
 139 556 171 559 189 559 c 0x9e72
 259 559 297 503 297 403 c 0x9a72
239 0 m 1x5a72
 610 727 l 1
 675 727 l 1
 305 0 l 1
 239 0 l 1x5a72
814 252 m 1
 859 233 883 192 883 133 c 0
 883 39 841 -7 755 -7 c 0
 668 -7 626 39 626 133 c 0x9a72
 626 192 651 233 697 252 c 1
 654 272 630 313 630 368 c 0
 630 448 676 494 755 494 c 0
 835 494 879 449 879 368 c 0x9a6c
 879 313 856 272 814 252 c 1
755 442 m 0xaa6c
 714 442 694 415 694 360 c 0
 694 325 708 276 755 276 c 0
 789 276 815 313 815 360 c 0
 815 416 796 442 755 442 c 0xaa6c
755 46 m 0xaa72
 801 46 819 71 819 135 c 0
 819 195 798 226 755 226 c 0
 713 226 690 194 690 135 c 0
 690 70 708 46 755 46 c 0xaa72
EndSplineSet
EndChar

StartChar: seveneighths
Encoding: 8542 8542 266
Width: 874
VWidth: 1220
GlyphClass: 1
Flags: MW
HStem: -7 53<691.5 738 691.5 758> 0 21G<199 199 199 265> 226 50<694 732 691.5 736.5> 442 52<694.5 735.5> 670 57<21 231 21 297>
VStem: 586 64<102.5 162.5> 590 64<342.5 387.5 342.5 408> 775 64<340.5 388> 779 64<103 162.5 86 165>
LayerCount: 2
Fore
SplineSet
21 727 m 1xbc80
 297 727 l 1
 297 677 l 1
 141 239 l 1
 70 239 l 1
 231 670 l 1
 21 670 l 1
 21 727 l 1xbc80
199 0 m 1x7c80
 570 727 l 1
 635 727 l 1
 265 0 l 1
 199 0 l 1x7c80
774 252 m 1
 819 233 843 192 843 133 c 0
 843 39 801 -7 715 -7 c 0
 628 -7 586 39 586 133 c 0xbc80
 586 192 611 233 657 252 c 1
 614 272 590 313 590 368 c 0
 590 448 636 494 715 494 c 0
 795 494 839 449 839 368 c 0xbb
 839 313 816 272 774 252 c 1
715 442 m 0xbb
 674 442 654 415 654 360 c 0
 654 325 668 276 715 276 c 0
 749 276 775 313 775 360 c 0
 775 416 756 442 715 442 c 0xbb
715 46 m 0xbc80
 761 46 779 71 779 135 c 0
 779 195 758 226 715 226 c 0
 673 226 650 194 650 135 c 0
 650 70 668 46 715 46 c 0xbc80
EndSplineSet
EndChar

StartChar: uni2160
Encoding: 8544 8544 267
Width: 346
VWidth: 1220
GlyphClass: 1
Flags: MW
HStem: 0 60<45 135 211 301 45 135> 667 60<45 135 45 301 211 301 211 211>
VStem: 135 76<60 667 60 667>
LayerCount: 2
Fore
SplineSet
301 727 m 1
 301 667 l 1
 211 667 l 1
 211 60 l 1
 301 60 l 1
 301 0 l 1
 45 0 l 1
 45 60 l 1
 135 60 l 1
 135 667 l 1
 45 667 l 1
 45 727 l 1
 301 727 l 1
EndSplineSet
EndChar

StartChar: uni2161
Encoding: 8545 8545 268
Width: 592
VWidth: 1220
GlyphClass: 1
Flags: MW
HStem: 0 60<45 135 211 381 457 547 45 135> 667 60<45 135 45 547 211 211 211 381 457 547 457 457>
VStem: 135 76<60 667 60 667> 381 76<60 667 60 667>
LayerCount: 2
Fore
SplineSet
547 727 m 1
 547 667 l 1
 457 667 l 1
 457 60 l 1
 547 60 l 1
 547 0 l 1
 45 0 l 1
 45 60 l 1
 135 60 l 1
 135 667 l 1
 45 667 l 1
 45 727 l 1
 547 727 l 1
381 60 m 1
 381 667 l 1
 211 667 l 1
 211 60 l 1
 381 60 l 1
EndSplineSet
EndChar

StartChar: uni2162
Encoding: 8546 8546 269
Width: 838
VWidth: 1220
GlyphClass: 1
Flags: MW
HStem: 0 60<45 135 211 381 457 627 703 793 45 135> 667 60<45 135 45 793 211 211 211 381 457 457 457 627 703 793 703 703>
VStem: 135 76<60 667 60 667> 381 76<60 667 60 667> 627 76<60 667 60 667>
LayerCount: 2
Fore
SplineSet
793 727 m 1
 793 667 l 1
 703 667 l 1
 703 60 l 1
 793 60 l 1
 793 0 l 1
 45 0 l 1
 45 60 l 1
 135 60 l 1
 135 667 l 1
 45 667 l 1
 45 727 l 1
 793 727 l 1
381 60 m 1
 381 667 l 1
 211 667 l 1
 211 60 l 1
 381 60 l 1
627 60 m 1
 627 667 l 1
 457 667 l 1
 457 60 l 1
 627 60 l 1
EndSplineSet
EndChar

StartChar: uni2163
Encoding: 8547 8547 270
Width: 946
VWidth: 1220
GlyphClass: 1
Flags: MW
HStem: 0 60<45 135 211 301 45 135> 667 60<45 135 45 538 211 372 211 211 452 452 452 538 654 741 821 901 821 821>
VStem: 135 76<60 667 60 667> 654 247<667 727 667 727>
LayerCount: 2
Fore
SplineSet
901 727 m 1
 901 667 l 1
 821 667 l 1
 654 0 l 1
 539 0 l 1
 372 667 l 1
 211 667 l 1
 211 60 l 1
 301 60 l 1
 301 0 l 1
 45 0 l 1
 45 60 l 1
 135 60 l 1
 135 667 l 1
 45 667 l 1
 45 727 l 1
 538 727 l 1
 538 667 l 1
 452 667 l 1
 596 88 l 1
 600 88 l 1
 741 667 l 1
 654 667 l 1
 654 727 l 1
 901 727 l 1
EndSplineSet
EndChar

StartChar: uni2164
Encoding: 8548 8548 271
Width: 700
VWidth: 1220
GlyphClass: 1
Flags: MW
HStem: 0 88<350 354 350 408 293 354> 667 60<45 126 45 292 206 206 206 292 408 495 575 655 575 575>
VStem: 45 247<667 727 667 727> 408 247<667 727 667 727>
LayerCount: 2
Fore
SplineSet
655 727 m 1
 655 667 l 1
 575 667 l 1
 408 0 l 1
 293 0 l 1
 126 667 l 1
 45 667 l 1
 45 727 l 1
 292 727 l 1
 292 667 l 1
 206 667 l 1
 350 88 l 1
 354 88 l 1
 495 667 l 1
 408 667 l 1
 408 727 l 1
 655 727 l 1
EndSplineSet
EndChar

StartChar: uni2165
Encoding: 8549 8549 272
Width: 906
VWidth: 1220
GlyphClass: 1
Flags: MW
HStem: 0 60<605 695 771 861 605 695> 667 60<45 126 45 292 206 206 206 292 408 495 575 695 575 575 771 861 771 771>
VStem: 45 247<667 727 667 727> 695 76<60 667 60 667>
LayerCount: 2
Fore
SplineSet
861 727 m 1
 861 667 l 1
 771 667 l 1
 771 60 l 1
 861 60 l 1
 861 0 l 1
 605 0 l 1
 605 60 l 1
 695 60 l 1
 695 667 l 1
 575 667 l 1
 408 0 l 1
 293 0 l 1
 126 667 l 1
 45 667 l 1
 45 727 l 1
 292 727 l 1
 292 667 l 1
 206 667 l 1
 350 88 l 1
 354 88 l 1
 495 667 l 1
 408 667 l 1
 408 727 l 1
 861 727 l 1
EndSplineSet
EndChar

StartChar: uni2166
Encoding: 8550 8550 273
Width: 1152
VWidth: 1220
GlyphClass: 1
Flags: MW
HStem: 0 60<605 695 771 941 1017 1107 605 695> 667 60<45 126 45 292 206 206 206 292 408 495 575 695 575 575 771 771 771 941 1017 1107 1017 1017>
VStem: 45 247<667 727 667 727> 695 76<60 667 60 667> 941 76<60 667 60 667>
LayerCount: 2
Fore
SplineSet
1107 727 m 1
 1107 667 l 1
 1017 667 l 1
 1017 60 l 1
 1107 60 l 1
 1107 0 l 1
 605 0 l 1
 605 60 l 1
 695 60 l 1
 695 667 l 1
 575 667 l 1
 408 0 l 1
 293 0 l 1
 126 667 l 1
 45 667 l 1
 45 727 l 1
 292 727 l 1
 292 667 l 1
 206 667 l 1
 350 88 l 1
 354 88 l 1
 495 667 l 1
 408 667 l 1
 408 727 l 1
 1107 727 l 1
941 60 m 1
 941 667 l 1
 771 667 l 1
 771 60 l 1
 941 60 l 1
EndSplineSet
EndChar

StartChar: uni2167
Encoding: 8551 8551 274
Width: 1398
VWidth: 1220
GlyphClass: 1
Flags: MW
HStem: 0 60<605 695 771 941 1017 1187 1263 1353 605 695> 667 60<45 126 45 292 206 206 206 292 408 495 575 695 575 575 771 771 771 941 1017 1017 1017 1187 1263 1353 1263 1263>
VStem: 45 247<667 727 667 727> 695 76<60 667 60 667> 941 76<60 667 60 667> 1187 76<60 667 60 667>
LayerCount: 2
Fore
SplineSet
1353 727 m 1
 1353 667 l 1
 1263 667 l 1
 1263 60 l 1
 1353 60 l 1
 1353 0 l 1
 605 0 l 1
 605 60 l 1
 695 60 l 1
 695 667 l 1
 575 667 l 1
 408 0 l 1
 293 0 l 1
 126 667 l 1
 45 667 l 1
 45 727 l 1
 292 727 l 1
 292 667 l 1
 206 667 l 1
 350 88 l 1
 354 88 l 1
 495 667 l 1
 408 667 l 1
 408 727 l 1
 1353 727 l 1
941 60 m 1
 941 667 l 1
 771 667 l 1
 771 60 l 1
 941 60 l 1
1187 60 m 1
 1187 667 l 1
 1017 667 l 1
 1017 60 l 1
 1187 60 l 1
EndSplineSet
EndChar

StartChar: uni2168
Encoding: 8552 8552 275
Width: 862
VWidth: 1220
GlyphClass: 1
Flags: MW
HStem: 0 60<45 135 211 356 439 508 45 135 600 668 752 837> 667 60<45 135 45 508 211 211 211 356 439 439 439 508 600 668 752 837 752 752>
VStem: 135 76<60 667 60 667> 600 237<0 60 0 60 667 727>
LayerCount: 2
Fore
SplineSet
837 667 m 1
 752 667 l 1
 596 364 l 1
 752 60 l 1
 837 60 l 1
 837 0 l 1
 600 0 l 1
 600 60 l 1
 668 60 l 1
 557 277 l 1
 551 277 l 1
 439 60 l 1
 508 60 l 1
 508 0 l 1
 45 0 l 1
 45 60 l 1
 135 60 l 1
 135 667 l 1
 45 667 l 1
 45 727 l 1
 508 727 l 1
 508 667 l 1
 439 667 l 1
 551 450 l 1
 557 450 l 1
 668 667 l 1
 600 667 l 1
 600 727 l 1
 837 727 l 1
 837 667 l 1
356 60 m 1
 512 364 l 1
 356 667 l 1
 211 667 l 1
 211 60 l 1
 356 60 l 1
EndSplineSet
EndChar

